<?xml version="1.0" standalone="no"?>
<!DOCTYPE svg PUBLIC "-//W3C//DTD SVG 20010904//EN"
 "http://www.w3.org/TR/2001/REC-SVG-20010904/DTD/svg10.dtd">
<svg version="1.0" xmlns="http://www.w3.org/2000/svg"
 width="744.000000pt" height="744.000000pt" viewBox="0 0 744.000000 744.000000"
 preserveAspectRatio="xMidYMid meet">
<metadata>
Created by potrace 1.11, written by Peter Selinger 2001-2013
</metadata>
<g transform="translate(0.000000,744.000000) scale(0.100000,-0.100000)"
fill="#000000" stroke="none">
<path d="M3488 7435 c-2 -1 -46 -6 -98 -10 -52 -3 -97 -8 -100 -10 -3 -1 -32
-6 -65 -9 -90 -10 -110 -13 -145 -21 -17 -4 -41 -8 -53 -10 -54 -7 -232 -50
-339 -81 -616 -179 -1159 -502 -1611 -958 -188 -189 -348 -392 -513 -646 -127
-197 -272 -499 -359 -749 -65 -190 -138 -481 -160 -636 -3 -22 -7 -53 -10 -70
-23 -148 -30 -275 -30 -530 1 -241 6 -331 30 -490 2 -16 7 -52 11 -80 14 -120
77 -381 131 -550 74 -231 213 -547 312 -709 23 -36 41 -69 41 -71 0 -5 122
-193 143 -220 4 -5 44 -59 88 -118 153 -204 330 -391 551 -582 331 -288 762
-533 1203 -685 107 -37 338 -102 405 -114 14 -2 59 -11 100 -19 97 -20 271
-44 385 -54 179 -15 629 -8 745 12 14 2 50 7 80 10 72 9 97 13 180 30 14 2 36
7 50 9 66 13 86 17 102 22 10 3 30 8 45 10 102 19 434 130 580 195 67 29 319
154 368 182 177 99 446 288 575 403 19 17 60 53 90 81 120 106 314 311 395
417 17 22 41 53 55 70 14 17 32 41 40 53 8 11 40 56 71 100 178 251 343 577
453 893 41 116 105 340 120 420 3 14 12 59 20 100 8 41 17 93 20 115 22 158
28 200 34 275 9 113 9 523 -1 630 -10 116 -27 236 -53 380 -39 222 -141 557
-231 760 -163 368 -356 677 -604 965 -127 149 -318 336 -448 441 -13 10 -28
24 -35 29 -30 27 -211 160 -282 206 -43 28 -91 60 -106 70 -15 11 -29 19 -32
19 -2 0 -39 20 -81 45 -244 144 -578 281 -880 360 -71 19 -141 36 -155 39 -14
2 -59 11 -100 19 -41 9 -127 23 -190 31 -63 9 -135 18 -160 22 -46 6 -576 15
-582 9z"/>
</g>
</svg>
