<svg width="586" height="119" viewBox="0 0 586 119" fill="none" xmlns="http://www.w3.org/2000/svg">
<path d="M44.22 118.68C30.36 118.68 19.525 114.94 11.715 107.46C3.905 99.98 0 89.805 0 76.935C0 68.465 1.87 60.985 5.61 54.495C9.46 48.005 14.795 43 21.615 39.48C28.545 35.96 36.52 34.2 45.54 34.2C51.59 34.2 57.42 35.08 63.03 36.84C68.4596 38.5106 72.898 40.7264 76.3453 43.4873C76.6754 43.7517 76.7908 44.1995 76.6423 44.5955L69.9492 62.4438C69.7104 63.0806 68.9186 63.2989 68.366 62.9023C65.8358 61.0865 62.8471 59.604 59.4 58.455C55.55 57.025 51.92 56.31 48.51 56.31C42.57 56.31 38.005 57.96 34.815 61.26C31.735 64.56 30.195 69.565 30.195 76.275C30.195 82.985 31.735 88.045 34.815 91.455C38.005 94.865 42.57 96.57 48.51 96.57C51.92 96.57 55.55 95.91 59.4 94.59C62.8424 93.3469 65.8275 91.7714 68.3556 89.8633C68.9074 89.4468 69.7184 89.6614 69.9594 90.3094L76.6417 108.277C76.7903 108.677 76.6704 109.128 76.3351 109.391C72.6806 112.26 68.0805 114.531 62.535 116.205C56.815 117.855 50.71 118.68 44.22 118.68Z" fill="white"/>
<path d="M133.965 35.856C143.181 35.856 150.477 38.976 155.853 45.216C161.325 51.36 164.061 59.712 164.061 70.272V116.36C164.061 116.912 163.613 117.36 163.061 117.36H136.837C136.285 117.36 135.837 116.912 135.837 116.36V74.016C135.837 69.408 134.637 65.808 132.237 63.216C129.837 60.528 126.621 59.184 122.589 59.184C118.365 59.184 115.053 60.528 112.653 63.216C110.253 65.808 109.053 69.408 109.053 74.016V116.36C109.053 116.912 108.605 117.36 108.053 117.36H81.829C81.2767 117.36 80.829 116.912 80.829 116.36V11.8C80.829 11.2477 81.2767 10.8 81.829 10.8H108.053C108.605 10.8 109.053 11.2477 109.053 11.8V44.8636C109.053 45.8468 110.388 46.2846 111.039 45.5486C113.244 43.0588 115.942 40.98 119.133 39.312C123.453 37.008 128.397 35.856 133.965 35.856Z" fill="white"/>
<path d="M170.62 76.896C170.62 68.544 172.108 61.248 175.084 55.008C178.156 48.768 182.284 43.968 187.468 40.608C192.748 37.248 198.604 35.568 205.036 35.568C210.604 35.568 215.404 36.672 219.436 38.88C222.324 40.4619 224.745 42.4381 226.698 44.8085C227.345 45.5944 228.796 45.162 228.796 44.1438V37.576C228.796 37.0237 229.243 36.576 229.796 36.576H256.02C256.572 36.576 257.02 37.0237 257.02 37.576V116.36C257.02 116.912 256.572 117.36 256.02 117.36H229.796C229.243 117.36 228.796 116.912 228.796 116.36V109.792C228.796 108.774 227.341 108.339 226.69 109.122C224.718 111.495 222.251 113.473 219.292 115.056C215.26 117.264 210.508 118.368 205.036 118.368C198.604 118.368 192.748 116.688 187.468 113.328C182.284 109.968 178.156 105.168 175.084 98.928C172.108 92.592 170.62 85.248 170.62 76.896ZM228.796 76.896C228.796 71.712 227.356 67.632 224.476 64.656C221.692 61.68 218.236 60.192 214.108 60.192C209.884 60.192 206.38 61.68 203.596 64.656C200.812 67.536 199.42 71.616 199.42 76.896C199.42 82.08 200.812 86.208 203.596 89.28C206.38 92.256 209.884 93.744 214.108 93.744C218.236 93.744 221.692 92.256 224.476 89.28C227.356 86.304 228.796 82.176 228.796 76.896Z" fill="white"/>
<path d="M283.039 29.088C278.047 29.088 274.015 27.744 270.943 25.056C267.967 22.272 266.479 18.816 266.479 14.688C266.479 10.464 267.967 6.96 270.943 4.17601C274.015 1.392 278.047 0 283.039 0C287.935 0 291.871 1.392 294.847 4.17601C297.919 6.96 299.455 10.464 299.455 14.688C299.455 18.816 297.919 22.272 294.847 25.056C291.871 27.744 287.935 29.088 283.039 29.088ZM296.007 36.576C296.559 36.576 297.007 37.0237 297.007 37.576V116.36C297.007 116.912 296.559 117.36 296.007 117.36H269.783C269.23 117.36 268.783 116.912 268.783 116.36V37.576C268.783 37.0237 269.23 36.576 269.783 36.576H296.007Z" fill="white"/>
<path d="M361.608 35.856C370.92 35.856 378.312 38.976 383.784 45.216C389.256 51.36 391.992 59.712 391.992 70.272V116.36C391.992 116.912 391.544 117.36 390.992 117.36H364.768C364.215 117.36 363.768 116.912 363.768 116.36V74.016C363.768 69.408 362.568 65.808 360.168 63.216C357.768 60.528 354.552 59.184 350.52 59.184C346.296 59.184 342.984 60.528 340.584 63.216C338.184 65.808 336.984 69.408 336.984 74.016V116.36C336.984 116.912 336.536 117.36 335.984 117.36H309.76C309.207 117.36 308.76 116.912 308.76 116.36V37.576C308.76 37.0237 309.207 36.576 309.76 36.576H335.984C336.536 36.576 336.984 37.0237 336.984 37.576V44.8636C336.984 45.8468 338.318 46.2846 338.97 45.5486C341.175 43.0588 343.873 40.98 347.064 39.312C351.288 37.008 356.136 35.856 361.608 35.856Z" fill="white"/>
<path d="M435.594 118.656C427.926 118.656 420.852 117.846 414.372 116.226C408.197 114.682 402.954 112.452 398.643 109.535C398.267 109.281 398.12 108.802 398.278 108.377L404.865 90.6664C405.088 90.0662 405.81 89.8278 406.355 90.1637C410.415 92.6657 414.978 94.7111 420.042 96.3C425.55 97.92 430.842 98.73 435.918 98.73C439.05 98.73 441.48 98.298 443.208 97.434C444.936 96.462 445.8 95.166 445.8 93.546C445.8 92.142 445.152 91.062 443.856 90.306C442.668 89.55 440.184 88.74 436.404 87.876L423.606 84.96C415.506 83.124 409.674 80.424 406.11 76.86C402.546 73.296 400.764 68.22 400.764 61.632C400.764 56.556 402.276 52.074 405.3 48.186C408.324 44.19 412.536 41.112 417.936 38.952C423.444 36.792 429.654 35.712 436.566 35.712C442.29 35.712 447.96 36.576 453.576 38.304C459.019 39.8444 463.973 42.0194 468.44 44.8291C468.842 45.0825 469.002 45.588 468.827 46.0303L462.119 62.9468C461.888 63.5272 461.189 63.7565 460.653 63.4352C456.666 61.0423 452.633 59.1993 448.554 57.906C444.234 56.394 440.13 55.638 436.242 55.638C433.11 55.638 430.68 56.124 428.952 57.096C427.224 58.068 426.36 59.472 426.36 61.308C426.36 62.388 426.9 63.306 427.98 64.062C429.06 64.71 430.95 65.358 433.65 66.006L447.096 69.084C455.52 70.92 461.622 73.782 465.402 77.67C469.182 81.45 471.072 86.634 471.072 93.222C471.072 101.106 467.886 107.316 461.514 111.852C455.25 116.388 446.61 118.656 435.594 118.656Z" fill="white"/>
<path d="M523.896 59.0462C523.896 59.5985 523.449 60.0462 522.896 60.0462H512.224C511.672 60.0462 511.224 60.4939 511.224 61.0462V116.358C511.224 116.91 510.777 117.358 510.224 117.358H483.856C483.304 117.358 482.856 116.91 482.856 116.358V61.0462C482.856 60.4939 482.409 60.0462 481.856 60.0462H475.072C474.52 60.0462 474.072 59.5985 474.072 59.0462V37.5742C474.072 37.0219 474.52 36.5742 475.072 36.5742H482.136C482.534 36.5742 482.856 36.2518 482.856 35.8542V35.8542C482.856 25.4862 485.88 17.5662 491.928 12.0942C498.072 6.52619 506.856 3.74219 518.28 3.74219C520.065 3.74219 521.533 3.77099 522.684 3.82861C523.206 3.85473 523.608 4.28968 523.608 4.81222V26.8014C523.608 27.4029 523.081 27.8711 522.48 27.8382C521.896 27.8062 521.216 27.7902 520.44 27.7902C517.368 27.7902 515.112 28.5102 513.672 29.9502C512.404 31.1342 511.62 32.9887 511.319 35.5138C511.251 36.0866 511.712 36.5742 512.289 36.5742H522.896C523.449 36.5742 523.896 37.0219 523.896 37.5742V59.0462Z" fill="white"/>
<path d="M559.296 47.6105C559.296 48.5926 560.603 49.0133 561.221 48.2501C563.984 44.8393 567.182 42.0513 570.816 39.8862C575.037 37.3717 579.552 36.0333 584.36 35.871C584.912 35.8524 585.36 36.3019 585.36 36.8542V64.9502C585.36 65.5025 584.913 65.9502 584.36 65.9502H577.44C571.296 65.9502 566.736 67.1502 563.76 69.5502C560.784 71.9502 559.296 76.1262 559.296 82.0782V116.358C559.296 116.91 558.849 117.358 558.296 117.358H532.072C531.52 117.358 531.072 116.91 531.072 116.358V37.5742C531.072 37.0219 531.52 36.5742 532.072 36.5742H558.296C558.849 36.5742 559.296 37.0219 559.296 37.5742V47.6105Z" fill="white"/>
</svg>
