<svg width="717" height="120" viewBox="0 0 717 120" fill="none" xmlns="http://www.w3.org/2000/svg">
<path d="M179.005 119.321C165.145 119.321 154.31 115.581 146.5 108.101C138.69 100.621 134.785 90.4456 134.785 77.5756C134.785 69.1056 136.655 61.6256 140.395 55.1356C144.245 48.6456 149.58 43.6406 156.4 40.1206C163.33 36.6006 171.305 34.8406 180.325 34.8406C186.375 34.8406 192.205 35.7206 197.815 37.4806C203.244 39.1513 207.683 41.367 211.13 44.1279C211.46 44.3923 211.576 44.8401 211.427 45.2361L204.734 63.0844C204.495 63.7213 203.704 63.9395 203.151 63.543C200.621 61.7271 197.632 60.2447 194.185 59.0956C190.335 57.6656 186.705 56.9506 183.295 56.9506C177.355 56.9506 172.79 58.6006 169.6 61.9006C166.52 65.2006 164.98 70.2056 164.98 76.9156C164.98 83.6256 166.52 88.6856 169.6 92.0956C172.79 95.5056 177.355 97.2106 183.295 97.2106C186.705 97.2106 190.335 96.5506 194.185 95.2306C197.627 93.9876 200.612 92.412 203.14 90.504C203.692 90.0875 204.503 90.3021 204.744 90.9501L211.427 108.918C211.575 109.318 211.455 109.769 211.12 110.032C207.465 112.9 202.865 115.172 197.32 116.846C191.6 118.496 185.495 119.321 179.005 119.321Z" fill="#396EC8"/>
<path d="M268.75 36.4966C277.966 36.4966 285.262 39.6166 290.638 45.8566C296.11 52.0006 298.846 60.3526 298.846 70.9126V117.001C298.846 117.553 298.398 118.001 297.846 118.001H271.622C271.07 118.001 270.622 117.553 270.622 117.001V74.6566C270.622 70.0486 269.422 66.4486 267.022 63.8566C264.622 61.1686 261.406 59.8246 257.374 59.8246C253.15 59.8246 249.838 61.1686 247.438 63.8566C245.038 66.4486 243.838 70.0486 243.838 74.6566V117.001C243.838 117.553 243.39 118.001 242.838 118.001H216.614C216.062 118.001 215.614 117.553 215.614 117.001V12.4406C215.614 11.8883 216.062 11.4406 216.614 11.4406H242.838C243.39 11.4406 243.838 11.8883 243.838 12.4406V45.5042C243.838 46.4874 245.173 46.9253 245.824 46.1892C248.029 43.6995 250.727 41.6206 253.918 39.9526C258.238 37.6486 263.182 36.4966 268.75 36.4966Z" fill="#396EC8"/>
<path d="M305.405 77.5366C305.405 69.1846 306.893 61.8886 309.869 55.6486C312.941 49.4086 317.069 44.6086 322.253 41.2486C327.533 37.8886 333.389 36.2086 339.821 36.2086C345.389 36.2086 350.189 37.3126 354.221 39.5206C357.109 41.1026 359.53 43.0787 361.482 45.4491C362.13 46.235 363.581 45.8026 363.581 44.7844V38.2166C363.581 37.6643 364.028 37.2166 364.581 37.2166H390.805C391.357 37.2166 391.805 37.6643 391.805 38.2166V117.001C391.805 117.553 391.357 118.001 390.805 118.001H364.581C364.028 118.001 363.581 117.553 363.581 117.001V110.433C363.581 109.415 362.126 108.98 361.475 109.763C359.503 112.136 357.036 114.114 354.077 115.697C350.045 117.905 345.293 119.009 339.821 119.009C333.389 119.009 327.533 117.329 322.253 113.969C317.069 110.609 312.941 105.809 309.869 99.5686C306.893 93.2326 305.405 85.8886 305.405 77.5366ZM363.581 77.5366C363.581 72.3526 362.141 68.2726 359.261 65.2966C356.477 62.3206 353.021 60.8326 348.893 60.8326C344.669 60.8326 341.165 62.3206 338.381 65.2966C335.597 68.1766 334.205 72.2566 334.205 77.5366C334.205 82.7206 335.597 86.8486 338.381 89.9206C341.165 92.8966 344.669 94.3846 348.893 94.3846C353.021 94.3846 356.477 92.8966 359.261 89.9206C362.141 86.9446 363.581 82.8166 363.581 77.5366Z" fill="#396EC8"/>
<path d="M417.824 29.7286C412.832 29.7286 408.8 28.3846 405.728 25.6966C402.752 22.9126 401.264 19.4566 401.264 15.3286C401.264 11.1046 402.752 7.60063 405.728 4.81663C408.8 2.03263 412.832 0.640625 417.824 0.640625C422.72 0.640625 426.656 2.03263 429.632 4.81663C432.704 7.60063 434.24 11.1046 434.24 15.3286C434.24 19.4566 432.704 22.9126 429.632 25.6966C426.656 28.3846 422.72 29.7286 417.824 29.7286ZM430.792 37.2166C431.344 37.2166 431.792 37.6643 431.792 38.2166V117.001C431.792 117.553 431.344 118.001 430.792 118.001H404.568C404.015 118.001 403.568 117.553 403.568 117.001V38.2166C403.568 37.6643 404.015 37.2166 404.568 37.2166H430.792Z" fill="#396EC8"/>
<path d="M496.393 36.4966C505.705 36.4966 513.097 39.6166 518.569 45.8566C524.041 52.0006 526.777 60.3526 526.777 70.9126V117.001C526.777 117.553 526.329 118.001 525.777 118.001H499.553C499 118.001 498.553 117.553 498.553 117.001V74.6566C498.553 70.0486 497.353 66.4486 494.953 63.8566C492.553 61.1686 489.337 59.8246 485.305 59.8246C481.081 59.8246 477.769 61.1686 475.369 63.8566C472.969 66.4486 471.769 70.0486 471.769 74.6566V117.001C471.769 117.553 471.321 118.001 470.769 118.001H444.545C443.992 118.001 443.545 117.553 443.545 117.001V38.2166C443.545 37.6643 443.992 37.2166 444.545 37.2166H470.769C471.321 37.2166 471.769 37.6643 471.769 38.2166V45.5042C471.769 46.4874 473.103 46.9253 473.755 46.1892C475.96 43.6995 478.658 41.6206 481.849 39.9526C486.073 37.6486 490.921 36.4966 496.393 36.4966Z" fill="#396EC8"/>
<path d="M570.379 119.297C562.711 119.297 555.637 118.487 549.157 116.867C542.982 115.323 537.739 113.093 533.428 110.176C533.052 109.922 532.905 109.443 533.063 109.018L539.65 91.307C539.873 90.7068 540.595 90.4684 541.14 90.8044C545.2 93.3063 549.763 95.3518 554.827 96.9406C560.335 98.5606 565.627 99.3706 570.703 99.3706C573.835 99.3706 576.265 98.9386 577.993 98.0746C579.721 97.1026 580.585 95.8066 580.585 94.1866C580.585 92.7826 579.937 91.7026 578.641 90.9466C577.453 90.1906 574.969 89.3806 571.189 88.5166L558.391 85.6006C550.291 83.7646 544.459 81.0646 540.895 77.5006C537.331 73.9366 535.549 68.8606 535.549 62.2726C535.549 57.1966 537.061 52.7146 540.085 48.8266C543.109 44.8306 547.321 41.7526 552.721 39.5926C558.229 37.4326 564.439 36.3526 571.351 36.3526C577.075 36.3526 582.745 37.2166 588.361 38.9446C593.804 40.485 598.758 42.66 603.224 45.4697C603.627 45.7231 603.787 46.2286 603.612 46.6709L596.904 63.5874C596.673 64.1678 595.973 64.3972 595.438 64.0759C591.451 61.683 587.418 59.8399 583.339 58.5466C579.019 57.0346 574.915 56.2786 571.027 56.2786C567.895 56.2786 565.465 56.7646 563.737 57.7366C562.009 58.7086 561.145 60.1126 561.145 61.9486C561.145 63.0286 561.685 63.9466 562.765 64.7026C563.845 65.3506 565.735 65.9986 568.435 66.6466L581.881 69.7246C590.305 71.5606 596.407 74.4226 600.187 78.3106C603.967 82.0906 605.857 87.2746 605.857 93.8626C605.857 101.747 602.671 107.957 596.299 112.493C590.035 117.029 581.395 119.297 570.379 119.297Z" fill="#396EC8"/>
<path d="M656.133 59.6868C656.133 60.2391 655.686 60.6868 655.133 60.6868H644.461C643.909 60.6868 643.461 61.1345 643.461 61.6868V116.999C643.461 117.551 643.014 117.999 642.461 117.999H616.093C615.541 117.999 615.093 117.551 615.093 116.999V61.6868C615.093 61.1345 614.646 60.6868 614.093 60.6868H607.309C606.757 60.6868 606.309 60.2391 606.309 59.6868V38.2148C606.309 37.6625 606.757 37.2148 607.309 37.2148H614.373C614.771 37.2148 615.093 36.8925 615.093 36.4948V36.4948C615.093 26.1268 618.117 18.2068 624.165 12.7348C630.309 7.16681 639.093 4.38281 650.517 4.38281C652.302 4.38281 653.77 4.41162 654.921 4.46923C655.443 4.49535 655.845 4.93031 655.845 5.45284V27.442C655.845 28.0435 655.318 28.5117 654.717 28.4788C654.133 28.4468 653.453 28.4308 652.677 28.4308C649.605 28.4308 647.349 29.1508 645.909 30.5908C644.641 31.7748 643.856 33.6293 643.556 36.1544C643.488 36.7272 643.949 37.2148 644.526 37.2148H655.133C655.686 37.2148 656.133 37.6625 656.133 38.2148V59.6868Z" fill="#FF748E"/>
<path d="M690.124 48.2511C690.124 49.2332 691.431 49.6539 692.049 48.8908C694.811 45.4799 698.01 42.6919 701.644 40.5268C705.865 38.0124 710.38 36.674 715.188 36.5116C715.74 36.493 716.188 36.9425 716.188 37.4948V65.5908C716.188 66.1431 715.74 66.5908 715.188 66.5908H708.268C702.124 66.5908 697.564 67.7908 694.588 70.1908C691.612 72.5908 690.124 76.7668 690.124 82.7188V116.999C690.124 117.551 689.676 117.999 689.124 117.999H662.9C662.348 117.999 661.9 117.551 661.9 116.999V38.2148C661.9 37.6625 662.348 37.2148 662.9 37.2148H689.124C689.676 37.2148 690.124 37.6625 690.124 38.2148V48.2511Z" fill="#FF748E"/>
<path d="M105.655 49.8755C106.291 51.9493 108 51.8166 108 49.6476V49.6476V16.0933C108 13.8334 106.168 12.0014 103.908 12.0014H62.1969L69.5623 12.0021V12.0021C67.7685 12.0021 67.6435 13.6197 69.3662 14.1197C86.6804 19.1454 100.381 32.6683 105.655 49.8755Z" fill="#FF748E"/>
<path d="M83.4749 65.343C83.4749 49.0718 70.2845 35.8813 54.0132 35.8813C37.742 35.8813 24.5515 49.0718 24.5515 65.343C24.5515 81.6142 37.742 94.8047 54.0132 94.8047C70.2845 94.8047 83.4749 81.6142 83.4749 65.343Z" fill="#396EC8"/>
<path d="M88 65C88 46.2223 72.7777 31 54 31C35.2223 31 20 46.2223 20 65C20 83.7777 35.2223 99 54 99C72.7777 99 88 83.7777 88 65Z" fill="#396EC8"/>
<path d="M2.30225 80.5233C1.6798 78.4723 4.18617e-05 78.6011 4.18617e-05 80.7445V80.7445V114.446C4.18617e-05 116.706 1.83205 118.538 4.09194 118.538H45.8031H38.4639V118.538C40.2539 118.538 40.3782 116.925 38.659 116.427C21.2858 111.393 7.54716 97.8056 2.30225 80.5233Z" fill="#396EC8"/>
</svg>
