<svg width="180" height="30" viewBox="0 0 180 30" fill="none" xmlns="http://www.w3.org/2000/svg">
<g clip-path="url(#clip0)">
<path d="M44.7513 29.8303C41.2863 29.8303 38.5775 28.8953 36.625 27.0253C34.6725 25.1553 33.6963 22.6115 33.6963 19.394C33.6963 17.2765 34.1638 15.4065 35.0988 13.784C36.0613 12.1615 37.395 10.9102 39.1 10.0302C40.8325 9.15021 42.8263 8.71021 45.0813 8.71021C46.5938 8.71021 48.0513 8.9302 49.4538 9.3702C50.811 9.78788 51.9208 10.3418 52.7825 11.032C52.865 11.0981 52.894 11.2101 52.8568 11.3091L51.1835 15.7712C51.1238 15.9304 50.926 15.9849 50.7878 15.8858C50.1553 15.4318 49.408 15.0612 48.5463 14.774C47.5838 14.4165 46.6763 14.2377 45.8238 14.2377C44.3388 14.2377 43.1975 14.6502 42.4 15.4752C41.63 16.3002 41.245 17.5515 41.245 19.229C41.245 20.9065 41.63 22.1715 42.4 23.024C43.1975 23.8765 44.3388 24.3027 45.8238 24.3027C46.6763 24.3027 47.5838 24.1377 48.5463 23.8077C49.4068 23.497 50.153 23.1031 50.785 22.6261C50.923 22.5219 51.1258 22.5756 51.186 22.7376L52.8568 27.2296C52.8938 27.3296 52.8638 27.4423 52.78 27.5081C51.8663 28.2251 50.7163 28.7931 49.33 29.2116C47.9 29.6241 46.3738 29.8303 44.7513 29.8303Z" fill="white"/>
<path d="M67.1873 9.12411C69.4913 9.12411 71.3153 9.90411 72.6593 11.4641C74.0273 13.0001 74.7113 15.0881 74.7113 17.7281V29.2502C74.7113 29.3882 74.5993 29.5002 74.4613 29.5002H67.9053C67.7673 29.5002 67.6553 29.3882 67.6553 29.2502V18.6641C67.6553 17.5121 67.3553 16.6121 66.7553 15.9641C66.1553 15.2921 65.3513 14.9561 64.3433 14.9561C63.2873 14.9561 62.4593 15.2921 61.8593 15.9641C61.2593 16.6121 60.9593 17.5121 60.9593 18.6641V29.2502C60.9593 29.3882 60.8473 29.5002 60.7093 29.5002H54.1533C54.0153 29.5002 53.9033 29.3882 53.9033 29.2502V3.11011C53.9033 2.97203 54.0153 2.86011 54.1533 2.86011H60.7093C60.8473 2.86011 60.9593 2.97203 60.9593 3.11011V11.376C60.9593 11.6218 61.2931 11.7313 61.4558 11.5473C62.0071 10.9248 62.6816 10.4051 63.4793 9.98811C64.5593 9.41211 65.7953 9.12411 67.1873 9.12411Z" fill="white"/>
<path d="M76.3516 19.3842C76.3516 17.2962 76.7236 15.4722 77.4676 13.9122C78.2356 12.3522 79.2676 11.1522 80.5636 10.3122C81.8836 9.47219 83.3476 9.05219 84.9556 9.05219C86.3476 9.05219 87.5476 9.32819 88.5556 9.88019C89.2776 10.2757 89.8828 10.7697 90.3708 11.3623C90.5328 11.5588 90.8956 11.4507 90.8956 11.1961V9.55418C90.8956 9.41611 91.0073 9.30418 91.1456 9.30418H97.7016C97.8396 9.30418 97.9516 9.41611 97.9516 9.55418V29.2503C97.9516 29.3883 97.8396 29.5003 97.7016 29.5003H91.1456C91.0073 29.5003 90.8956 29.3883 90.8956 29.2503V27.6083C90.8956 27.3538 90.5318 27.245 90.3691 27.4408C89.8761 28.034 89.2593 28.5285 88.5196 28.9243C87.5116 29.4763 86.3236 29.7523 84.9556 29.7523C83.3476 29.7523 81.8836 29.3323 80.5636 28.4923C79.2676 27.6523 78.2356 26.4523 77.4676 24.8922C76.7236 23.3082 76.3516 21.4722 76.3516 19.3842ZM90.8956 19.3842C90.8956 18.0882 90.5356 17.0682 89.8156 16.3242C89.1196 15.5802 88.2556 15.2082 87.2236 15.2082C86.1676 15.2082 85.2916 15.5802 84.5956 16.3242C83.8996 17.0442 83.5516 18.0642 83.5516 19.3842C83.5516 20.6802 83.8996 21.7122 84.5956 22.4802C85.2916 23.2242 86.1676 23.5962 87.2236 23.5962C88.2556 23.5962 89.1196 23.2242 89.8156 22.4802C90.5356 21.7362 90.8956 20.7042 90.8956 19.3842Z" fill="white"/>
<path d="M104.455 7.43215C103.207 7.43215 102.199 7.09615 101.431 6.42415C100.687 5.72815 100.315 4.86415 100.315 3.83215C100.315 2.77615 100.687 1.90016 101.431 1.20416C102.199 0.508157 103.207 0.160156 104.455 0.160156C105.679 0.160156 106.663 0.508157 107.407 1.20416C108.175 1.90016 108.559 2.77615 108.559 3.83215C108.559 4.86415 108.175 5.72815 107.407 6.42415C106.663 7.09615 105.679 7.43215 104.455 7.43215ZM107.697 9.30415C107.835 9.30415 107.947 9.41607 107.947 9.55415V29.2502C107.947 29.3883 107.835 29.5002 107.697 29.5002H101.141C101.003 29.5002 100.891 29.3883 100.891 29.2502V9.55415C100.891 9.41607 101.003 9.30415 101.141 9.30415H107.697Z" fill="white"/>
<path d="M124.099 9.12415C126.427 9.12415 128.275 9.90415 129.643 11.4641C131.011 13.0001 131.695 15.0881 131.695 17.7281V29.2502C131.695 29.3882 131.583 29.5002 131.445 29.5002H124.889C124.75 29.5002 124.639 29.3882 124.639 29.2502V18.6641C124.639 17.5121 124.339 16.6121 123.739 15.9641C123.139 15.2921 122.335 14.9561 121.327 14.9561C120.271 14.9561 119.443 15.2921 118.843 15.9641C118.243 16.6121 117.943 17.5121 117.943 18.6641V29.2502C117.943 29.3882 117.831 29.5002 117.693 29.5002H111.137C110.998 29.5002 110.887 29.3882 110.887 29.2502V9.55414C110.887 9.41607 110.998 9.30414 111.137 9.30414H117.693C117.831 9.30414 117.943 9.41607 117.943 9.55414V11.376C117.943 11.6218 118.276 11.7313 118.439 11.5473C118.99 10.9249 119.665 10.4051 120.463 9.98814C121.519 9.41214 122.731 9.12415 124.099 9.12415Z" fill="white"/>
<path d="M142.595 29.8242C140.678 29.8242 138.909 29.6217 137.289 29.2167C135.745 28.8307 134.435 28.2732 133.357 27.544C133.263 27.4805 133.226 27.3607 133.266 27.2545L134.912 22.8267C134.968 22.6767 135.149 22.6171 135.285 22.7011C136.3 23.3266 137.441 23.8379 138.707 24.2351C140.084 24.6401 141.407 24.8426 142.676 24.8426C143.459 24.8426 144.066 24.7346 144.498 24.5186C144.93 24.2756 145.146 23.9516 145.146 23.5466C145.146 23.1956 144.984 22.9256 144.66 22.7366C144.363 22.5476 143.742 22.3451 142.797 22.1291L139.598 21.4001C137.573 20.9411 136.115 20.2661 135.224 19.3751C134.333 18.4841 133.887 17.2151 133.887 15.5681C133.887 14.2991 134.265 13.1786 135.021 12.2066C135.777 11.2076 136.83 10.4381 138.18 9.89814C139.557 9.35814 141.11 9.08813 142.838 9.08813C144.269 9.08813 145.686 9.30413 147.09 9.73613C148.451 10.1212 149.689 10.665 150.806 11.3674C150.907 11.4308 150.947 11.5571 150.903 11.6677L149.226 15.8968C149.168 16.0419 148.993 16.0993 148.859 16.019C147.863 15.4207 146.854 14.96 145.835 14.6366C144.755 14.2586 143.729 14.0696 142.757 14.0696C141.974 14.0696 141.366 14.1911 140.934 14.4341C140.502 14.6771 140.286 15.0281 140.286 15.4871C140.286 15.7571 140.421 15.9866 140.691 16.1756C140.961 16.3376 141.434 16.4996 142.109 16.6616L145.47 17.4311C147.576 17.8901 149.102 18.6056 150.047 19.5776C150.992 20.5226 151.464 21.8186 151.464 23.4656C151.464 25.4367 150.668 26.9892 149.075 28.1232C147.509 29.2572 145.349 29.8242 142.595 29.8242Z" fill="white"/>
<path d="M164.033 14.9217C164.033 15.0598 163.921 15.1717 163.783 15.1717H161.115C160.977 15.1717 160.865 15.2836 160.865 15.4217V29.2498C160.865 29.3878 160.753 29.4998 160.615 29.4998H154.023C153.885 29.4998 153.773 29.3878 153.773 29.2498V15.4217C153.773 15.2836 153.661 15.1717 153.523 15.1717H151.827C151.689 15.1717 151.577 15.0598 151.577 14.9217V9.5537C151.577 9.41563 151.689 9.3037 151.827 9.3037H153.593C153.693 9.3037 153.773 9.22313 153.773 9.1237C153.773 6.5317 154.529 4.5517 156.041 3.1837C157.577 1.7917 159.773 1.0957 162.629 1.0957C163.075 1.0957 163.442 1.10291 163.73 1.11731C163.861 1.12384 163.961 1.23258 163.961 1.36321V6.8605C163.961 7.01088 163.829 7.12793 163.679 7.1197C163.533 7.1117 163.363 7.1077 163.169 7.1077C162.401 7.1077 161.837 7.2877 161.477 7.6477C161.16 7.9437 160.964 8.40733 160.889 9.0386C160.872 9.1818 160.987 9.3037 161.131 9.3037H163.783C163.921 9.3037 164.033 9.41563 164.033 9.5537V14.9217Z" fill="white"/>
<path d="M172.531 12.0628C172.531 12.3083 172.857 12.4135 173.012 12.2227C173.702 11.37 174.502 10.673 175.411 10.1317C176.466 9.50309 177.595 9.16849 178.797 9.12789C178.935 9.12324 179.047 9.23561 179.047 9.37369V16.3977C179.047 16.5358 178.935 16.6477 178.797 16.6477H177.067C175.531 16.6477 174.391 16.9477 173.647 17.5477C172.903 18.1477 172.531 19.1917 172.531 20.6797V29.2497C172.531 29.3877 172.419 29.4997 172.281 29.4997H165.725C165.587 29.4997 165.475 29.3877 165.475 29.2497V9.55369C165.475 9.41561 165.587 9.30369 165.725 9.30369H172.281C172.419 9.30369 172.531 9.41561 172.531 9.55369V12.0628Z" fill="white"/>
<path d="M26.4143 12.4689C26.5733 12.9873 27.0006 12.9542 27.0006 12.4119V4.02334C27.0006 3.45837 26.5426 3.00037 25.9776 3.00037H15.5498L17.3912 3.00054C16.9427 3.00054 16.9115 3.40494 17.3421 3.52994C21.6707 4.78637 25.0958 8.16709 26.4143 12.4689Z" fill="white"/>
<path d="M20.8685 16.3358C20.8685 12.268 17.5709 8.97034 13.5031 8.97034C9.43532 8.97034 6.1377 12.268 6.1377 16.3358C6.1377 20.4036 9.43532 23.7012 13.5031 23.7012C17.5709 23.7012 20.8685 20.4036 20.8685 16.3358Z" fill="white"/>
<path d="M22 16.25C22 11.5556 18.1944 7.75 13.5 7.75C8.80557 7.75 5 11.5556 5 16.25C5 20.9444 8.80557 24.75 13.5 24.75C18.1944 24.75 22 20.9444 22 16.25Z" fill="white"/>
<path d="M0.575552 20.1308C0.419939 19.6181 0 19.6503 0 20.1861V28.6115C0 29.1765 0.458002 29.6345 1.02297 29.6345H11.4508H9.61596C10.0635 29.6345 10.0945 29.2313 9.66474 29.1068C5.32144 27.8483 1.88678 24.4514 0.575552 20.1308Z" fill="white"/>
</g>
<defs>
<clipPath id="clip0">
<rect width="179.25" height="30" fill="white"/>
</clipPath>
</defs>
</svg>
