<svg width="315" height="63" viewBox="0 0 315 63" fill="none" xmlns="http://www.w3.org/2000/svg">
<path d="M23.2547 62.9815C32.4157 62.9815 38.1413 58.8415 40.6957 55.1418L31.8871 46.8618C30.2135 49.2401 27.4828 51.0018 23.8713 51.0018C18.2338 51.0018 13.9176 47.0379 13.9176 40.6077C13.9176 34.1774 18.2338 30.3016 23.8713 30.3016C27.4828 30.3016 30.2135 31.8871 31.8871 34.3535L40.6957 26.1615C38.1413 22.3738 32.4157 18.3219 23.2547 18.3219C9.95372 18.3219 0 27.3067 0 40.6077C0 53.9967 9.95372 62.9815 23.2547 62.9815Z" fill="white"/>
<path d="M87.5575 61.9245V31.6229C87.5575 23.7832 83.1532 18.3219 73.4638 18.3219C66.3288 18.3219 61.3079 21.5811 58.7534 24.576V3.17109H45.1881V61.9245H58.7534V34.4416C60.3389 32.5037 62.9815 30.3016 66.9454 30.3016C71.2616 30.3016 73.9923 31.9752 73.9923 37.1723V61.9245H87.5575Z" fill="white"/>
<path d="M92.8262 40.7288C92.8262 36.3887 93.6336 32.5785 95.2485 29.2982C96.9139 26.0179 99.1596 23.4947 101.986 21.7283C104.812 19.962 107.966 19.0789 111.448 19.0789C114.426 19.0789 117.025 19.6845 119.245 20.8957C121.516 22.1068 123.257 23.6965 124.468 25.6647V19.6845H137.413V61.9245H124.468V55.9443C123.207 57.9124 121.44 59.5021 119.169 60.7133C116.949 61.9245 114.35 62.5301 111.372 62.5301C107.941 62.5301 104.812 61.6469 101.986 59.8806C99.1596 58.0638 96.9139 55.5153 95.2485 52.235C93.6336 48.9043 92.8262 45.0688 92.8262 40.7288ZM124.468 40.8045C124.468 37.5747 123.56 35.0261 121.743 33.1589C119.977 31.2916 117.807 30.358 115.233 30.358C112.659 30.358 110.464 31.2916 108.647 33.1589C106.881 34.9757 105.998 37.499 105.998 40.7288C105.998 43.9586 106.881 46.5324 108.647 48.4501C110.464 50.3173 112.659 51.2509 115.233 51.2509C117.807 51.2509 119.977 50.3173 121.743 48.4501C123.56 46.5828 124.468 44.0343 124.468 40.8045Z" fill="white"/>
<path d="M152.286 15.5912C156.602 15.5912 160.037 12.0678 160.037 7.75157C160.037 3.43535 156.602 0 152.286 0C147.97 0 144.534 3.43535 144.534 7.75157C144.534 12.0678 147.97 15.5912 152.286 15.5912ZM159.068 61.9245V19.3789H145.503V61.9245H159.068Z" fill="white"/>
<path d="M209.509 61.9245V31.7991C209.509 23.9594 205.104 18.3219 195.415 18.3219C188.28 18.3219 183.259 21.5811 180.705 24.576V19.3789H167.139V61.9245H180.705V34.4416C182.29 32.5037 184.933 30.3016 188.985 30.3016C193.213 30.3016 195.943 32.1514 195.943 37.3485V61.9245H209.509Z" fill="white"/>
<path d="M233.889 62.9815C246.132 62.9815 253.267 56.9917 253.267 48.8877C253.267 31.4467 228.515 36.2914 228.515 31.3586C228.515 29.5969 230.717 28.2756 233.889 28.2756C238.997 28.2756 243.842 30.4778 246.397 32.9442L251.594 23.9594C247.013 20.6121 240.935 18.3219 233.8 18.3219C221.997 18.3219 215.567 24.8403 215.567 32.3276C215.567 49.4163 240.319 43.9549 240.319 49.5043C240.319 51.4422 238.645 52.7635 234.593 52.7635C229.572 52.7635 222.79 49.9448 219.619 47.126L213.981 56.4631C218.473 60.427 226.313 62.9815 233.889 62.9815Z" fill="white"/>
<path d="M274.97 61.9245V31.1825H283.602V19.3789H274.97V17.2649C274.97 14.2699 277.084 12.5963 279.638 12.5963C281.576 12.5963 282.809 13.1248 283.866 14.2699L288.887 6.51837C285.98 3.52344 281.224 2.29023 276.643 2.29023C267.747 2.29023 261.404 8.28008 261.404 17.2649V19.3789H254.358V31.1825H261.404V61.9245H274.97Z" fill="white"/>
<path d="M301.011 61.9245V34.794C302.772 32.4157 307.441 30.9182 310.964 30.9182C312.374 30.9182 313.519 31.0944 314.312 31.2705V18.2338C309.203 18.2338 303.83 21.1406 301.011 24.576V19.3789H287.446V61.9245H301.011Z" fill="white"/>
</svg>
