<?xml version="1.0" encoding="UTF-8"?>
<svg width="100px" height="100px" viewBox="0 0 100 100" version="1.1" xmlns="http://www.w3.org/2000/svg" xmlns:xlink="http://www.w3.org/1999/xlink">
    <!-- Generator: sketchtool 52.6 (67491) - http://www.bohemiancoding.com/sketch -->
    <title>F2AA00D7-721C-415C-AEC8-27B0ECCEE8E3</title>
    <desc>Created with sketchtool.</desc>
    <g id="v1.3---Download-chrome" stroke="none" stroke-width="1" fill="none" fill-rule="evenodd">
        <g id="Browser-Not-Supported" transform="translate(-671.000000, -296.000000)">
            <g id="middle" transform="translate(461.000000, 150.000000)">
                <g id="Group" transform="translate(120.000000, 146.000000)">
                    <g id="chrome" transform="translate(90.000000, 0.000000)">
                        <g id="icons8-chrome">
                            <path d="M100,50 C100,77.61 77.61,100 50,100 C22.39,100 0,77.61 0,50 C0,22.39 22.39,0 50,0 C77.61,0 100,22.39 100,50 Z" id="Path" fill="#4CAF50"></path>
                            <path d="M50,0 L50,50 L70,60 L47.8925,100 C48.685,100 49.2075,100 50,100 C77.6325,100 100,77.6325 100,50 C100,22.3675 77.6325,0 50,0 Z" id="Path" fill="#FFC107"></path>
                            <path d="M100,50 C100,77.61 77.61,100 50,100 C22.39,100 0,77.61 0,50 C0,22.39 22.39,0 50,0 C77.61,0 100,22.39 100,50 Z" id="Path" fill="#4CAF50"></path>
                            <path d="M50,0 L50,50 L70,60 L47.8925,100 C48.685,100 49.2075,100 50,100 C77.6325,100 100,77.6325 100,50 C100,22.3675 77.6325,0 50,0 Z" id="Path" fill="#FFC107"></path>
                            <path d="M94.6,27.5 L50,27.5 L50,60 L42.5,57.5 L7.9,23.15 L7.85,23.15 C16.7,9.225 32.275,0 50,0 C69.5,0 86.375,11.2 94.6,27.5 Z" id="Path" fill="#F44336"></path>
                            <polygon id="Path" fill="#DD2C00" points="7.895 23.16 30.0025 60.315 42.5 57.5"></polygon>
                            <polygon id="Path" fill="#558B2F" points="47.8925 100 70.2275 59.8525 60 52.5"></polygon>
                            <polygon id="Path" fill="#F9A825" points="94.6625 27.5 50 27.5 46.0525 38.95"></polygon>
                            <path d="M72.5,50 C72.5,62.4225 62.4225,72.5 50,72.5 C37.5775,72.5 27.5,62.4225 27.5,50 C27.5,37.5775 37.5775,27.5 50,27.5 C62.4225,27.5 72.5,37.5775 72.5,50 Z" id="Path" fill="#FFFFFF"></path>
                            <path d="M67.5,50 C67.5,59.6675 59.6675,67.5 50,67.5 C40.3325,67.5 32.5,59.6675 32.5,50 C32.5,40.3325 40.3325,32.5 50,32.5 C59.6675,32.5 67.5,40.3325 67.5,50 Z" id="Path" fill="#2196F3"></path>
                        </g>
                    </g>
                </g>
            </g>
        </g>
    </g>
</svg>