<svg width="256" height="256" viewBox="0 0 256 256" fill="none" xmlns="http://www.w3.org/2000/svg">
<path d="M0 128C0 57.3076 57.3076 0 128 0V0C198.692 0 256 57.3076 256 128V128C256 198.692 198.692 256 128 256V256C57.3076 256 0 198.692 0 128V128Z" fill="#8D73FF"/>
<path fill-rule="evenodd" clip-rule="evenodd" d="M118.339 66.0645L79.9066 114.039C79.2236 114.66 78.7949 115.555 78.7949 116.551C78.7949 118.427 80.3154 119.947 82.1909 119.947L118.339 119.948L118.34 119.947H154.563V119.948C157.695 119.948 160.796 119.331 163.689 118.132C166.583 116.934 169.212 115.177 171.426 112.963C173.64 110.749 175.397 108.12 176.595 105.226C177.794 102.333 178.411 99.232 178.411 96.1003H154.564V96.0993H127.248C122.326 96.0206 118.358 92.0151 118.339 87.0786V66.0645Z" fill="white"/>
<path fill-rule="evenodd" clip-rule="evenodd" d="M82.1926 119.948C80.3171 119.948 78.7966 118.427 78.7966 116.552C78.7966 115.556 79.2254 114.66 79.9083 114.039L82.1926 111.188L118.341 66.0649V87.0791C118.342 87.395 118.36 87.7071 118.392 88.0145C118.871 92.5121 122.642 96.0261 127.249 96.0998H154.565V96.1008H178.412C178.412 99.2325 177.796 102.334 176.597 105.227C175.918 106.867 175.059 108.422 174.04 109.864C173.26 110.967 172.387 112.004 171.428 112.963C170.468 113.923 169.431 114.796 168.328 115.576C166.886 116.595 165.331 117.454 163.691 118.133C160.866 119.303 157.843 119.919 154.787 119.947C154.713 119.948 154.639 119.948 154.565 119.948V119.947H118.341L118.341 119.948L82.1926 119.948ZM128.705 133.711L128.705 133.712L82.1926 133.711C72.7157 133.711 65.0332 126.029 65.0332 116.552C65.0332 112.062 66.7715 107.963 69.5816 104.916L132.105 26.8711V82.3363H168.329V82.3374H192.176V96.1008C192.176 101.04 191.203 105.931 189.313 110.494C187.423 115.057 184.652 119.203 181.16 122.696C177.667 126.188 173.521 128.959 168.958 130.849C164.395 132.739 159.504 133.712 154.565 133.712H140.802V133.711H128.705Z" fill="black"/>
<path fill-rule="evenodd" clip-rule="evenodd" d="M138.526 188.078L176.959 140.104C177.642 139.483 178.07 138.587 178.07 137.591C178.07 135.716 176.55 134.195 174.674 134.195L138.526 134.195L138.526 134.196H102.302V134.195C99.1702 134.195 96.0692 134.812 93.1759 136.01C90.2826 137.209 87.6537 138.965 85.4392 141.18C83.2248 143.394 81.4682 146.023 80.2698 148.916C79.0713 151.81 78.4545 154.911 78.4545 158.042H102.302V158.043H129.618C134.54 158.122 138.508 162.127 138.526 167.064V188.078Z" fill="white"/>
<path fill-rule="evenodd" clip-rule="evenodd" d="M174.675 134.195C176.55 134.195 178.071 135.715 178.071 137.591C178.071 138.587 177.642 139.482 176.959 140.104L174.675 142.955L138.526 188.078V167.063C138.525 166.748 138.508 166.436 138.475 166.128C137.996 161.63 134.225 158.116 129.618 158.043H102.302V158.042H78.4547C78.4547 154.91 79.0716 151.809 80.27 148.916C80.9493 147.276 81.8078 145.721 82.8274 144.278C83.6067 143.176 84.4801 142.138 85.4395 141.179C86.3988 140.22 87.436 139.346 88.5387 138.567C89.9814 137.547 91.5363 136.689 93.1761 136.01C96.001 134.84 99.0239 134.224 102.08 134.195C102.154 134.195 102.228 134.194 102.302 134.194V134.195H138.526L138.526 134.195L174.675 134.195ZM128.162 120.432L128.162 120.431L174.675 120.431C184.151 120.431 191.834 128.114 191.834 137.591C191.834 142.08 190.096 146.18 187.286 149.227L124.763 227.271V171.806H88.5384V171.805H64.6913L64.6913 158.042C64.6913 153.103 65.6641 148.212 67.5542 143.649C69.4444 139.086 72.2148 134.939 75.7072 131.447C79.1997 127.954 83.3459 125.184 87.9091 123.294C92.4723 121.404 97.363 120.431 102.302 120.431H116.066V120.432H128.162Z" fill="black"/>
</svg>
