<svg width="1024" height="1024" viewBox="0 0 1024 1024" fill="none" xmlns="http://www.w3.org/2000/svg">
<path fill-rule="evenodd" clip-rule="evenodd" d="M357.012 0H666.988C769.792 0 821.191 0 876.521 17.4933C936.932 39.4809 984.519 87.0684 1006.51 147.479C1024 202.809 1024 254.208 1024 357.006V666.988C1024 769.786 1024 821.185 1006.51 876.521C984.519 936.926 936.932 984.513 876.521 1006.5C821.191 1024 769.792 1024 666.988 1024H357.012C254.214 1024 202.815 1024 147.484 1006.5C87.0741 984.513 39.4866 936.926 17.499 876.521C0 821.185 0 769.786 0 666.988V357.006C0 254.208 0 202.809 17.499 147.479C39.4866 87.0684 87.0741 39.4809 147.484 17.4933C202.815 0 254.214 0 357.012 0Z" fill="#393386"/>
<path fill-rule="evenodd" clip-rule="evenodd" d="M451.852 152L228.461 430.849C224.492 434.46 222 439.667 222 445.455C222 456.357 230.838 465.195 241.739 465.195C249.265 465.195 255.808 460.983 259.138 454.788C255.808 460.983 249.266 465.196 241.739 465.196H451.852V326.585H451.854V465.191H662.404V465.197C680.607 465.197 698.631 461.611 715.449 454.645C732.266 447.679 747.547 437.469 760.418 424.598C773.289 411.726 783.5 396.446 790.466 379.629C797.432 362.811 801.017 344.787 801.017 326.584H662.405V326.578H503.631C475.022 326.12 451.958 302.838 451.852 274.145V152Z" fill="#F89C35"/>
<path fill-rule="evenodd" clip-rule="evenodd" d="M571.171 872L794.562 593.151C798.532 589.54 801.023 584.333 801.023 578.545C801.023 567.643 792.186 558.805 781.284 558.805C773.758 558.805 767.216 563.017 763.886 569.212C767.216 563.017 773.758 558.804 781.284 558.804H571.171V872ZM519.096 697.422H360.618V697.416H222.006C222.006 679.213 225.592 661.189 232.558 644.371C239.524 627.554 249.734 612.274 262.605 599.402C275.477 586.531 290.757 576.321 307.575 569.355C324.392 562.389 342.417 558.803 360.62 558.803V558.809H571.17V697.422H571.169V750.052C571.166 721.172 547.905 697.726 519.096 697.422Z" fill="#4285F4"/>
</svg>
