<svg width="691" height="128" viewBox="0 0 691 128" fill="none" xmlns="http://www.w3.org/2000/svg">
<path d="M0 64C0 28.6538 28.6538 0 64 0V0C99.3462 0 128 28.6538 128 64V64C128 99.3462 99.3462 128 64 128V128C28.6538 128 0 99.3462 0 64V64Z" fill="#8D73FF"/>
<path fill-rule="evenodd" clip-rule="evenodd" d="M59.1707 33.0312L39.9543 57.0183C39.6128 57.3289 39.3984 57.7768 39.3984 58.2747C39.3984 59.2125 40.1587 59.9727 41.0964 59.9727L59.1707 59.9728L59.1708 59.9724H77.2826V59.9729C78.8485 59.9729 80.399 59.6645 81.8456 59.0653C83.2923 58.466 84.6067 57.5877 85.714 56.4805C86.8212 55.3733 87.6995 54.0589 88.2987 52.6122C88.8979 51.1655 89.2063 49.615 89.2063 48.0492H77.2828V48.0487H63.6248C61.1638 48.0093 59.1798 46.0066 59.1707 43.5383V33.0312Z" fill="white"/>
<path fill-rule="evenodd" clip-rule="evenodd" d="M41.0953 59.974C40.1576 59.974 39.3973 59.2137 39.3973 58.276C39.3973 57.778 39.6117 57.3301 39.9532 57.0195L41.0953 55.5938L59.1696 33.0325V43.5396C59.1702 43.6975 59.1788 43.8535 59.1952 44.0073C59.4346 46.2561 61.3201 48.013 63.6237 48.0499H77.2817V48.0504H89.2053C89.2053 49.6163 88.8968 51.1668 88.2976 52.6134C87.958 53.4333 87.5287 54.2108 87.0189 54.9321C86.6293 55.4835 86.1926 56.0021 85.7129 56.4818C85.2332 56.9614 84.7146 57.3981 84.1633 57.7878C83.4419 58.2976 82.6645 58.7269 81.8446 59.0665C80.4321 59.6515 78.9207 59.9594 77.3926 59.9736C77.3556 59.974 77.3186 59.9741 77.2815 59.9741V59.9736H59.1697L59.1696 59.974L41.0953 59.974ZM64.3517 66.8553L64.3516 66.8558L41.0953 66.8557C36.3569 66.8557 32.5156 63.0144 32.5156 58.276C32.5156 56.0311 33.3848 53.9815 34.7898 52.4579L66.0513 13.4355V41.1682H84.1634V41.1687H96.087V48.0504C96.087 50.52 95.6006 52.9654 94.6555 55.2469C93.7104 57.5285 92.3252 59.6016 90.579 61.3479C88.8328 63.0941 86.7597 64.4793 84.4781 65.4244C82.1965 66.3694 79.7511 66.8559 77.2815 66.8559H70.3998V66.8553H64.3517Z" fill="black"/>
<path fill-rule="evenodd" clip-rule="evenodd" d="M69.2649 94.0381L88.4813 70.0511C88.8228 69.7405 89.0371 69.2926 89.0371 68.7946C89.0371 67.8568 88.2769 67.0966 87.3391 67.0966L69.2649 67.0965L69.2647 67.0969H51.1529V67.0964C49.5871 67.0964 48.0366 67.4048 46.5899 68.0041C45.1433 68.6033 43.8288 69.4816 42.7216 70.5888C41.6144 71.696 40.7361 73.0105 40.1368 74.4571C39.5376 75.9038 39.2292 77.4543 39.2292 79.0201H51.1528V79.0207H64.8108C67.2718 79.06 69.2558 81.0628 69.2649 83.531V94.0381Z" fill="white"/>
<path fill-rule="evenodd" clip-rule="evenodd" d="M87.3402 67.0983C88.278 67.0983 89.0382 67.8585 89.0382 68.7963C89.0382 69.2943 88.8238 69.7422 88.4824 70.0528L87.3402 71.4785L69.266 94.0398V83.5327C69.2654 83.3748 69.2567 83.2187 69.2403 83.065C69.001 80.8162 67.1154 79.0592 64.8119 79.0224H51.1539V79.0219H39.2303C39.2303 77.456 39.5387 75.9055 40.1379 74.4588C40.4776 73.6389 40.9068 72.8615 41.4166 72.1401C41.8063 71.5888 42.243 71.0702 42.7227 70.5905C43.2023 70.1108 43.7209 69.6741 44.2723 69.2845C44.9936 68.7747 45.7711 68.3454 46.591 68.0058C48.0034 67.4207 49.5149 67.1129 51.0429 67.0987C51.08 67.0983 51.117 67.0981 51.154 67.0981V67.0987H69.2658L69.266 67.0982L87.3402 67.0983ZM64.0838 60.2169L64.084 60.2165L87.3402 60.2166C92.0787 60.2166 95.9199 64.0579 95.9199 68.7963C95.9199 71.0412 95.0508 73.0907 93.6457 74.6143L62.3842 113.637V85.9041H44.2721V85.9036H32.3486L32.3486 79.0219C32.3486 76.5523 32.835 74.1069 33.78 71.8253C34.7251 69.5437 36.1103 67.4706 37.8565 65.7244C39.6028 63.9782 41.6759 62.593 43.9575 61.6479C46.2391 60.7028 48.6844 60.2164 51.154 60.2164H58.0357V60.2169H64.0838Z" fill="black"/>
<path d="M180.895 92.2403C190.056 92.2403 195.782 88.1003 198.336 84.4006L189.528 76.1206C187.854 78.4989 185.123 80.2606 181.512 80.2606C175.874 80.2606 171.558 76.2967 171.558 69.8664C171.558 63.4362 175.874 59.5604 181.512 59.5604C185.123 59.5604 187.854 61.1459 189.528 63.6123L198.336 55.4203C195.782 51.6326 190.056 47.5807 180.895 47.5807C167.594 47.5807 157.641 56.5655 157.641 69.8664C157.641 83.2555 167.594 92.2403 180.895 92.2403Z" fill="black"/>
<path d="M245.198 91.1833V60.8817C245.198 53.042 240.794 47.5807 231.104 47.5807C223.969 47.5807 218.948 50.8399 216.394 53.8348V32.4299H202.829V91.1833H216.394V63.7004C217.98 61.7625 220.622 59.5604 224.586 59.5604C228.902 59.5604 231.633 61.234 231.633 66.4311V91.1833H245.198Z" fill="black"/>
<path d="M250.467 69.9876C250.467 65.6475 251.274 61.8373 252.889 58.557C254.555 55.2767 256.8 52.7534 259.626 50.9871C262.452 49.2208 265.607 48.3377 269.089 48.3377C272.066 48.3377 274.665 48.9433 276.886 50.1544C279.157 51.3656 280.898 52.9553 282.109 54.9235V48.9433H295.053V91.1833H282.109V85.203C280.847 87.1712 279.081 88.7609 276.81 89.9721C274.59 91.1833 271.991 91.7889 269.013 91.7889C265.581 91.7889 262.452 90.9057 259.626 89.1394C256.8 87.3226 254.555 84.7741 252.889 81.4938C251.274 78.163 250.467 74.3276 250.467 69.9876ZM282.109 70.0633C282.109 66.8334 281.201 64.2849 279.384 62.4177C277.617 60.5504 275.447 59.6168 272.874 59.6168C270.3 59.6168 268.105 60.5504 266.288 62.4177C264.522 64.2344 263.638 66.7577 263.638 69.9876C263.638 73.2174 264.522 75.7911 266.288 77.7089C268.105 79.5761 270.3 80.5097 272.874 80.5097C275.447 80.5097 277.617 79.5761 279.384 77.7089C281.201 75.8416 282.109 73.2931 282.109 70.0633Z" fill="black"/>
<path d="M309.926 44.85C314.243 44.85 317.678 41.3266 317.678 37.0104C317.678 32.6941 314.243 29.2588 309.926 29.2588C305.61 29.2588 302.175 32.6941 302.175 37.0104C302.175 41.3266 305.61 44.85 309.926 44.85ZM316.709 91.1833V48.6377H303.144V91.1833H316.709Z" fill="black"/>
<path d="M367.149 91.1833V61.0578C367.149 53.2182 362.745 47.5807 353.055 47.5807C345.921 47.5807 340.9 50.8399 338.345 53.8348V48.6377H324.78V91.1833H338.345V63.7004C339.931 61.7625 342.573 59.5604 346.625 59.5604C350.853 59.5604 353.584 61.4102 353.584 66.6073V91.1833H367.149Z" fill="black"/>
<path d="M391.529 92.2403C403.773 92.2403 410.908 86.2504 410.908 78.1465C410.908 60.7055 386.156 65.5502 386.156 60.6174C386.156 58.8557 388.358 57.5344 391.529 57.5344C396.638 57.5344 401.483 59.7366 404.037 62.203L409.234 53.2182C404.654 49.8709 398.576 47.5807 391.441 47.5807C379.638 47.5807 373.207 54.099 373.207 61.5864C373.207 78.675 397.959 73.2137 397.959 78.7631C397.959 80.701 396.286 82.0223 392.234 82.0223C387.213 82.0223 380.43 79.2036 377.259 76.3848L371.622 85.7219C376.114 89.6858 383.954 92.2403 391.529 92.2403Z" fill="black"/>
<path d="M432.61 91.1833V60.4412H441.243V48.6377H432.61V46.5236C432.61 43.5287 434.724 41.8551 437.279 41.8551C439.217 41.8551 440.45 42.3836 441.507 43.5287L446.528 35.7772C443.621 32.7822 438.864 31.549 434.284 31.549C425.387 31.549 419.045 37.5389 419.045 46.5236V48.6377H411.998V60.4412H419.045V91.1833H432.61Z" fill="black"/>
<path d="M458.651 91.1833V64.0528C460.413 61.6744 465.082 60.177 468.605 60.177C470.014 60.177 471.16 60.3532 471.952 60.5293V47.4926C466.843 47.4926 461.47 50.3994 458.651 53.8348V48.6377H445.086V91.1833H458.651Z" fill="black"/>
<path fill-rule="evenodd" clip-rule="evenodd" d="M535 0C514.013 0 497 17.0132 497 38C497 58.9868 514.013 76 535 76H653C673.987 76 691 58.9868 691 38C691 17.0132 673.987 0 653 0H535ZM525.5 34.1525C524.487 36.2108 523.98 38.6017 523.98 41.325C523.98 44.0483 524.487 46.455 525.5 48.545C526.545 50.6033 527.954 52.2025 529.728 53.3425C531.501 54.4508 533.48 55.005 535.665 55.005C537.533 55.005 539.164 54.625 540.557 53.865C541.983 53.105 543.075 52.0917 543.835 50.825V54.625H551.958V19.475H543.835V31.7775C543.012 30.5425 541.872 29.5608 540.415 28.8325C538.99 28.1042 537.407 27.74 535.665 27.74C533.48 27.74 531.501 28.2942 529.728 29.4025C527.954 30.5108 526.545 32.0942 525.5 34.1525ZM542.125 36.575C543.265 37.7467 543.835 39.3458 543.835 41.3725C543.835 43.3992 543.265 44.9983 542.125 46.17C541.017 47.3417 539.655 47.9275 538.04 47.9275C536.425 47.9275 535.047 47.3417 533.908 46.17C532.799 44.9667 532.245 43.3517 532.245 41.325C532.245 39.2983 532.799 37.715 533.908 36.575C535.047 35.4033 536.425 34.8175 538.04 34.8175C539.655 34.8175 541.017 35.4033 542.125 36.575ZM582.676 43.32C582.771 42.4967 582.819 41.705 582.819 40.945C582.819 38.285 582.249 35.9575 581.109 33.9625C580 31.9675 578.449 30.4317 576.454 29.355C574.459 28.2783 572.179 27.74 569.614 27.74C566.985 27.74 564.658 28.2942 562.631 29.4025C560.605 30.5108 559.021 32.0942 557.881 34.1525C556.773 36.2108 556.219 38.6175 556.219 41.3725C556.219 44.1275 556.789 46.5342 557.929 48.5925C559.069 50.6508 560.652 52.2342 562.679 53.3425C564.705 54.4508 567.017 55.005 569.614 55.005C571.767 55.005 573.715 54.6092 575.456 53.8175C577.198 53.0258 578.639 51.9333 579.779 50.54C580.95 49.1467 581.758 47.5792 582.201 45.8375H573.556C572.765 47.5475 571.355 48.4025 569.329 48.4025C567.967 48.4025 566.811 47.975 565.861 47.12C564.943 46.2333 564.42 44.9667 564.294 43.32H582.676ZM573.081 35.4825C574.031 36.3058 574.506 37.4142 574.506 38.8075H564.341C564.563 37.3508 565.133 36.2267 566.051 35.435C567.001 34.6433 568.157 34.2475 569.519 34.2475C570.944 34.2475 572.131 34.6592 573.081 35.4825ZM628.761 30.8275C626.83 28.8325 624.217 27.835 620.924 27.835C619.055 27.835 617.33 28.2942 615.746 29.2125C614.163 30.1308 612.912 31.3183 611.994 32.775C611.107 31.1917 609.872 29.9725 608.289 29.1175C606.737 28.2625 604.964 27.835 602.969 27.835C601.29 27.835 599.786 28.1675 598.456 28.8325C597.126 29.4658 596.05 30.3367 595.226 31.445V28.12H587.104V54.625H595.226V40.2325C595.226 38.5225 595.67 37.2083 596.556 36.29C597.475 35.34 598.725 34.865 600.309 34.865C601.892 34.865 603.127 35.34 604.014 36.29C604.932 37.2083 605.391 38.5225 605.391 40.2325V54.625H613.466V40.2325C613.466 38.5225 613.91 37.2083 614.796 36.29C615.715 35.34 616.965 34.865 618.549 34.865C620.132 34.865 621.367 35.34 622.254 36.29C623.172 37.2083 623.631 38.5225 623.631 40.2325V54.625H631.706V39.14C631.706 35.5933 630.725 32.8225 628.761 30.8275ZM642.422 53.3425C644.512 54.4508 646.855 55.005 649.452 55.005C652.049 55.005 654.392 54.4508 656.482 53.3425C658.604 52.2342 660.266 50.6508 661.469 48.5925C662.704 46.5025 663.322 44.0958 663.322 41.3725C663.322 38.6492 662.72 36.2583 661.517 34.2C660.314 32.11 658.667 30.5108 656.577 29.4025C654.487 28.2942 652.144 27.74 649.547 27.74C646.95 27.74 644.607 28.2942 642.517 29.4025C640.427 30.5108 638.78 32.11 637.577 34.2C636.374 36.2583 635.772 38.6492 635.772 41.3725C635.772 44.1275 636.358 46.5342 637.529 48.5925C638.733 50.6508 640.364 52.2342 642.422 53.3425ZM653.394 46.265C652.318 47.405 651.004 47.975 649.452 47.975C647.9 47.975 646.602 47.405 645.557 46.265C644.544 45.125 644.037 43.4942 644.037 41.3725C644.037 39.2192 644.559 37.5883 645.604 36.48C646.65 35.34 647.964 34.77 649.547 34.77C651.099 34.77 652.397 35.34 653.442 36.48C654.519 37.62 655.057 39.2508 655.057 41.3725C655.057 43.4942 654.503 45.125 653.394 46.265Z" fill="black"/>
</svg>
