<svg width="16" height="16" viewBox="0 0 16 16" fill="none" xmlns="http://www.w3.org/2000/svg">
<path fill-rule="evenodd" clip-rule="evenodd" d="M5.57831 0H10.4217C12.028 0 12.8311 0 13.6956 0.273333C14.6396 0.616889 15.3831 1.36044 15.7267 2.30436C16 3.16889 16 3.972 16 5.57822V10.4217C16 12.0279 16 12.831 15.7267 13.6956C15.3831 14.6395 14.6396 15.383 13.6956 15.7266C12.8311 16 12.028 16 10.4217 16H5.57831C3.97209 16 3.16898 16 2.30444 15.7266C1.36053 15.383 0.616978 14.6395 0.273422 13.6956C0 12.831 0 12.0279 0 10.4217V5.57822C0 3.972 0 3.16889 0.273422 2.30436C0.616978 1.36044 1.36053 0.616889 2.30444 0.273333C3.16898 0 3.97209 0 5.57831 0ZM7.06019 2.375L3.56971 6.73202C3.50769 6.78843 3.46875 6.86979 3.46875 6.96024C3.46875 7.13058 3.60684 7.26867 3.77718 7.26867C3.85218 7.26867 3.92094 7.2419 3.97441 7.19738C3.92094 7.2419 3.85219 7.26868 3.77718 7.26868H7.06019V5.1029H7.06021V7.26861H10.3501V7.2687C10.6345 7.2687 10.9161 7.21268 11.1789 7.10384C11.4417 6.99499 11.6804 6.83546 11.8815 6.63434C12.0826 6.43323 12.2422 6.19447 12.351 5.9317C12.4599 5.66893 12.5159 5.38729 12.5159 5.10287H10.3501V5.10277H7.86923C7.42222 5.09562 7.06185 4.73185 7.06019 4.28351V2.375ZM12.415 9.26798L8.92449 13.625V8.73132H12.2075C12.1345 8.73132 12.0674 8.75672 12.0145 8.79915C12.0674 8.75672 12.1345 8.73133 12.2075 8.73133C12.3778 8.73133 12.5159 8.86942 12.5159 9.03976C12.5159 9.13021 12.477 9.21157 12.415 9.26798ZM5.6346 10.8972H8.11082C8.56096 10.902 8.92441 11.2683 8.92445 11.7196V10.8972H8.92447V8.73139H5.63462V8.7313C5.3502 8.7313 5.06856 8.78732 4.80579 8.89616C4.54302 9.00501 4.30426 9.16454 4.10315 9.36566C3.90203 9.56677 3.7425 9.80553 3.63365 10.0683C3.52481 10.3311 3.46879 10.6127 3.46879 10.8971H5.6346V10.8972Z" fill="white"/>
</svg>
