<svg width="852" height="128" viewBox="0 0 852 128" fill="none" xmlns="http://www.w3.org/2000/svg">
<path d="M201.652 103C191.135 103 182.914 100.164 176.988 94.4916C171.062 88.8191 168.099 81.1032 168.099 71.3432C168.099 64.9202 169.517 59.2476 172.356 54.3261C175.277 49.4044 179.325 45.6089 184.5 42.9396C189.758 40.2702 195.809 38.9355 202.653 38.9355C207.244 38.9355 211.668 39.6029 215.925 40.9376C220.044 42.2045 223.413 43.8848 226.028 45.9785C226.278 46.179 226.366 46.5185 226.253 46.8188L221.175 60.3536C220.993 60.8366 220.393 61.0021 219.974 60.7016C218.054 59.3246 215.786 58.2006 213.17 57.3291C210.249 56.2446 207.495 55.7026 204.907 55.7026C200.4 55.7026 196.936 56.9536 194.516 59.4562C192.179 61.9587 191.01 65.7541 191.01 70.8426C191.01 75.9311 192.179 79.7681 194.516 82.3541C196.936 84.9401 200.4 86.2332 204.907 86.2332C207.495 86.2332 210.249 85.7326 213.17 84.7316C215.782 83.7891 218.047 82.5942 219.965 81.1472C220.384 80.8312 221 80.9941 221.182 81.4856L226.253 95.1111C226.365 95.4146 226.274 95.7567 226.02 95.9562C223.247 98.1312 219.756 99.8536 215.549 101.123C211.209 102.375 206.577 103 201.652 103Z" fill="#393386"/>
<path d="M271.909 40.1923C278.902 40.1923 284.438 42.5583 288.517 47.2904C292.669 51.9495 294.745 58.283 294.745 66.291V101.242C294.745 101.661 294.406 102 293.987 102H274.088C273.67 102 273.329 101.661 273.329 101.242V69.1305C273.329 65.636 272.419 62.906 270.598 60.9405C268.777 58.902 266.337 57.883 263.277 57.883C260.072 57.883 257.559 58.902 255.738 60.9405C253.917 62.906 253.006 65.636 253.006 69.1305V101.242C253.006 101.661 252.666 102 252.248 102H232.349C231.931 102 231.59 101.661 231.59 101.242V21.9498C231.59 21.5309 231.931 21.1914 232.349 21.1914H252.248C252.666 21.1914 253.006 21.5309 253.006 21.9498V47.0231C253.006 47.7687 254.02 48.1008 254.513 47.5426C256.186 45.6546 258.234 44.078 260.655 42.8131C263.933 41.0659 267.684 40.1923 271.909 40.1923Z" fill="#393386"/>
<path d="M299.722 71.3114C299.722 64.9774 300.852 59.4449 303.11 54.7129C305.441 49.9808 308.573 46.3407 312.506 43.7927C316.513 41.2447 320.956 39.9707 325.837 39.9707C330.062 39.9707 333.704 40.8079 336.763 42.4823C338.954 43.682 340.791 45.1806 342.273 46.9781C342.765 47.5741 343.865 47.2462 343.865 46.4741V41.4934C343.865 41.0746 344.204 40.7351 344.624 40.7351H364.522C364.941 40.7351 365.281 41.0746 365.281 41.4934V101.238C365.281 101.657 364.941 101.997 364.522 101.997H344.624C344.204 101.997 343.865 101.657 343.865 101.238V96.2579C343.865 95.4859 342.762 95.1559 342.267 95.7499C340.771 97.5494 338.899 99.0494 336.654 100.25C333.595 101.924 329.989 102.761 325.837 102.761C320.956 102.761 316.513 101.487 312.506 98.9394C308.573 96.3914 305.441 92.7514 303.11 88.0189C300.852 83.2139 299.722 77.6449 299.722 71.3114ZM343.865 71.3114C343.865 67.3799 342.773 64.2859 340.587 62.0294C338.475 59.7724 335.853 58.6439 332.72 58.6439C329.515 58.6439 326.857 59.7724 324.744 62.0294C322.632 64.2134 321.575 67.3074 321.575 71.3114C321.575 75.2424 322.632 78.3729 324.744 80.7024C326.857 82.9594 329.515 84.0879 332.72 84.0879C335.853 84.0879 338.475 82.9594 340.587 80.7024C342.773 78.4459 343.865 75.3154 343.865 71.3114Z" fill="#393386"/>
<path d="M385.024 35.0585C381.237 35.0585 378.177 34.0393 375.846 32.0009C373.588 29.8897 372.459 27.2689 372.459 24.1385C372.459 20.9352 373.588 18.278 375.846 16.1668C378.177 14.0556 381.237 13 385.024 13C388.739 13 391.726 14.0556 393.984 16.1668C396.315 18.278 397.481 20.9352 397.481 24.1385C397.481 27.2689 396.315 29.8897 393.984 32.0009C391.726 34.0393 388.739 35.0585 385.024 35.0585ZM394.864 40.7369C395.283 40.7369 395.623 41.0765 395.623 41.4953V101.241C395.623 101.659 395.283 101.998 394.864 101.998H374.966C374.546 101.998 374.207 101.659 374.207 101.241V41.4953C374.207 41.0765 374.546 40.7369 374.966 40.7369H394.864Z" fill="#393386"/>
<path d="M444.642 40.1914C451.708 40.1914 457.317 42.5574 461.469 47.2895C465.621 51.9489 467.697 58.2824 467.697 66.2904V101.241C467.697 101.659 467.357 101.999 466.938 101.999H447.04C446.621 101.999 446.281 101.659 446.281 101.241V69.1294C446.281 65.6354 445.371 62.9054 443.55 60.9394C441.729 58.9009 439.288 57.8819 436.229 57.8819C433.024 57.8819 430.511 58.9009 428.69 60.9394C426.868 62.9054 425.958 65.6354 425.958 69.1294V101.241C425.958 101.659 425.618 101.999 425.2 101.999H405.301C404.882 101.999 404.542 101.659 404.542 101.241V41.4958C404.542 41.0769 404.882 40.7374 405.301 40.7374H425.2C425.618 40.7374 425.958 41.0769 425.958 41.4958V47.0222C425.958 47.7678 426.971 48.0999 427.465 47.5417C429.138 45.6536 431.186 44.0771 433.607 42.8122C436.812 41.065 440.49 40.1914 444.642 40.1914Z" fill="#393386"/>
<path d="M500.779 102.981C494.963 102.981 489.595 102.366 484.678 101.138C479.993 99.9674 476.014 98.2764 472.743 96.0639C472.458 95.8714 472.347 95.5084 472.466 95.1859L477.465 81.7549C477.634 81.2999 478.182 81.1189 478.595 81.3739C481.676 83.2714 485.138 84.8224 488.98 86.0274C493.16 87.2559 497.175 87.8699 501.029 87.8699C503.405 87.8699 505.246 87.5424 506.557 86.8874C507.868 86.1499 508.523 85.1674 508.523 83.9389C508.523 82.8739 508.033 82.0549 507.053 81.4819C506.147 80.9084 504.266 80.2944 501.394 79.6389L491.685 77.4279C485.539 76.0354 481.113 73.9879 478.409 71.2849C475.705 68.5824 474.353 64.7329 474.353 59.7374C474.353 55.8879 475.5 52.4889 477.795 49.5405C480.089 46.5102 483.285 44.1761 487.382 42.5381C491.562 40.9001 496.274 40.0811 501.519 40.0811C505.862 40.0811 510.164 40.7363 514.427 42.0467C518.554 43.2148 522.316 44.8642 525.703 46.9949C526.009 47.1871 526.129 47.5704 525.999 47.9058L520.906 60.7344C520.731 61.1744 520.2 61.3484 519.795 61.1049C516.768 59.2899 513.711 57.8924 510.615 56.9114C507.338 55.7649 504.221 55.1919 501.274 55.1919C498.896 55.1919 497.053 55.5604 495.741 56.2974C494.43 57.0344 493.775 58.0994 493.775 59.4914C493.775 60.3104 494.184 61.0064 495.004 61.5799C495.823 62.0714 497.257 62.5629 499.306 63.0539L509.509 65.3884C515.903 66.7804 520.53 68.9509 523.397 71.8994C526.269 74.7659 527.7 78.6969 527.7 83.6929C527.7 89.6719 525.283 94.3814 520.45 97.8214C515.698 101.261 509.139 102.981 500.779 102.981Z" fill="#393386"/>
<path d="M569.359 57.7771C569.359 58.1956 569.024 58.5351 568.604 58.5351H560.504C560.084 58.5351 559.743 58.8746 559.743 59.2936V101.239C559.743 101.658 559.408 101.997 558.988 101.997H538.981C538.561 101.997 538.221 101.658 538.221 101.239V59.2936C538.221 58.8746 537.881 58.5351 537.46 58.5351H532.312C531.897 58.5351 531.557 58.1956 531.557 57.7771V41.494C531.557 41.0751 531.897 40.7356 532.312 40.7356H537.676C537.976 40.7356 538.221 40.4912 538.221 40.1896C538.221 32.3272 540.517 26.3211 545.105 22.1715C549.768 17.9491 556.432 15.8379 565.102 15.8379C566.452 15.8379 567.568 15.8597 568.444 15.9034C568.839 15.9232 569.144 16.2531 569.144 16.6493V33.3245C569.144 33.7807 568.744 34.1357 568.289 34.1108C567.843 34.0865 567.328 34.0744 566.738 34.0744C564.406 34.0744 562.695 34.6204 561.605 35.7124C560.639 36.6103 560.044 38.0166 559.819 39.9315C559.769 40.3659 560.114 40.7356 560.554 40.7356H568.604C569.024 40.7356 569.359 41.0751 569.359 41.494V57.7771Z" fill="#393386"/>
<path d="M597.406 49.1051C597.406 49.8498 598.396 50.1686 598.866 49.5902C600.963 47.0036 603.389 44.8893 606.146 43.2474C609.348 41.3407 612.775 40.3257 616.422 40.2026C616.842 40.1885 617.182 40.5293 617.182 40.9482V62.2546C617.182 62.6731 616.842 63.0126 616.422 63.0126H611.174C606.511 63.0126 603.049 63.9226 600.793 65.7426C598.536 67.5626 597.406 70.7296 597.406 75.2431V101.239C597.406 101.658 597.065 101.998 596.645 101.998H576.748C576.328 101.998 575.988 101.658 575.988 101.239V41.4942C575.988 41.0753 576.328 40.7358 576.748 40.7358H596.645C597.065 40.7358 597.406 41.0753 597.406 41.4942V49.1051Z" fill="#393386"/>
<path fill-rule="evenodd" clip-rule="evenodd" d="M44.6527 0H83.4225C96.2805 0 102.709 0 109.629 2.18667C117.185 4.93511 123.137 10.8836 125.887 18.4349C128.075 25.3511 128.075 31.776 128.075 44.6258V83.3735C128.075 96.2235 128.075 102.648 125.887 109.565C123.137 117.116 117.185 123.064 109.629 125.812C102.709 128 96.2805 128 83.4225 128H44.6527C31.7954 128 25.3667 128 18.4464 125.812C10.8906 123.064 4.93872 117.116 2.18866 109.565C0 102.648 0 96.2235 0 83.3735V44.6258C0 31.776 0 25.3511 2.18866 18.4349C4.93872 10.8836 10.8906 4.93511 18.4464 2.18667C25.3667 0 31.7954 0 44.6527 0Z" fill="#393386"/>
<path fill-rule="evenodd" clip-rule="evenodd" d="M56.5147 19L28.5745 53.856C28.078 54.3075 27.7663 54.9585 27.7663 55.682C27.7663 57.0445 28.8716 58.1495 30.2351 58.1495C31.1764 58.1495 31.9947 57.623 32.4112 56.8485C31.9948 57.623 31.1765 58.1495 30.2351 58.1495H56.5147V40.8232V58.149H82.8491V58.1495C85.126 58.1495 87.3803 57.7015 89.4835 56.8305C91.5873 55.96 93.4984 54.6835 95.1083 53.0745C96.7178 51.466 97.995 49.5557 98.866 47.4535C99.7375 45.3514 100.186 43.0983 100.186 40.8229H82.8491V40.8222H62.991C59.4124 40.765 56.5282 37.8548 56.5147 34.2681V19Z" fill="#F89C35"/>
<path fill-rule="evenodd" clip-rule="evenodd" d="M71.4379 109L99.3783 74.1441C99.8746 73.6926 100.186 73.0416 100.186 72.3181C100.186 70.9556 99.0811 69.8506 97.7178 69.8506C96.7763 69.8506 95.9578 70.3771 95.5416 71.1516C95.9578 70.3771 96.7763 69.8506 97.7178 69.8506H71.4379V109ZM64.9251 87.1781H45.1035V87.1771H27.7668C27.7668 84.9016 28.2153 82.6486 29.0866 80.5466C29.9578 78.4446 31.2348 76.5341 32.8447 74.9256C34.4546 73.3166 36.3658 72.0401 38.4692 71.1696C40.5726 70.2986 42.827 69.8506 45.1037 69.8506V69.8511H71.4379V87.1781V93.7566C71.4374 90.1466 68.5282 87.2156 64.9251 87.1781Z" fill="#4285F4"/>
<path fill-rule="evenodd" clip-rule="evenodd" d="M687.403 0C665.3 0 647.38 17.9086 647.38 40C647.38 62.0915 665.3 80 687.403 80H811.686C833.789 80 851.71 62.0915 851.71 40C851.71 17.9086 833.789 0 811.686 0H687.403ZM677.398 35.95C676.332 38.1167 675.797 40.6333 675.797 43.5C675.797 46.3667 676.332 48.9 677.398 51.1C678.498 53.2665 679.984 54.95 681.85 56.15C683.716 57.3165 685.803 57.9 688.104 57.9C690.07 57.9 691.791 57.5 693.257 56.7C694.758 55.9 695.908 54.8335 696.709 53.5V57.5H705.264V20.5H696.709V33.45C695.843 32.15 694.643 31.1167 693.107 30.35C691.606 29.5834 689.94 29.2 688.104 29.2C685.803 29.2 683.716 29.7834 681.85 30.95C679.984 32.1167 678.498 33.7834 677.398 35.95ZM694.908 38.5C696.109 39.7334 696.709 41.4166 696.709 43.55C696.709 45.6833 696.109 47.3666 694.908 48.6C693.742 49.8333 692.306 50.45 690.605 50.45C688.904 50.45 687.453 49.8333 686.253 48.6C685.087 47.3333 684.502 45.6333 684.502 43.5C684.502 41.3667 685.087 39.7 686.253 38.5C687.453 37.2666 688.904 36.65 690.605 36.65C692.306 36.65 693.742 37.2666 694.908 38.5ZM737.618 45.6C737.718 44.7333 737.768 43.9 737.768 43.1C737.768 40.3 737.168 37.85 735.967 35.75C734.801 33.65 733.165 32.0333 731.064 30.9C728.963 29.7666 726.561 29.2 723.86 29.2C721.093 29.2 718.642 29.7834 716.506 30.95C714.369 32.1167 712.703 33.7834 711.503 35.95C710.337 38.1167 709.752 40.65 709.752 43.55C709.752 46.45 710.352 48.9834 711.553 51.15C712.753 53.3165 714.419 54.9835 716.556 56.15C718.692 57.3165 721.123 57.9 723.86 57.9C726.126 57.9 728.177 57.4835 730.013 56.65C731.85 55.8165 733.365 54.6665 734.566 53.2C735.802 51.7335 736.652 50.0835 737.118 48.25H728.012C727.177 50.05 725.696 50.95 723.56 50.95C722.124 50.95 720.908 50.5 719.908 49.6C718.942 48.6666 718.392 47.3333 718.257 45.6H737.618ZM727.512 37.35C728.513 38.2166 729.013 39.3833 729.013 40.85H718.307C718.542 39.3166 719.142 38.1333 720.108 37.3C721.108 36.4666 722.324 36.05 723.76 36.05C725.261 36.05 726.511 36.4833 727.512 37.35ZM786.156 32.45C784.125 30.35 781.374 29.3 777.902 29.3C775.935 29.3 774.119 29.7833 772.448 30.75C770.782 31.7167 769.467 32.9667 768.496 34.5C767.565 32.8333 766.265 31.55 764.594 30.65C762.963 29.75 761.092 29.3 758.99 29.3C757.224 29.3 755.638 29.65 754.238 30.35C752.837 31.0167 751.706 31.9333 750.836 33.1V29.6H742.281V57.5H750.836V42.35C750.836 40.55 751.306 39.1667 752.236 38.2C753.207 37.2 754.523 36.7 756.189 36.7C757.86 36.7 759.161 37.2 760.091 38.2C761.062 39.1667 761.542 40.55 761.542 42.35V57.5H770.047V42.35C770.047 40.55 770.517 39.1667 771.448 38.2C772.418 37.2 773.734 36.7 775.4 36.7C777.071 36.7 778.372 37.2 779.302 38.2C780.273 39.1667 780.753 40.55 780.753 42.35V57.5H789.258V41.2C789.258 37.4667 788.228 34.55 786.156 32.45ZM800.545 56.15C802.746 57.3165 805.213 57.9 807.949 57.9C810.686 57.9 813.152 57.3165 815.354 56.15C817.59 54.9835 819.341 53.3165 820.607 51.15C821.907 48.95 822.558 46.4166 822.558 43.55C822.558 40.6833 821.922 38.1667 820.657 36C819.391 33.8 817.655 32.1167 815.454 30.95C813.252 29.7834 810.786 29.2 808.049 29.2C805.313 29.2 802.846 29.7834 800.645 30.95C798.444 32.1167 796.708 33.8 795.442 36C794.176 38.1667 793.541 40.6833 793.541 43.55C793.541 46.45 794.156 48.9834 795.392 51.15C796.658 53.3165 798.379 54.9835 800.545 56.15ZM812.102 48.7C810.966 49.9 809.585 50.5 807.949 50.5C806.313 50.5 804.947 49.9 803.847 48.7C802.781 47.5 802.246 45.7833 802.246 43.55C802.246 41.2833 802.796 39.5667 803.897 38.4C804.997 37.2 806.383 36.6 808.049 36.6C809.685 36.6 811.051 37.2 812.152 38.4C813.287 39.6 813.853 41.3166 813.853 43.55C813.853 45.7833 813.267 47.5 812.102 48.7Z" fill="#393386"/>
</svg>
