<svg width="617" height="128" viewBox="0 0 617 128" fill="none" xmlns="http://www.w3.org/2000/svg">
<path d="M201.533 103C191.023 103 182.807 100.164 176.884 94.4916C170.962 88.8191 168 81.1032 168 71.3432C168 64.9202 169.418 59.2476 172.255 54.3261C175.174 49.4044 179.219 45.6089 184.391 42.9396C189.646 40.2702 195.694 38.9355 202.534 38.9355C207.122 38.9355 211.543 39.6029 215.798 40.9376C219.915 42.2045 223.281 43.8848 225.895 45.9785C226.145 46.179 226.233 46.5185 226.12 46.8188L221.045 60.3536C220.863 60.8366 220.264 61.0021 219.844 60.7016C217.926 59.3246 215.659 58.2006 213.045 57.3291C210.125 56.2446 207.373 55.7026 204.787 55.7026C200.282 55.7026 196.82 56.9536 194.401 59.4562C192.066 61.9587 190.898 65.7541 190.898 70.8426C190.898 75.9311 192.066 79.7681 194.401 82.3541C196.82 84.9401 200.282 86.2332 204.787 86.2332C207.373 86.2332 210.125 85.7326 213.045 84.7316C215.655 83.7891 217.919 82.5942 219.836 81.1472C220.254 80.8312 220.87 80.9941 221.052 81.4856L226.12 95.1111C226.232 95.4146 226.141 95.7567 225.887 95.9562C223.116 98.1312 219.627 99.8536 215.422 101.123C211.085 102.375 206.455 103 201.533 103Z" fill="#393386"/>
<path d="M271.75 40.1923C278.739 40.1923 284.272 42.5583 288.348 47.2904C292.498 51.9495 294.573 58.283 294.573 66.291V101.242C294.573 101.661 294.233 102 293.814 102H273.928C273.509 102 273.169 101.661 273.169 101.242V69.1305C273.169 65.636 272.259 62.906 270.439 60.9405C268.619 58.902 266.181 57.883 263.123 57.883C259.92 57.883 257.408 58.902 255.588 60.9405C253.768 62.906 252.858 65.636 252.858 69.1305V101.242C252.858 101.661 252.518 102 252.1 102H232.213C231.795 102 231.455 101.661 231.455 101.242V21.9498C231.455 21.5309 231.795 21.1914 232.213 21.1914H252.1C252.518 21.1914 252.858 21.5309 252.858 21.9498V47.0231C252.858 47.7687 253.871 48.1008 254.364 47.5426C256.036 45.6546 258.082 44.078 260.502 42.8131C263.778 41.0659 267.527 40.1923 271.75 40.1923Z" fill="#393386"/>
<path d="M299.547 71.3114C299.547 64.9779 300.675 59.4449 302.932 54.7129C305.262 49.9808 308.392 46.3407 312.323 43.7927C316.327 41.2447 320.768 39.9707 325.646 39.9707C329.868 39.9707 333.508 40.8079 336.565 42.4823C338.755 43.682 340.591 45.1806 342.072 46.9781C342.563 47.5741 343.664 47.2462 343.664 46.4741V41.4935C343.664 41.0746 344.002 40.7351 344.422 40.7351H364.309C364.727 40.7351 365.067 41.0746 365.067 41.4935V101.238C365.067 101.657 364.727 101.997 364.309 101.997H344.422C344.002 101.997 343.664 101.657 343.664 101.238V96.2579C343.664 95.4859 342.56 95.1559 342.066 95.7499C340.571 97.5494 338.701 99.0494 336.457 100.25C333.399 101.924 329.795 102.761 325.646 102.761C320.768 102.761 316.327 101.487 312.323 98.9394C308.392 96.3914 305.262 92.7514 302.932 88.0189C300.675 83.2144 299.547 77.6449 299.547 71.3114ZM343.664 71.3114C343.664 67.3799 342.572 64.2859 340.388 62.0294C338.277 59.7724 335.655 58.6439 332.525 58.6439C329.322 58.6439 326.665 59.7724 324.553 62.0294C322.442 64.2134 321.387 67.3074 321.387 71.3114C321.387 75.2424 322.442 78.3729 324.553 80.7024C326.665 82.9594 329.322 84.0879 332.525 84.0879C335.655 84.0879 338.277 82.9594 340.388 80.7024C342.572 78.4459 343.664 75.3154 343.664 71.3114Z" fill="#393386"/>
<path d="M384.799 35.0585C381.013 35.0585 377.955 34.0393 375.626 32.0009C373.369 29.8897 372.241 27.2689 372.241 24.1385C372.241 20.9352 373.369 18.278 375.626 16.1668C377.955 14.0556 381.013 13 384.799 13C388.511 13 391.496 14.0556 393.753 16.1668C396.083 18.278 397.248 20.9352 397.248 24.1385C397.248 27.2689 396.083 29.8897 393.753 32.0009C391.496 34.0393 388.511 35.0585 384.799 35.0585ZM394.633 40.7369C395.051 40.7369 395.391 41.0765 395.391 41.4953V101.241C395.391 101.659 395.051 101.998 394.633 101.998H374.746C374.327 101.998 373.988 101.659 373.988 101.241V41.4953C373.988 41.0765 374.327 40.7369 374.746 40.7369H394.633Z" fill="#393386"/>
<path d="M444.381 40.1914C451.443 40.1914 457.049 42.5574 461.198 47.2895C465.348 51.9489 467.423 58.2824 467.423 66.2904V101.241C467.423 101.659 467.083 101.999 466.664 101.999H446.778C446.358 101.999 446.019 101.659 446.019 101.241V69.1294C446.019 65.6354 445.109 62.9054 443.289 60.9394C441.469 58.9009 439.03 57.8819 435.973 57.8819C432.77 57.8819 430.258 58.9009 428.438 60.9394C426.618 62.9054 425.708 65.6354 425.708 69.1294V101.241C425.708 101.659 425.368 101.999 424.95 101.999H405.063C404.644 101.999 404.305 101.659 404.305 101.241V41.4958C404.305 41.0769 404.644 40.7374 405.063 40.7374H424.95C425.368 40.7374 425.708 41.0769 425.708 41.4958V47.0222C425.708 47.7678 426.72 48.0999 427.214 47.5417C428.886 45.6536 430.932 44.0771 433.352 42.8122C436.555 41.065 440.232 40.1914 444.381 40.1914Z" fill="#393386"/>
<path d="M500.485 102.981C494.673 102.981 489.308 102.366 484.394 101.138C479.711 99.9674 475.735 98.2764 472.466 96.0639C472.181 95.8714 472.07 95.5084 472.189 95.1859L477.185 81.7549C477.354 81.2999 477.901 81.1189 478.315 81.3739C481.393 83.2714 484.854 84.8224 488.694 86.0274C492.871 87.2559 496.884 87.8699 500.735 87.8699C503.11 87.8699 504.95 87.5424 506.26 86.8874C507.57 86.1499 508.225 85.1674 508.225 83.9389C508.225 82.8739 507.735 82.0549 506.755 81.4819C505.85 80.9084 503.97 80.2944 501.1 79.6389L491.397 77.4279C485.254 76.0354 480.831 73.9879 478.129 71.2849C475.426 68.5824 474.075 64.7329 474.075 59.7374C474.075 55.8879 475.221 52.4889 477.515 49.5405C479.808 46.5102 483.002 44.1761 487.097 42.5381C491.274 40.9001 495.983 40.0811 501.225 40.0811C505.565 40.0811 509.865 40.7363 514.125 42.0467C518.25 43.2148 522.01 44.8642 525.395 46.9949C525.7 47.1871 525.82 47.5704 525.69 47.9058L520.6 60.7344C520.425 61.1744 519.895 61.3484 519.49 61.1049C516.465 59.2899 513.41 57.8924 510.315 56.9114C507.04 55.7649 503.925 55.1919 500.98 55.1919C498.604 55.1919 496.761 55.5604 495.451 56.2974C494.14 57.0344 493.485 58.0994 493.485 59.4914C493.485 60.3104 493.895 61.0064 494.714 61.5799C495.533 62.0714 496.966 62.5629 499.013 63.0539L509.21 65.3884C515.6 66.7804 520.225 68.9509 523.09 71.8994C525.96 74.7659 527.39 78.6969 527.39 83.6929C527.39 89.6719 524.975 94.3814 520.145 97.8214C515.395 101.261 508.84 102.981 500.485 102.981Z" fill="#393386"/>
<path d="M569.025 57.7771C569.025 58.1956 568.69 58.5351 568.27 58.5351H560.175C559.755 58.5351 559.415 58.8746 559.415 59.2936V101.239C559.415 101.658 559.08 101.997 558.66 101.997H538.665C538.245 101.997 537.905 101.658 537.905 101.239V59.2936C537.905 58.8746 537.565 58.5351 537.145 58.5351H532C531.585 58.5351 531.245 58.1956 531.245 57.7771V41.494C531.245 41.0751 531.585 40.7356 532 40.7356H537.36C537.66 40.7356 537.905 40.4912 537.905 40.1896C537.905 32.3272 540.2 26.3211 544.785 22.1715C549.445 17.9491 556.105 15.8379 564.77 15.8379C566.12 15.8379 567.235 15.8597 568.11 15.9034C568.505 15.9232 568.81 16.2531 568.81 16.6493V33.3245C568.81 33.7807 568.41 34.1357 567.955 34.1108C567.51 34.0865 566.995 34.0744 566.405 34.0744C564.075 34.0744 562.365 34.6204 561.275 35.7124C560.31 36.6103 559.715 38.0166 559.49 39.9315C559.44 40.3659 559.785 40.7356 560.225 40.7356H568.27C568.69 40.7356 569.025 41.0751 569.025 41.494V57.7771Z" fill="#393386"/>
<path d="M597.055 49.1051C597.055 49.8498 598.045 50.1686 598.515 49.5902C600.61 47.0036 603.035 44.8893 605.79 43.2474C608.99 41.3407 612.415 40.3257 616.06 40.2026C616.48 40.1885 616.82 40.5293 616.82 40.9482V62.2546C616.82 62.6731 616.48 63.0126 616.06 63.0126H610.815C606.155 63.0126 602.695 63.9226 600.44 65.7426C598.185 67.5626 597.055 70.7296 597.055 75.2431V101.239C597.055 101.658 596.715 101.998 596.295 101.998H576.41C575.99 101.998 575.65 101.658 575.65 101.239V41.4942C575.65 41.0753 575.99 40.7358 576.41 40.7358H596.295C596.715 40.7358 597.055 41.0753 597.055 41.4942V49.1051Z" fill="#393386"/>
<path fill-rule="evenodd" clip-rule="evenodd" d="M44.6265 0H83.3735C96.224 0 102.649 0 109.565 2.18667C117.117 4.93511 123.065 10.8836 125.813 18.4349C128 25.3511 128 31.776 128 44.6258V83.3735C128 96.2235 128 102.648 125.813 109.565C123.065 117.116 117.117 123.064 109.565 125.812C102.649 128 96.224 128 83.3735 128H44.6265C31.7767 128 25.3518 128 18.4356 125.812C10.8843 123.064 4.93582 117.116 2.18738 109.565C0 102.648 0 96.2235 0 83.3735V44.6258C0 31.776 0 25.3511 2.18738 18.4349C4.93582 10.8836 10.8843 4.93511 18.4356 2.18667C25.3518 0 31.7767 0 44.6265 0Z" fill="#393386"/>
<path fill-rule="evenodd" clip-rule="evenodd" d="M56.4815 19L28.5577 53.856C28.0615 54.3075 27.75 54.9585 27.75 55.682C27.75 57.0445 28.8547 58.1495 30.2174 58.1495C31.1582 58.1495 31.976 57.623 32.3922 56.8485C31.976 57.623 31.1582 58.1495 30.2174 58.1495H56.4815V40.8232V58.149H82.8005V58.1495C85.076 58.1495 87.329 57.7015 89.431 56.8305C91.5335 55.96 93.4435 54.6835 95.0525 53.0745C96.661 51.466 97.9375 49.5557 98.808 47.4535C99.679 45.3514 100.127 43.0983 100.127 40.8229H82.8005V40.8222H62.954C59.3775 40.765 56.495 37.8548 56.4815 34.2681V19Z" fill="#F89C35"/>
<path fill-rule="evenodd" clip-rule="evenodd" d="M71.3959 109L99.3199 74.1441C99.8159 73.6926 100.127 73.0416 100.127 72.3181C100.127 70.9556 99.0229 69.8506 97.6604 69.8506C96.7194 69.8506 95.9014 70.3771 95.4854 71.1516C95.9014 70.3771 96.7194 69.8506 97.6604 69.8506H71.3959V109ZM64.8869 87.1781H45.0769V87.1771H27.7505C27.7505 84.9016 28.1987 82.6486 29.0694 80.5466C29.9401 78.4446 31.2164 76.5341 32.8253 74.9256C34.4343 73.3166 36.3444 72.0401 38.4465 71.1696C40.5487 70.2986 42.8018 69.8506 45.0771 69.8506V69.8511H71.3959V87.1781V93.7566C71.3954 90.1466 68.4879 87.2156 64.8869 87.1781Z" fill="#4285F4"/>
</svg>
