<svg width="213" height="191" viewBox="0 0 213 191" fill="none" xmlns="http://www.w3.org/2000/svg">
<mask id="mask0" mask-type="alpha" maskUnits="userSpaceOnUse" x="0" y="0" width="209" height="188">
<path fill-rule="evenodd" clip-rule="evenodd" d="M209 0H0V188H149.277C140.512 180.128 135 168.708 135 156C135 132.252 154.252 113 178 113C190.179 113 201.176 118.064 209 126.201V0ZM209 185.799C208.268 186.56 207.509 187.294 206.723 188H209V185.799Z" fill="#C4C4C4"/>
</mask>
<g mask="url(#mask0)">
<path fill-rule="evenodd" clip-rule="evenodd" d="M60.1875 172.688L87.75 180V170.438L90 168.188H105.75V179.438V187.312H88.875L68.0625 178.312L60.1875 172.688Z" fill="#CDBDB2"/>
<path fill-rule="evenodd" clip-rule="evenodd" d="M150.188 172.688L123.188 180V170.438L120.938 168.188H105.188V179.438V187.312H122.062L142.875 178.312L150.188 172.688Z" fill="#CDBDB2"/>
<path fill-rule="evenodd" clip-rule="evenodd" d="M90 151.875L87.75 170.438L90.5625 168.188H119.812L123.188 170.438L120.938 151.875L116.438 149.062L93.9375 149.625L90 151.875Z" fill="#393939"/>
<path fill-rule="evenodd" clip-rule="evenodd" d="M74.8125 26.4375L88.3125 57.9375L94.5 149.625H116.438L123.188 57.9375L135.562 26.4375H74.8125Z" fill="#F89C35"/>
<path fill-rule="evenodd" clip-rule="evenodd" d="M15.75 95.625L0 141.188L39.375 138.938H64.6875V119.25L63.5625 78.75L57.9375 83.25L15.75 95.625Z" fill="#F89D35"/>
<path fill-rule="evenodd" clip-rule="evenodd" d="M45.5625 100.688L91.6875 101.812L86.625 125.438L64.6875 119.812L45.5625 100.688Z" fill="#D87C30"/>
<path fill-rule="evenodd" clip-rule="evenodd" d="M45.5625 101.25L64.6875 119.25V137.25L45.5625 101.25Z" fill="#EA8D3A"/>
<path fill-rule="evenodd" clip-rule="evenodd" d="M64.6875 119.812L87.1875 125.438L94.5 149.625L89.4375 152.438L64.6875 137.812V119.812Z" fill="#F89D35"/>
<path fill-rule="evenodd" clip-rule="evenodd" d="M64.6875 137.812L60.1875 172.688L90 151.875L64.6875 137.812Z" fill="#EB8F35"/>
<path fill-rule="evenodd" clip-rule="evenodd" d="M91.6875 101.812L94.5 149.625L86.0625 125.156L91.6875 101.812Z" fill="#EA8E3A"/>
<path fill-rule="evenodd" clip-rule="evenodd" d="M38.8125 138.375L64.6875 137.812L60.1875 172.688L38.8125 138.375Z" fill="#D87C30"/>
<path fill-rule="evenodd" clip-rule="evenodd" d="M12.375 187.875L60.1875 172.688L38.8125 138.375L0 141.188L12.375 187.875Z" fill="#EB8F35"/>
<path fill-rule="evenodd" clip-rule="evenodd" d="M88.3125 57.9375L64.125 78.1875L45.5625 100.688L91.6875 102.375L88.3125 57.9375Z" fill="#E8821E"/>
<path fill-rule="evenodd" clip-rule="evenodd" d="M60.1875 172.688L90 151.875L87.75 169.875V180L67.5 176.062L60.1875 172.688Z" fill="#DFCEC3"/>
<path fill-rule="evenodd" clip-rule="evenodd" d="M150.188 172.688L120.938 151.875L123.188 169.875V180L143.438 176.062L150.188 172.688Z" fill="#DFCEC3"/>
<path fill-rule="evenodd" clip-rule="evenodd" d="M79.3125 111.938L85.5 124.875L63.5625 119.25L79.3125 111.938Z" fill="#393939"/>
<path fill-rule="evenodd" clip-rule="evenodd" d="M11.8125 0L88.3125 57.9375L75.375 26.4375L11.8125 0Z" fill="#E88F35"/>
<path fill-rule="evenodd" clip-rule="evenodd" d="M11.8125 0L1.6875 30.9375L7.3125 64.6875L3.375 66.9375L9 72L4.5 75.9375L10.6875 81.5625L6.75 84.9375L15.75 96.1875L57.9375 83.25C57.9375 83.25 88.875 58.5 88.3125 57.9375C87.75 57.375 11.8125 0 11.8125 0Z" fill="#8E5A30"/>
<path fill-rule="evenodd" clip-rule="evenodd" d="M194.625 95.625L210.375 141.188L171 138.938H145.688V119.25L146.812 78.75L152.438 83.25L194.625 95.625Z" fill="#F89D35"/>
<path fill-rule="evenodd" clip-rule="evenodd" d="M164.812 100.688L118.688 101.812L123.75 125.438L145.688 119.812L164.812 100.688Z" fill="#D87C30"/>
<path fill-rule="evenodd" clip-rule="evenodd" d="M164.812 101.25L145.688 119.25V137.25L164.812 101.25Z" fill="#EA8D3A"/>
<path fill-rule="evenodd" clip-rule="evenodd" d="M145.688 119.812L123.188 125.438L115.875 149.625L120.938 152.438L145.688 137.812V119.812Z" fill="#F89D35"/>
<path fill-rule="evenodd" clip-rule="evenodd" d="M145.688 137.812L150.188 172.688L120.938 152.438L145.688 137.812Z" fill="#EB8F35"/>
<path fill-rule="evenodd" clip-rule="evenodd" d="M118.688 101.812L115.875 149.625L124.312 125.156L118.688 101.812Z" fill="#EA8E3A"/>
<path fill-rule="evenodd" clip-rule="evenodd" d="M171.562 138.375L145.688 137.812L150.188 172.688L171.562 138.375Z" fill="#D87C30"/>
<path fill-rule="evenodd" clip-rule="evenodd" d="M198 187.875L150.188 172.688L171.562 138.375L210.375 141.188L198 187.875Z" fill="#EB8F35"/>
<path fill-rule="evenodd" clip-rule="evenodd" d="M122.062 57.9375L146.25 78.1875L164.812 100.688L118.688 102.375L122.062 57.9375Z" fill="#E8821E"/>
<path fill-rule="evenodd" clip-rule="evenodd" d="M131.062 111.938L124.875 124.875L146.812 119.25L131.062 111.938Z" fill="#393939"/>
<path fill-rule="evenodd" clip-rule="evenodd" d="M198.562 0L122.062 57.9375L135 26.4375L198.562 0Z" fill="#E88F35"/>
<path fill-rule="evenodd" clip-rule="evenodd" d="M198.562 0L208.688 30.9375L203.062 64.6875L207 66.9375L201.375 72L205.875 75.9375L199.688 81.5625L203.625 84.9375L194.625 96.1875L152.438 83.25C152.438 83.25 121.5 58.5 122.062 57.9375C122.625 57.375 198.562 0 198.562 0Z" fill="#8E5A30"/>
</g>
<path d="M208.961 139.664C211.54 144.54 213 150.1 213 156C213 175.33 197.33 191 178 191C177.554 191 177.109 190.991 176.668 190.975L192.02 164.383C193.489 161.932 194.333 159.064 194.333 156C194.333 146.979 187.021 139.667 178 139.667H208.956L208.961 139.664Z" fill="#FBCB4F"/>
<path d="M208.961 139.663L208.956 139.666H178C168.979 139.666 161.667 146.979 161.667 156C161.667 158.872 162.408 161.57 163.71 163.915L148.377 137.358L148.374 137.356C154.571 127.528 165.523 121 178 121C191.43 121 203.093 128.564 208.961 139.663Z" fill="#DB524A"/>
<path d="M178 170.777C172.632 170.777 167.677 167.859 165.07 163.16C163.861 160.983 163.222 158.507 163.222 156C163.222 147.851 169.851 141.222 178 141.222C186.149 141.222 192.778 147.851 192.778 156C192.778 158.678 192.054 161.3 190.686 163.583C189.396 165.736 187.566 167.54 185.394 168.798C183.158 170.093 180.601 170.777 178 170.777Z" fill="#548EF2"/>
<path d="M178 139.665C168.979 139.665 161.667 146.978 161.667 155.999C161.667 158.871 162.408 161.569 163.71 163.914C166.496 168.935 171.852 172.332 178 172.332C183.956 172.332 189.167 169.144 192.02 164.382C193.489 161.931 194.333 159.063 194.333 155.999C194.333 146.978 187.021 139.665 178 139.665ZM178 142.776C181.532 142.776 184.852 144.152 187.349 146.649C189.847 149.146 191.222 152.467 191.222 155.999C191.222 158.395 190.575 160.741 189.351 162.783C188.197 164.711 186.559 166.325 184.615 167.451C182.615 168.609 180.328 169.221 178 169.221C175.596 169.221 173.244 168.57 171.197 167.34C169.206 166.142 167.557 164.435 166.43 162.404C165.349 160.457 164.778 158.242 164.778 155.999C164.778 152.467 166.153 149.146 168.65 146.649C171.148 144.152 174.468 142.776 178 142.776Z" fill="white"/>
<path d="M192.02 164.383L176.668 190.976C157.955 190.275 143 174.884 143 156.001C143 149.148 144.969 142.755 148.374 137.357L148.377 137.359L163.71 163.916C166.496 168.937 171.852 172.334 178 172.334C183.956 172.334 189.167 169.146 192.02 164.383" fill="#25A061"/>
<g opacity="0.100006">
<g opacity="0.100006">
<g opacity="0.100006">
<g opacity="0.100006">
<g opacity="0.100006">
<g opacity="0.100006">
<path opacity="0.100006" d="M178 139.667H208.956L178 147.444V139.667Z" fill="url(#paint0_linear)"/>
</g>
</g>
</g>
</g>
</g>
</g>
<g opacity="0.100006">
<g opacity="0.100006">
<g opacity="0.100006">
<g opacity="0.100006">
<g opacity="0.100006">
<g opacity="0.100006">
<path opacity="0.100006" d="M192.145 164.166L176.667 190.975L185.409 160.277L192.145 164.166Z" fill="url(#paint1_linear)"/>
</g>
</g>
</g>
</g>
</g>
</g>
<g opacity="0.100006">
<g opacity="0.100006">
<g opacity="0.100006">
<g opacity="0.100006">
<g opacity="0.100006">
<g opacity="0.100006">
<path opacity="0.100006" d="M163.855 164.168L148.377 137.36L170.591 160.279L163.855 164.168Z" fill="url(#paint2_linear)"/>
</g>
</g>
</g>
</g>
</g>
</g>
<path d="M178 170.777C169.851 170.777 163.222 164.148 163.222 156C163.222 147.851 169.851 141.222 178 141.222C186.149 141.222 192.778 147.851 192.778 156C192.778 164.148 186.149 170.777 178 170.777Z" fill="#548EF2"/>
<path d="M178 139.665C168.979 139.665 161.667 146.978 161.667 155.999C161.667 165.019 168.979 172.332 178 172.332C187.021 172.332 194.333 165.019 194.333 155.999C194.333 146.978 187.021 139.665 178 139.665ZM178 142.776C181.532 142.776 184.852 144.152 187.349 146.649C189.847 149.146 191.222 152.467 191.222 155.999C191.222 159.53 189.847 162.851 187.349 165.348C184.852 167.846 181.532 169.221 178 169.221C174.468 169.221 171.148 167.846 168.65 165.348C166.153 162.851 164.778 159.53 164.778 155.999C164.778 152.467 166.153 149.146 168.65 146.649C171.148 144.152 174.468 142.776 178 142.776Z" fill="white"/>
<defs>
<linearGradient id="paint0_linear" x1="178" y1="143.555" x2="208.956" y2="143.555" gradientUnits="userSpaceOnUse">
<stop stop-color="white"/>
<stop offset="0.405149" stop-color="#231F20"/>
<stop offset="1" stop-color="#231F20"/>
</linearGradient>
<linearGradient id="paint1_linear" x1="188.777" y1="162.222" x2="173.299" y2="189.03" gradientUnits="userSpaceOnUse">
<stop stop-color="white"/>
<stop offset="0.405149" stop-color="#231F20"/>
<stop offset="1" stop-color="#231F20"/>
</linearGradient>
<linearGradient id="paint2_linear" x1="167.223" y1="162.224" x2="151.745" y2="135.415" gradientUnits="userSpaceOnUse">
<stop stop-color="white"/>
<stop offset="0.405149" stop-color="#231F20"/>
<stop offset="1" stop-color="#231F20"/>
</linearGradient>
</defs>
</svg>
