<svg width="212" height="189" viewBox="0 0 212 189" fill="none" xmlns="http://www.w3.org/2000/svg">
<path fill-rule="evenodd" clip-rule="evenodd" d="M60.75 173.25L88.3125 180.562V171L90.5625 168.75H106.312V180V187.875H89.4375L68.625 178.875L60.75 173.25Z" fill="#CDBDB2"/>
<path fill-rule="evenodd" clip-rule="evenodd" d="M150.75 173.25L123.75 180.562V171L121.5 168.75H105.75V180V187.875H122.625L143.438 178.875L150.75 173.25Z" fill="#CDBDB2"/>
<path fill-rule="evenodd" clip-rule="evenodd" d="M90.5625 152.438L88.3125 171L91.125 168.75H120.375L123.75 171L121.5 152.438L117 149.625L94.5 150.188L90.5625 152.438Z" fill="#393939"/>
<path fill-rule="evenodd" clip-rule="evenodd" d="M75.375 27L88.875 58.5L95.0625 150.188H117L123.75 58.5L136.125 27H75.375Z" fill="#F89C35"/>
<path fill-rule="evenodd" clip-rule="evenodd" d="M16.3125 96.1875L0.5625 141.75L39.9375 139.5H65.25V119.812L64.125 79.3125L58.5 83.8125L16.3125 96.1875Z" fill="#F89D35"/>
<path fill-rule="evenodd" clip-rule="evenodd" d="M46.125 101.25L92.25 102.375L87.1875 126L65.25 120.375L46.125 101.25Z" fill="#D87C30"/>
<path fill-rule="evenodd" clip-rule="evenodd" d="M46.125 101.812L65.25 119.812V137.812L46.125 101.812Z" fill="#EA8D3A"/>
<path fill-rule="evenodd" clip-rule="evenodd" d="M65.25 120.375L87.75 126L95.0625 150.188L90 153L65.25 138.375V120.375Z" fill="#F89D35"/>
<path fill-rule="evenodd" clip-rule="evenodd" d="M65.25 138.375L60.75 173.25L90.5625 152.438L65.25 138.375Z" fill="#EB8F35"/>
<path fill-rule="evenodd" clip-rule="evenodd" d="M92.25 102.375L95.0625 150.188L86.625 125.719L92.25 102.375Z" fill="#EA8E3A"/>
<path fill-rule="evenodd" clip-rule="evenodd" d="M39.375 138.938L65.25 138.375L60.75 173.25L39.375 138.938Z" fill="#D87C30"/>
<path fill-rule="evenodd" clip-rule="evenodd" d="M12.9375 188.438L60.75 173.25L39.375 138.938L0.5625 141.75L12.9375 188.438Z" fill="#EB8F35"/>
<path fill-rule="evenodd" clip-rule="evenodd" d="M88.875 58.5L64.6875 78.75L46.125 101.25L92.25 102.938L88.875 58.5Z" fill="#E8821E"/>
<path fill-rule="evenodd" clip-rule="evenodd" d="M60.75 173.25L90.5625 152.438L88.3125 170.438V180.562L68.0625 176.625L60.75 173.25Z" fill="#DFCEC3"/>
<path fill-rule="evenodd" clip-rule="evenodd" d="M150.75 173.25L121.5 152.438L123.75 170.438V180.562L144 176.625L150.75 173.25Z" fill="#DFCEC3"/>
<path fill-rule="evenodd" clip-rule="evenodd" d="M79.875 112.5L86.0625 125.438L64.125 119.812L79.875 112.5Z" fill="#393939"/>
<path fill-rule="evenodd" clip-rule="evenodd" d="M12.375 0.5625L88.875 58.5L75.9375 27L12.375 0.5625Z" fill="#E88F35"/>
<path fill-rule="evenodd" clip-rule="evenodd" d="M12.375 0.5625L2.25 31.5L7.875 65.25L3.9375 67.5L9.5625 72.5625L5.0625 76.5L11.25 82.125L7.3125 85.5L16.3125 96.75L58.5 83.8125C58.5 83.8125 89.4375 59.0625 88.875 58.5C88.3125 57.9375 12.375 0.5625 12.375 0.5625Z" fill="#8E5A30"/>
<path fill-rule="evenodd" clip-rule="evenodd" d="M195.188 96.1875L210.938 141.75L171.562 139.5H146.25V119.812L147.375 79.3125L153 83.8125L195.188 96.1875Z" fill="#F89D35"/>
<path fill-rule="evenodd" clip-rule="evenodd" d="M165.375 101.25L119.25 102.375L124.312 126L146.25 120.375L165.375 101.25Z" fill="#D87C30"/>
<path fill-rule="evenodd" clip-rule="evenodd" d="M165.375 101.812L146.25 119.812V137.812L165.375 101.812Z" fill="#EA8D3A"/>
<path fill-rule="evenodd" clip-rule="evenodd" d="M146.25 120.375L123.75 126L116.438 150.188L121.5 153L146.25 138.375V120.375Z" fill="#F89D35"/>
<path fill-rule="evenodd" clip-rule="evenodd" d="M146.25 138.375L150.75 173.25L121.5 153L146.25 138.375Z" fill="#EB8F35"/>
<path fill-rule="evenodd" clip-rule="evenodd" d="M119.25 102.375L116.438 150.188L124.875 125.719L119.25 102.375Z" fill="#EA8E3A"/>
<path fill-rule="evenodd" clip-rule="evenodd" d="M172.125 138.938L146.25 138.375L150.75 173.25L172.125 138.938Z" fill="#D87C30"/>
<path fill-rule="evenodd" clip-rule="evenodd" d="M198.562 188.438L150.75 173.25L172.125 138.938L210.938 141.75L198.562 188.438Z" fill="#EB8F35"/>
<path fill-rule="evenodd" clip-rule="evenodd" d="M122.625 58.5L146.812 78.75L165.375 101.25L119.25 102.938L122.625 58.5Z" fill="#E8821E"/>
<path fill-rule="evenodd" clip-rule="evenodd" d="M131.625 112.5L125.438 125.438L147.375 119.812L131.625 112.5Z" fill="#393939"/>
<path fill-rule="evenodd" clip-rule="evenodd" d="M199.125 0.5625L122.625 58.5L135.562 27L199.125 0.5625Z" fill="#E88F35"/>
<path fill-rule="evenodd" clip-rule="evenodd" d="M199.125 0.5625L209.25 31.5L203.625 65.25L207.562 67.5L201.938 72.5625L206.438 76.5L200.25 82.125L204.188 85.5L195.188 96.75L153 83.8125C153 83.8125 122.062 59.0625 122.625 58.5C123.188 57.9375 199.125 0.5625 199.125 0.5625Z" fill="#8E5A30"/>
</svg>
