<svg width="210" height="191" viewBox="0 0 210 191" fill="none" xmlns="http://www.w3.org/2000/svg">
<mask id="mask0" mask-type="alpha" maskUnits="userSpaceOnUse" x="0" y="0" width="209" height="188">
<path fill-rule="evenodd" clip-rule="evenodd" d="M209 0H0V188H153.182C153.062 187.392 153 186.769 153 186.135V115.5C153 109.444 161.243 101 168 101H204.077C205.835 101 207.5 101.338 209 101.941V0Z" fill="#C4C4C4"/>
</mask>
<g mask="url(#mask0)">
<path fill-rule="evenodd" clip-rule="evenodd" d="M60.1875 172.688L87.75 180V170.438L90 168.188H105.75V179.438V187.312H88.875L68.0625 178.312L60.1875 172.688Z" fill="#CDBDB2"/>
<path fill-rule="evenodd" clip-rule="evenodd" d="M150.188 172.688L123.188 180V170.438L120.938 168.188H105.188V179.438V187.312H122.062L142.875 178.312L150.188 172.688Z" fill="#CDBDB2"/>
<path fill-rule="evenodd" clip-rule="evenodd" d="M90 151.875L87.75 170.438L90.5625 168.188H119.812L123.188 170.438L120.938 151.875L116.438 149.062L93.9375 149.625L90 151.875Z" fill="#393939"/>
<path fill-rule="evenodd" clip-rule="evenodd" d="M74.8125 26.4375L88.3125 57.9375L94.5 149.625H116.438L123.188 57.9375L135.562 26.4375H74.8125Z" fill="#F89C35"/>
<path fill-rule="evenodd" clip-rule="evenodd" d="M15.75 95.625L0 141.188L39.375 138.938H64.6875V119.25L63.5625 78.75L57.9375 83.25L15.75 95.625Z" fill="#F89D35"/>
<path fill-rule="evenodd" clip-rule="evenodd" d="M45.5625 100.688L91.6875 101.812L86.625 125.438L64.6875 119.812L45.5625 100.688Z" fill="#D87C30"/>
<path fill-rule="evenodd" clip-rule="evenodd" d="M45.5625 101.25L64.6875 119.25V137.25L45.5625 101.25Z" fill="#EA8D3A"/>
<path fill-rule="evenodd" clip-rule="evenodd" d="M64.6875 119.812L87.1875 125.438L94.5 149.625L89.4375 152.438L64.6875 137.812V119.812Z" fill="#F89D35"/>
<path fill-rule="evenodd" clip-rule="evenodd" d="M64.6875 137.812L60.1875 172.688L90 151.875L64.6875 137.812Z" fill="#EB8F35"/>
<path fill-rule="evenodd" clip-rule="evenodd" d="M91.6875 101.812L94.5 149.625L86.0625 125.156L91.6875 101.812Z" fill="#EA8E3A"/>
<path fill-rule="evenodd" clip-rule="evenodd" d="M38.8125 138.375L64.6875 137.812L60.1875 172.688L38.8125 138.375Z" fill="#D87C30"/>
<path fill-rule="evenodd" clip-rule="evenodd" d="M12.375 187.875L60.1875 172.688L38.8125 138.375L0 141.188L12.375 187.875Z" fill="#EB8F35"/>
<path fill-rule="evenodd" clip-rule="evenodd" d="M88.3125 57.9375L64.125 78.1875L45.5625 100.688L91.6875 102.375L88.3125 57.9375Z" fill="#E8821E"/>
<path fill-rule="evenodd" clip-rule="evenodd" d="M60.1875 172.688L90 151.875L87.75 169.875V180L67.5 176.062L60.1875 172.688Z" fill="#DFCEC3"/>
<path fill-rule="evenodd" clip-rule="evenodd" d="M150.188 172.688L120.938 151.875L123.188 169.875V180L143.438 176.062L150.188 172.688Z" fill="#DFCEC3"/>
<path fill-rule="evenodd" clip-rule="evenodd" d="M79.3125 111.938L85.5 124.875L63.5625 119.25L79.3125 111.938Z" fill="#393939"/>
<path fill-rule="evenodd" clip-rule="evenodd" d="M11.8125 0L88.3125 57.9375L75.375 26.4375L11.8125 0Z" fill="#E88F35"/>
<path fill-rule="evenodd" clip-rule="evenodd" d="M11.8125 0L1.6875 30.9375L7.3125 64.6875L3.375 66.9375L9 72L4.5 75.9375L10.6875 81.5625L6.75 84.9375L15.75 96.1875L57.9375 83.25C57.9375 83.25 88.875 58.5 88.3125 57.9375C87.75 57.375 11.8125 0 11.8125 0Z" fill="#8E5A30"/>
<path fill-rule="evenodd" clip-rule="evenodd" d="M194.625 95.625L210.375 141.188L171 138.938H145.688V119.25L146.812 78.75L152.438 83.25L194.625 95.625Z" fill="#F89D35"/>
<path fill-rule="evenodd" clip-rule="evenodd" d="M164.812 100.688L118.688 101.812L123.75 125.438L145.688 119.812L164.812 100.688Z" fill="#D87C30"/>
<path fill-rule="evenodd" clip-rule="evenodd" d="M164.812 101.25L145.688 119.25V137.25L164.812 101.25Z" fill="#EA8D3A"/>
<path fill-rule="evenodd" clip-rule="evenodd" d="M145.688 119.812L123.188 125.438L115.875 149.625L120.938 152.438L145.688 137.812V119.812Z" fill="#F89D35"/>
<path fill-rule="evenodd" clip-rule="evenodd" d="M145.688 137.812L150.188 172.688L120.938 152.438L145.688 137.812Z" fill="#EB8F35"/>
<path fill-rule="evenodd" clip-rule="evenodd" d="M118.688 101.812L115.875 149.625L124.312 125.156L118.688 101.812Z" fill="#EA8E3A"/>
<path fill-rule="evenodd" clip-rule="evenodd" d="M171.562 138.375L145.688 137.812L150.188 172.688L171.562 138.375Z" fill="#D87C30"/>
<path fill-rule="evenodd" clip-rule="evenodd" d="M198 187.875L150.188 172.688L171.562 138.375L210.375 141.188L198 187.875Z" fill="#EB8F35"/>
<path fill-rule="evenodd" clip-rule="evenodd" d="M122.062 57.9375L146.25 78.1875L164.812 100.688L118.688 102.375L122.062 57.9375Z" fill="#E8821E"/>
<path fill-rule="evenodd" clip-rule="evenodd" d="M131.062 111.938L124.875 124.875L146.812 119.25L131.062 111.938Z" fill="#393939"/>
<path fill-rule="evenodd" clip-rule="evenodd" d="M198.562 0L122.062 57.9375L135 26.4375L198.562 0Z" fill="#E88F35"/>
<path fill-rule="evenodd" clip-rule="evenodd" d="M198.562 0L208.688 30.9375L203.062 64.6875L207 66.9375L201.375 72L205.875 75.9375L199.688 81.5625L203.625 84.9375L194.625 96.1875L152.438 83.25C152.438 83.25 121.5 58.5 122.062 57.9375C122.625 57.375 198.562 0 198.562 0Z" fill="#8E5A30"/>
</g>
<path fill-rule="evenodd" clip-rule="evenodd" d="M194.926 118.737C194.926 119.801 194.165 120.562 193.1 120.562H178.191C177.278 120.562 176.365 119.801 176.365 118.737C176.365 117.672 177.126 116.759 178.191 116.759H193.1C194.013 116.759 194.926 117.672 194.926 118.737ZM181.842 180.503C181.842 178.373 183.516 176.699 185.646 176.699C187.776 176.699 189.449 178.373 189.449 180.503C189.449 182.633 187.776 184.306 185.646 184.306C183.516 184.306 181.842 182.633 181.842 180.503ZM200.25 191C205.271 191 209.378 186.892 209.378 181.72V118.28C209.378 113.26 205.271 109 200.098 109H170.28C165.108 109 161 113.108 161 118.28V181.72C161 186.74 165.108 191 170.28 191H200.25ZM166.933 126.495C166.933 125.43 167.846 124.518 168.911 124.518H202.532C203.597 124.518 204.51 125.43 204.51 126.495V171.375C204.51 172.44 203.597 173.353 202.532 173.353H168.911C167.846 173.353 166.933 172.44 166.933 171.375V126.495Z" fill="#393939"/>
<path fill-rule="evenodd" clip-rule="evenodd" d="M192.981 120.488C194.046 120.488 194.807 119.727 194.807 118.662C194.807 117.597 193.894 116.685 192.981 116.685H178.072C177.007 116.685 176.246 117.597 176.246 118.662C176.246 119.727 177.159 120.488 178.072 120.488H192.981ZM185.526 176.625C183.397 176.625 181.723 178.299 181.723 180.429C181.723 182.558 183.397 184.232 185.526 184.232C187.656 184.232 189.33 182.558 189.33 180.429C189.33 178.299 187.656 176.625 185.526 176.625ZM168.792 124.443C167.727 124.443 166.814 125.356 166.814 126.421V171.301C166.814 172.365 167.727 173.278 168.792 173.278H202.413C203.478 173.278 204.391 172.365 204.391 171.301V126.421C204.391 125.356 203.478 124.443 202.413 124.443H168.792Z" fill="#E5E5E5"/>
</svg>
