<svg width="22" height="22" viewBox="0 0 22 22" fill="none" xmlns="http://www.w3.org/2000/svg">
<path d="M1.99993 1.99993V7.9997H7.9997V1.99993H1.99993ZM0 0H9.99963V9.99963H0V0Z" fill="#393386"/>
<path d="M5.99895 4.00012H3.99902V6.00005H5.99895V4.00012Z" fill="#393386"/>
<path d="M5.99895 15.9987H3.99902V17.9986H5.99895V15.9987Z" fill="#393386"/>
<path d="M16.0008 12.0004H12.001V14.0003H16.0008V12.0004Z" fill="#393386"/>
<path d="M13.9169 15.5833H11.917V21.5831H13.9169V15.5833Z" fill="#393386"/>
<path d="M17.9989 19.9993H15.999V21.9992H17.9989V19.9993Z" fill="#393386"/>
<path d="M19.998 12.0004H17.998V14.0003H19.998V12.0004Z" fill="#393386"/>
<path d="M17.9989 4.00012H15.999V6.00005H17.9989V4.00012Z" fill="#393386"/>
<path d="M14.0009 1.99993V7.9997H20.0007V1.99993H14.0009ZM12.001 0H22.0006V9.99963H12.001V0Z" fill="#393386"/>
<path d="M1.99993 14.0003V20.0001H7.9997V14.0003H1.99993ZM0 12.0004H9.99963V22H0V12.0004Z" fill="#393386"/>
<path d="M15.999 17.9986V15.9987H19.9989V17.9986H15.999Z" fill="#393386"/>
<path d="M21.996 22H19.9961V12.0004H21.996V22Z" fill="#393386"/>
</svg>
