<svg width="1163" height="717" viewBox="0 0 1163 717" fill="none" xmlns="http://www.w3.org/2000/svg">
<path opacity="0.1" d="M1162.01 716.868H39.0148C39.0148 716.868 -59.4352 589.428 56.4448 458.428C99.4448 409.848 102.715 349.778 89.8347 293.428C55.0147 141.108 194.365 6.30844 345.555 45.8684C348.435 46.6284 351.345 47.3984 354.275 48.1984C582.165 110.348 768.745 47.8884 840.555 16.9684C869.167 4.59379 900.21 -1.14292 931.355 0.188445C1011.94 3.78845 1134.07 34.8284 1020.63 205.808C860.705 446.848 1162.01 716.868 1162.01 716.868Z" fill="#4285F4"/>
<path d="M407.813 456.532C409.684 455.916 420.699 447.193 421.533 443.249C422.368 439.304 415.71 402.566 415.71 402.566C415.71 402.566 416.325 402.566 417.33 402.444V401.853L415.92 353.589C415.92 353.589 410.308 321.192 420.91 323.079C431.512 324.966 424.862 353.589 424.862 353.589C424.862 353.589 426.069 368.128 426.919 372.485C427.729 376.681 431.439 393.802 428.912 399.124C428.821 399.314 428.718 399.498 428.604 399.674V399.674C428.604 399.674 428.183 417.938 432.759 420.433C437.124 422.814 438.939 434.753 439.093 435.822L439.327 435.716C440.629 434.901 441.773 433.859 442.705 432.639C442.802 432.509 442.875 432.379 442.964 432.25C439.986 428.898 438.382 424.547 438.47 420.064C438.559 415.582 440.334 411.297 443.442 408.065C444.888 406.561 446.584 405.319 448.455 404.396C448.511 402.849 448.877 401.328 449.533 399.926C451.638 395.422 463.301 389.534 471.587 389.396C475.41 389.275 478.544 390.368 479.686 393.357C480.269 394.872 480.091 396.556 480.334 398.16C480.82 401.4 482.902 403.943 485.574 405.951C486.652 404.747 487.818 403.626 489.065 402.598C491.77 400.525 497.165 393.689 497.165 393.689C497.165 393.689 514.027 376.203 515.275 371.408C516.522 366.613 533.36 337.982 537.102 342.963C540.844 347.944 524.216 369.788 524.216 369.788C524.216 369.788 521.098 377.677 518.603 380.374C516.109 383.071 497.57 410.042 497.57 410.042L496.679 411.88C500.615 413.954 504.211 416.594 505.483 420.708C507.345 426.767 503.271 432.857 500.453 438.527C494.962 449.582 494.176 463.691 501.263 473.807C507.564 482.798 518.555 487.009 528.89 490.743C523.909 494.652 517.725 496.708 511.395 496.558C513.776 503.451 522.216 505.743 529.408 507.015C525.634 510.643 520.231 511.963 515.048 512.765C512.51 513.201 509.937 513.405 507.362 513.373H506.73L506.098 513.332C505.22 513.275 504.346 513.161 503.482 512.992C499.74 512.231 496.104 510.19 494.192 506.885C492.572 504.058 492.005 500.211 489.065 498.786C488.299 498.443 487.474 498.25 486.635 498.219H486.725C486.174 498.219 485.607 498.219 485.056 498.219L472.802 498.348C472.292 498.348 471.765 498.348 471.239 498.348C467.78 498.275 464.087 497.676 462.329 494.817C461.607 493.428 461.227 491.887 461.22 490.322C460.961 486.434 461.22 482.449 461.115 478.529C460.07 485.649 458.976 496.753 461.576 500.843C463.706 503.94 466.282 506.705 469.222 509.047C469.958 509.665 470.63 510.354 471.231 511.105C471.627 511.388 471.862 511.542 471.862 511.542L472.113 512.303C473.039 513.702 473.709 515.254 474.09 516.888C474.231 517.304 474.284 517.746 474.244 518.183C473.96 518.767 476.268 521.14 475.596 522.136C481.363 528.891 482.456 539.145 482.456 539.145L492.985 555.124C498.396 569.347 506.495 570.797 506.495 570.797C506.495 570.797 525.52 558.032 526.039 557.408C526.557 556.785 533.83 553.675 533.83 553.675C534.686 552.167 535.995 550.969 537.572 550.249C540.067 549.212 540.277 545.389 540.277 545.389C540.585 536.366 545.89 535.67 545.89 535.67C550.166 535.305 553.43 536.067 555.941 537.46L556.703 537.525C560.38 537.816 564.802 538.148 569.661 538.472C583.179 539.363 586.395 548.127 586.395 548.127C586.395 548.127 588.055 549.989 585.876 552.014C583.698 554.039 569.751 552.014 569.159 551.966C570.222 552.089 571.298 552.015 572.334 551.747C570.139 551.666 567.118 551.585 564.543 551.585H563.919C564.081 552.95 564.16 554.324 564.154 555.699C564.154 558.299 556.986 559.96 556.986 559.96L535.158 579.398C535.158 579.398 521.438 585.521 512.707 594.341C503.976 603.161 496.29 595.589 496.29 595.589C487.049 593.305 460.459 561.167 460.434 561.134C460.434 562.074 459.875 593.329 458.814 599.606C458.772 599.924 458.693 600.237 458.579 600.537C457.332 603.234 459.001 610.605 459.721 613.723C460.181 616.323 460.358 618.965 460.248 621.604C460.248 621.604 470.218 659.67 469.392 663.015C468.566 666.36 474.794 681.911 474.794 681.911V694.87L473.709 694.821C473.85 695.028 473.979 695.241 474.098 695.461L474.171 695.599C474.171 695.599 467.521 697.049 463.05 696.635C458.579 696.222 450.901 700.086 450.901 700.086C450.901 700.086 448.301 701.309 440.299 701.827C432.297 702.346 432.297 698.296 432.297 698.296C433.212 692.78 445.855 690.934 446.244 690.885C447.265 690.245 448.22 689.54 449.006 688.941L449.168 688.812C449.114 688.691 449.068 688.566 449.03 688.439C447.678 682.94 455.162 680.55 455.162 680.55V679.181C450.302 676.695 449.338 659.565 449.338 659.565C449.338 659.565 442.049 638.393 441.028 634.87C440.008 631.347 441.028 626.042 441.028 626.042L440.299 621.482C440.299 621.482 438.736 618.364 438.736 617.74C438.532 616.16 437.924 614.659 436.971 613.383C435.829 612.03 438.218 608.815 438.218 608.815L436.136 603.421V597.508L431.277 576.021C431.277 576.021 426.182 551.002 427.948 542.814C429.714 534.625 425.866 530.462 425.866 530.462C426.213 530.644 426.57 530.807 426.936 530.948C426.449 529.824 426.03 528.672 425.68 527.498L414.746 528.858V529.012H410.802C410.802 529.012 412.049 513.624 412.049 507.428C412.049 501.232 407.886 478.983 407.886 478.983C407.886 478.983 405.942 457.155 407.813 456.532ZM456.352 438.575C456.352 439.183 456.409 439.815 456.449 440.454L456.668 440.795L457.073 440.446L457.567 441.216L457.713 441.297C458.782 440.746 459.333 437.595 460.102 438.268L460.207 438.357C460.378 438.17 460.548 438.106 460.726 438.268L460.888 438.413C460.888 438.17 460.888 437.927 460.888 437.685C459.407 438.073 457.883 438.269 456.352 438.268C456.344 438.365 456.352 438.47 456.352 438.575ZM419.986 510.238H419.751L420.14 511.25C420.092 510.918 420.043 510.578 419.986 510.238V510.238ZM459.908 693.906L461.398 693.525L460.588 693.396L459.835 693.89L459.746 693.947L459.908 693.906ZM444.681 691.727C445.175 691.46 445.677 691.168 446.163 690.861C445.655 691.125 445.16 691.414 444.681 691.727V691.727Z" fill="url(#paint0_linear)"/>
<path d="M414.608 494.931L424.417 520.492H422.035L431.261 527.846L414.608 529.92V494.931Z" fill="#F86D70"/>
<path opacity="0.1" d="M414.608 494.931L424.417 520.492L426.887 519.828L431.261 527.846L414.608 529.92V494.931Z" fill="black"/>
<path d="M429.989 511.283H414.608L408.963 464.833H429.989V511.283Z" fill="#F86D70"/>
<path opacity="0.1" d="M429.989 511.283H414.608L408.963 464.833H429.989V511.283Z" fill="black"/>
<path d="M460.029 475.832L456.709 475.273L449.079 473.977C449.079 473.977 426.166 468.818 421.42 468.405C418.554 468.03 415.759 467.233 413.126 466.04C411.887 465.505 411.101 465.1 411.101 465.1L419.355 450.027L432.16 440.535C432.16 440.535 440.259 438.81 443.685 434.056C444.449 433.043 444.947 431.854 445.133 430.599C445.318 429.344 445.185 428.062 444.746 426.871C442.656 420.392 457.227 433.059 457.227 433.059C457.227 433.059 457.089 436.097 457.227 439.968C457.227 440.729 457.3 441.531 457.356 442.341C457.356 442.876 457.429 443.41 457.486 443.961C457.842 447.8 458.571 451.761 460.013 454.126C463.552 459.941 460.029 475.832 460.029 475.832Z" fill="#FBBEBE"/>
<path opacity="0.1" d="M457.243 440.325H456.919C456.336 440.325 455.866 439.094 455.299 439.029C450.739 438.592 446.576 437.636 443.685 434.413C444.447 433.398 444.944 432.208 445.129 430.952C445.315 429.695 445.183 428.413 444.746 427.221C442.656 420.741 457.227 433.417 457.227 433.417C457.227 433.417 457.073 436.446 457.243 440.325Z" fill="black"/>
<path d="M474.981 421.956C474.982 424.287 474.523 426.597 473.631 428.751C472.739 430.905 471.432 432.863 469.783 434.512C468.134 436.161 466.177 437.468 464.022 438.36C461.868 439.252 459.559 439.71 457.227 439.709C456.644 439.709 456.069 439.709 455.494 439.62C452.072 439.285 448.822 437.963 446.138 435.816C443.453 433.669 441.45 430.788 440.371 427.524C439.291 424.26 439.183 420.754 440.059 417.429C440.934 414.105 442.756 411.106 445.303 408.798C447.85 406.489 451.013 404.969 454.407 404.423C457.801 403.877 461.28 404.328 464.423 405.721C467.565 407.115 470.236 409.391 472.11 412.272C473.984 415.154 474.981 418.518 474.981 421.956V421.956Z" fill="#FBBEBE"/>
<path d="M480.431 395.01C481.015 396.516 480.836 398.193 481.071 399.788C481.938 405.547 487.794 408.997 493.091 411.419C498.388 413.841 504.365 416.684 506.05 422.248C507.896 428.274 503.863 434.3 501.06 439.945C495.601 450.952 494.824 464.98 501.87 475.039C508.131 483.948 519.041 488.168 529.311 491.886C524.365 495.768 518.223 497.81 511.938 497.66C514.295 504.521 522.677 506.796 529.821 508.068C526.071 511.672 520.701 512.992 515.558 513.786C511.808 514.361 507.961 514.742 504.219 513.989C500.477 513.235 496.93 511.202 495.002 507.914C493.382 505.104 492.831 501.273 489.908 499.855C488.587 499.338 487.165 499.133 485.753 499.256L473.604 499.378C469.821 499.378 465.342 499.086 463.39 495.854C462.67 494.474 462.293 492.94 462.289 491.384C461.763 483.414 463.293 474.999 460.013 467.717C459.025 465.531 465.367 462.048 464.703 459.731C462.419 451.737 461.844 445.436 461.868 437.118C461.868 430.687 457.68 425.139 454.222 419.705C450.764 414.27 447.872 407.41 450.602 401.578C453.679 395.067 476.795 385.623 480.431 395.01Z" fill="#3F3D56"/>
<path d="M464.257 691.565L461.163 693.614L460.685 693.93L460.596 693.995L456.927 696.425L448.358 697.875L440.826 697.356C440.826 697.356 438.655 692.813 442.065 692.918C443.156 692.861 444.22 692.557 445.175 692.027C445.329 691.954 445.491 691.873 445.645 691.784C446.139 691.525 446.633 691.233 447.119 690.926C448.131 690.286 449.087 689.597 449.857 688.998C450.99 688.131 451.744 687.459 451.744 687.459L464.257 691.565Z" fill="#FBBEBE"/>
<path opacity="0.1" d="M461.123 693.614L460.645 693.93L460.556 693.995L456.887 696.425L448.318 697.875L440.785 697.356C440.785 697.356 438.615 692.813 442.025 692.918C443.115 692.861 444.179 692.556 445.135 692.027C444.535 692.497 444.033 692.999 443.985 693.436C443.847 694.586 449.557 696.676 449.557 696.676L457.648 694.57C457.648 694.57 459.017 694.181 460.888 693.695L461.066 693.647L461.123 693.614Z" fill="black"/>
<path d="M474.891 695.591C474.891 695.591 468.29 697.041 463.852 696.628C459.414 696.215 451.776 700.054 451.776 700.054C451.776 700.054 449.192 701.268 441.247 701.787C433.301 702.305 433.301 698.28 433.301 698.28C434.209 692.789 446.763 690.99 447.151 690.901C446.997 690.982 446.341 691.323 445.677 691.76C444.786 692.343 443.822 693.104 443.75 693.72C443.612 694.878 449.322 696.96 449.322 696.96L457.373 694.838C457.373 694.838 458.741 694.449 460.612 693.963L460.791 693.914C463.562 693.165 466.378 692.588 469.222 692.189C472.688 691.817 474.462 694.773 474.827 695.429C474.853 695.481 474.875 695.535 474.891 695.591V695.591Z" fill="#3F3D56"/>
<path d="M578.935 549.949L575.428 552.63L572.885 552.533H572.399C570.22 552.46 567.216 552.379 564.664 552.371C563.015 552.301 561.363 552.393 559.732 552.646C557.982 553.27 554.872 542.636 554.872 542.636L558.387 541.826L559.554 541.559L560.364 541.364L563.223 540.692L571.889 541.672L578.004 545.543L578.935 549.949Z" fill="#FBBEBE"/>
<path d="M585.852 552.784C583.73 554.752 569.832 552.784 569.248 552.735C570.303 552.858 571.371 552.784 572.399 552.517C572.908 552.425 573.39 552.222 573.811 551.921C574.231 551.619 574.579 551.228 574.829 550.775C577.097 544.482 565.847 541.793 565.847 541.793L560.606 541.566L559.594 541.526L546.854 540.967L546.238 537.46C546.238 537.46 550.377 537.857 556.873 538.375C560.525 538.667 564.972 538.999 569.775 539.315C583.195 540.206 586.387 548.92 586.387 548.92C586.387 548.92 588.014 550.775 585.852 552.784Z" fill="#3F3D56"/>
<path d="M429.981 400.768C429.895 400.957 429.792 401.139 429.673 401.31L426.579 405.854L418.528 406.664L418.439 403.473L417.087 355.46C417.087 355.46 411.514 323.257 422.044 325.12C432.573 326.983 425.964 355.46 425.964 355.46C425.964 355.46 427.162 369.918 428.005 374.251C428.823 378.446 432.492 395.471 429.981 400.768Z" fill="#FBBEBE"/>
<path d="M448.05 520.014L445.758 523.942L440.631 532.714C440.631 532.714 431.333 536.115 428.952 533.523C427.648 532.106 426.239 527.166 425.251 522.994C424.441 519.625 423.898 516.782 423.898 516.782L448.05 520.014Z" fill="#FBBEBE"/>
<path opacity="0.1" d="M448.05 520.014L445.758 523.942C445.617 523.813 445.486 523.672 445.37 523.521C442.778 520.216 431.366 522.824 425.251 523.027C424.441 519.657 423.898 516.814 423.898 516.814L448.05 520.014Z" fill="black"/>
<path opacity="0.1" d="M564.664 552.355C563.015 552.285 561.363 552.377 559.732 552.63C557.982 553.254 554.872 542.619 554.872 542.619L559.57 541.494L546.83 540.935L546.214 537.428C546.214 537.428 550.353 537.825 556.848 538.343C558.194 539.111 559.393 540.112 560.388 541.299L560.582 541.534C563.279 544.895 564.284 549.188 564.664 552.355Z" fill="black"/>
<path opacity="0.1" d="M464.257 691.565L460.685 693.93C455.356 692.974 450.488 691.46 449.913 689.071C449.91 689.03 449.91 688.989 449.913 688.949C451.047 688.082 451.8 687.41 451.8 687.41L464.257 691.565Z" fill="black"/>
<path opacity="0.1" d="M474.819 695.453C470.112 695.227 465.422 694.724 460.774 693.946C463.551 693.185 466.372 692.598 469.222 692.189C472.68 691.816 474.454 694.772 474.819 695.453Z" fill="black"/>
<path d="M564.275 556.453C564.275 559.036 557.156 560.68 557.156 560.68L535.474 579.981C535.474 579.981 521.867 586.039 513.185 594.851C504.503 603.663 496.873 596.091 496.873 596.091C487.688 593.815 461.236 561.822 461.236 561.822C461.236 561.822 460.621 598.358 459.381 601.039C458.142 603.72 459.794 611.058 460.515 614.152C460.97 616.742 461.144 619.373 461.034 622C461.034 622 470.939 659.881 470.113 663.185C469.287 666.49 475.483 681.968 475.483 681.968V694.87C475.483 694.87 451.225 693.938 449.889 688.471C448.553 683.004 455.972 680.623 455.972 680.623V679.287C451.112 676.808 450.197 659.775 450.197 659.775C450.197 659.775 442.964 638.717 441.935 635.21C440.907 631.703 441.935 626.431 441.935 626.431L441.215 621.895C441.215 621.895 439.668 618.801 439.668 618.177C439.464 616.606 438.859 615.114 437.91 613.844C436.776 612.5 439.149 609.301 439.149 609.301L437.084 603.931V598.051L432.224 576.685C432.224 576.685 427.162 551.804 428.92 543.656C430.677 535.508 426.855 531.369 426.855 531.369C435.14 535.718 439.319 526.056 440.688 521.901C441.036 520.824 441.207 520.119 441.207 520.119C441.207 520.119 452.586 515.924 463.18 516.879C465.331 517.058 467.451 517.507 469.489 518.216C481.258 522.452 483.112 539.995 483.112 539.995L493.536 555.894C498.906 570.035 506.957 571.485 506.957 571.485C506.957 571.485 525.844 558.785 526.395 558.17C526.946 557.554 534.138 554.452 534.138 554.452C534.987 552.952 536.288 551.758 537.856 551.042C540.334 550.014 540.536 546.183 540.536 546.183C540.844 537.201 546.109 536.463 546.109 536.463C564.381 535.014 564.275 553.869 564.275 556.453Z" fill="#3F3D56"/>
<path d="M459.195 505.978H448.05V471.402H459.195V505.978Z" fill="#F86D70"/>
<path opacity="0.1" d="M459.195 505.978H448.05V471.402H459.195V505.978Z" fill="black"/>
<path opacity="0.1" d="M429.989 400.687C429.991 400.714 429.991 400.741 429.989 400.768C429.903 400.958 429.8 401.139 429.681 401.311L426.587 405.854L418.537 406.664L418.447 403.473C420.958 403.271 426.676 402.582 429.989 400.687Z" fill="black"/>
<path d="M429.673 401.311C429.673 401.311 429.26 419.477 433.804 421.956C438.347 424.434 440.113 437.344 440.113 437.344C440.113 437.344 426.344 446.399 423.275 450.376C420.205 454.353 413.159 463.853 414.608 466.129C416.058 468.405 411.093 478.716 411.093 478.716C411.093 478.716 420.181 497.295 418.115 504.317C416.05 511.34 415.848 529.919 415.848 529.919H411.919C411.919 529.919 413.159 514.636 413.159 508.448C413.159 502.26 409.036 480.165 409.036 480.165C409.036 480.165 407.173 458.484 409.036 457.868C410.899 457.252 421.833 448.578 422.659 444.658C423.485 440.738 416.876 404.161 416.876 404.161C416.876 404.161 425.34 403.805 429.673 401.311Z" fill="#F86D70"/>
<path opacity="0.1" d="M459.406 468.195C459.029 470.722 458.109 473.137 456.709 475.274L449.079 473.978C449.079 473.978 426.166 468.819 421.42 468.406C418.554 468.031 415.759 467.234 413.126 466.041C414.94 459.609 418.484 453.799 423.372 449.243L426.288 446.546C428.428 444.564 430.74 442.775 433.196 441.2C435.653 439.62 438.247 438.264 440.947 437.15C440.607 437.434 416.568 457.966 421.833 461.991C427.098 466.016 441.271 456.208 441.271 456.208L457.389 442.366L457.972 441.856L458.903 443.306C458.431 443.506 457.968 443.731 457.518 443.978C452.021 446.988 447.943 452.057 446.179 458.071C442.875 469.216 459.406 468.195 459.406 468.195Z" fill="black"/>
<path d="M464.362 519.811C464.362 519.811 449.087 528.275 445.378 523.521C444.568 522.476 442.859 522.022 440.729 521.901C441.077 520.824 441.247 520.119 441.247 520.119C441.247 520.119 452.627 515.924 463.22 516.879C463.917 518.677 464.362 519.811 464.362 519.811Z" fill="#444053"/>
<path d="M457.332 441.872L440.631 456.216C440.631 456.216 426.514 466.049 421.193 461.999C415.872 457.95 440.316 437.159 440.316 437.159C434.906 439.385 429.939 442.562 425.648 446.538L422.74 449.235C415.094 456.314 413.369 456.314 413.11 466.737C413.045 469.297 413.92 472.99 414.592 473.654C417.071 476.084 418.804 493.724 418.423 495.79C418.043 497.855 423.056 515.681 421.436 520.638C419.816 525.595 441.684 518.16 445.386 522.906C449.087 527.652 464.362 519.188 464.362 519.188C464.362 519.188 455.899 497.515 453.833 496.065C451.768 494.615 449.29 483.479 453.833 478.311C458.377 473.144 458.782 468.195 458.782 468.195C458.782 468.195 442.259 469.224 445.572 458.079C446.504 454.851 448.121 451.862 450.312 449.316C452.504 446.769 455.219 444.725 458.272 443.322L457.332 441.872Z" fill="#E8E8F0"/>
<path opacity="0.1" d="M435.043 478.416C435.043 478.416 441.449 490.492 449.735 493.635C450.002 493.732 450.262 493.821 450.545 493.902C459.195 496.534 434.395 482.134 435.043 478.416Z" fill="black"/>
<path d="M524.637 371.586C524.637 371.586 521.543 379.427 519.065 382.115C516.587 384.804 498.217 411.646 498.217 411.646L496.662 414.885L495.326 417.655L483.558 416.416L482.748 411.67C482.748 411.67 482.91 411.459 483.201 411.119C484.384 409.694 487.607 405.895 489.77 404.235C492.451 402.169 497.821 395.325 497.821 395.325C497.821 395.325 514.538 377.985 515.777 373.239C517.016 368.492 533.741 340.032 537.45 344.948C541.16 349.864 524.637 371.586 524.637 371.586Z" fill="#FBBEBE"/>
<g opacity="0.1">
<path opacity="0.1" d="M490.491 499.247C491.903 499.125 493.325 499.33 494.646 499.846C497.561 501.272 498.112 505.094 499.732 507.945C501.627 511.226 505.24 513.259 508.957 514.012C509.696 514.158 510.442 514.263 511.193 514.328C508.824 514.555 506.436 514.449 504.098 514.012C500.38 513.259 496.768 511.226 494.873 507.945C493.253 505.127 492.702 501.304 489.786 499.846C489.021 499.501 488.195 499.309 487.356 499.279L490.491 499.247Z" fill="black"/>
<path opacity="0.1" d="M461.722 437.117C461.722 430.678 457.535 425.13 454.084 419.696C450.634 414.261 447.735 407.401 450.464 401.569C452.797 396.588 466.857 389.906 474.973 391.235C467.027 392.255 457.235 397.487 455.324 401.569C452.594 407.401 455.494 414.261 458.944 419.696C462.394 425.13 466.598 430.678 466.582 437.117C466.582 445.427 467.141 451.696 469.425 459.722C470.081 462.031 463.755 465.521 464.727 467.708C468.015 474.998 466.476 483.413 467.003 491.383C467.014 492.937 467.394 494.467 468.112 495.845C469.732 498.518 473.053 499.207 476.285 499.344H473.458C469.684 499.344 465.205 499.061 463.253 495.821C462.535 494.442 462.154 492.913 462.143 491.358C461.617 483.389 463.156 474.965 459.867 467.684C458.879 465.497 465.221 462.014 464.565 459.698C462.281 451.728 461.706 445.427 461.722 437.117Z" fill="black"/>
</g>
<path opacity="0.1" d="M496.662 414.852L495.326 417.622L483.558 416.383L482.748 411.637C482.748 411.637 482.91 411.426 483.201 411.086C484.457 411.71 493.86 416.221 496.662 414.852Z" fill="black"/>
<path opacity="0.1" d="M453.21 445.922C453.21 445.922 456.101 441.378 457.753 442.617C459.406 443.856 460.045 438.9 460.993 439.726C461.941 440.552 464.703 442.852 465.853 439.629C466.752 437.069 476.536 420.887 480.504 414.367L482.165 411.646C482.165 411.646 493.309 417.226 495.99 415.363V419.291L493.722 419.494L481.573 442.172C481.573 442.172 477.751 448.246 478.01 450.368C478.269 452.49 473.11 461.78 472.284 462.404C471.457 463.028 462.564 473.346 462.564 473.346C462.564 473.346 458.021 495.635 461.949 501.831C465.877 508.027 472.68 512.563 472.68 512.563C472.68 512.563 474.73 518.556 474.43 519.172C474.13 519.787 476.811 522.476 475.572 523.303C474.333 524.129 472.68 529.912 472.68 529.912C472.68 529.912 466.897 520.622 463.771 519.172C460.645 517.722 456.644 498.737 456.644 498.737C456.644 498.737 455.502 487.536 455.413 480.311C455.324 473.087 455.688 445.922 453.21 445.922Z" fill="black"/>
<path d="M453.833 445.922C453.833 445.922 456.717 441.378 458.369 442.617C460.021 443.856 460.669 438.9 461.609 439.726C462.548 440.552 465.31 442.852 466.468 439.629C467.375 437.069 477.159 420.887 481.12 414.367C482.148 412.69 482.78 411.646 482.78 411.646C482.78 411.646 493.925 417.226 496.614 415.363V419.291L494.338 419.494L482.189 442.172C482.189 442.172 478.358 448.246 478.625 450.368C478.893 452.49 473.766 461.78 472.899 462.404C472.032 463.028 463.18 473.346 463.18 473.346C463.18 473.346 458.636 495.635 462.556 501.831C464.623 504.944 467.143 507.731 470.032 510.101C472.456 512.1 474.162 514.836 474.891 517.892C475.032 518.309 475.082 518.751 475.037 519.188C474.738 519.812 477.418 522.493 476.179 523.319C474.94 524.145 473.296 529.928 473.296 529.928C473.296 529.928 467.513 520.638 464.387 519.188C461.26 517.738 457.251 498.754 457.251 498.754C457.251 498.754 456.117 487.552 456.02 480.328C455.923 473.103 456.263 445.922 453.833 445.922Z" fill="#F86D70"/>
<path opacity="0.1" d="M482.116 539.874C482.116 539.874 473.442 541.493 469.967 544.004C466.493 546.515 483.177 540.084 483.177 540.084L482.116 539.874Z" fill="black"/>
<path opacity="0.1" d="M461.26 561.823C461.26 561.823 452.213 569.355 453.833 576.167C455.453 582.978 459.632 600.116 459.632 600.116L461.26 561.823Z" fill="black"/>
<path opacity="0.1" d="M540.382 547.316C540.382 547.316 553.131 548.709 552.305 550.362C551.479 552.014 540.382 548.839 540.382 548.839V547.316Z" fill="black"/>
<path opacity="0.1" d="M442.494 610.021C442.494 610.021 441.684 611.058 446.414 610.021C451.144 608.984 447.654 605.817 447.654 605.817L442.494 610.021Z" fill="black"/>
<path opacity="0.1" d="M444.114 624.268C444.114 624.268 450.594 625.297 454.068 624.268C457.543 623.24 444.114 624.268 444.114 624.268Z" fill="black"/>
<path opacity="0.1" d="M457.446 679.991C457.446 679.991 458.579 678.752 464.257 681.02C469.935 683.288 472.203 683.393 473.855 682.64C475.507 681.886 457.446 679.991 457.446 679.991Z" fill="black"/>
<path opacity="0.1" d="M451.144 545.543L459.195 556.744C459.195 556.744 454.862 546.952 451.144 545.543Z" fill="black"/>
<path opacity="0.1" d="M466.792 442.601C466.792 442.601 467.14 446.318 472.332 447.76C477.524 449.202 478.512 450.384 478.512 450.384" fill="black"/>
<path opacity="0.1" d="M480.286 415.646C480.286 415.646 487.138 420.506 494.289 419.477Z" fill="black"/>
<path opacity="0.1" d="M475.07 519.706C475.07 519.706 473.069 520.961 468.266 515.462Z" fill="black"/>
<path opacity="0.1" d="M425.186 461.472C424.992 460.468 425.688 459.536 426.344 458.751L427.689 457.131C427.952 456.799 428.247 456.495 428.572 456.224C429.382 455.6 430.418 455.414 431.261 454.855" fill="black"/>
<path d="M891.515 695.879C879.088 695.879 869.015 682.693 869.015 666.429C869.015 650.164 879.088 636.979 891.515 636.979C903.941 636.979 914.015 650.164 914.015 666.429C914.015 682.693 903.941 695.879 891.515 695.879Z" fill="#3F3D56"/>
<path d="M891.515 659.879C879.088 659.879 869.015 646.693 869.015 630.429C869.015 614.164 879.088 600.979 891.515 600.979C903.941 600.979 914.015 614.164 914.015 630.429C914.015 646.693 903.941 659.879 891.515 659.879Z" fill="#3F3D56"/>
<path d="M891.515 623.879C879.088 623.879 869.015 610.693 869.015 594.429C869.015 578.164 879.088 564.979 891.515 564.979C903.941 564.979 914.015 578.164 914.015 594.429C914.015 610.693 903.941 623.879 891.515 623.879Z" fill="#3F3D56"/>
<path d="M891.515 587.879C879.088 587.879 869.015 574.693 869.015 558.429C869.015 542.164 879.088 528.979 891.515 528.979C903.941 528.979 914.015 542.164 914.015 558.429C914.015 574.693 903.941 587.879 891.515 587.879Z" fill="#3F3D56"/>
<path d="M891.515 551.879C879.088 551.879 869.015 538.693 869.015 522.429C869.015 506.164 879.088 492.979 891.515 492.979C903.941 492.979 914.015 506.164 914.015 522.429C914.015 538.693 903.941 551.879 891.515 551.879Z" fill="#3F3D56"/>
<path d="M891.515 515.879C879.088 515.879 869.015 502.693 869.015 486.429C869.015 470.164 879.088 456.979 891.515 456.979C903.941 456.979 914.015 470.164 914.015 486.429C914.015 502.693 903.941 515.879 891.515 515.879Z" fill="#3F3D56"/>
<path d="M891.515 479.879C879.088 479.879 869.015 466.693 869.015 450.429C869.015 434.164 879.088 420.979 891.515 420.979C903.941 420.979 914.015 434.164 914.015 450.429C914.015 466.693 903.941 479.879 891.515 479.879Z" fill="#3F3D56"/>
<path d="M704.515 691.788C697.611 691.788 692.015 684.464 692.015 675.428C692.015 666.393 697.611 659.068 704.515 659.068C711.418 659.068 717.015 666.393 717.015 675.428C717.015 684.464 711.418 691.788 704.515 691.788Z" fill="#3F3D56"/>
<path d="M704.515 671.788C697.611 671.788 692.015 664.464 692.015 655.428C692.015 646.393 697.611 639.068 704.515 639.068C711.418 639.068 717.015 646.393 717.015 655.428C717.015 664.464 711.418 671.788 704.515 671.788Z" fill="#3F3D56"/>
<path d="M704.515 651.788C697.611 651.788 692.015 644.464 692.015 635.428C692.015 626.393 697.611 619.068 704.515 619.068C711.418 619.068 717.015 626.393 717.015 635.428C717.015 644.464 711.418 651.788 704.515 651.788Z" fill="#3F3D56"/>
<path d="M704.515 631.788C697.611 631.788 692.015 624.464 692.015 615.428C692.015 606.393 697.611 599.068 704.515 599.068C711.418 599.068 717.015 606.393 717.015 615.428C717.015 624.464 711.418 631.788 704.515 631.788Z" fill="#3F3D56"/>
<path d="M704.515 611.788C697.611 611.788 692.015 604.464 692.015 595.428C692.015 586.393 697.611 579.068 704.515 579.068C711.418 579.068 717.015 586.393 717.015 595.428C717.015 604.464 711.418 611.788 704.515 611.788Z" fill="#3F3D56"/>
<path d="M704.515 591.788C697.611 591.788 692.015 584.464 692.015 575.428C692.015 566.393 697.611 559.068 704.515 559.068C711.418 559.068 717.015 566.393 717.015 575.428C717.015 584.464 711.418 591.788 704.515 591.788Z" fill="#3F3D56"/>
<path d="M704.515 571.788C697.611 571.788 692.015 564.464 692.015 555.428C692.015 546.393 697.611 539.068 704.515 539.068C711.418 539.068 717.015 546.393 717.015 555.428C717.015 564.464 711.418 571.788 704.515 571.788Z" fill="#3F3D56"/>
<path d="M807.285 204.069C804.214 200.155 801.414 196.035 798.905 191.739L858.015 182.029L794.075 182.499C787.944 169.154 784.599 154.698 784.244 140.016C783.89 125.334 786.534 110.734 792.015 97.1088L877.805 141.609L798.705 83.4288C806.117 70.6226 816.087 59.4798 827.994 50.6946C839.9 41.9093 853.488 35.6698 867.911 32.3647C882.334 29.0596 897.283 28.7597 911.827 31.4837C926.371 34.2076 940.198 39.8971 952.447 48.1977C964.697 56.4983 975.105 67.2322 983.026 79.7308C990.946 92.2294 996.208 106.225 998.483 120.846C1000.76 135.466 1000 150.399 996.253 164.714C992.506 179.028 985.852 192.418 976.705 204.049C981.504 210.147 985.631 216.745 989.015 223.729L912.275 263.599L994.085 236.129C999.833 253.114 1001.25 271.264 998.219 288.936C995.185 306.608 987.79 323.245 976.705 337.339C989.207 353.236 996.984 372.33 999.147 392.438C1001.31 412.546 997.77 432.857 988.934 451.049C980.097 469.241 966.32 484.579 949.178 495.31C932.035 506.041 912.219 511.732 891.995 511.732C871.77 511.732 851.954 506.041 834.812 495.31C817.669 484.579 803.892 469.241 795.056 451.049C786.219 432.857 782.68 412.546 784.843 392.438C787.005 372.33 794.782 353.236 807.285 337.339C792.347 318.34 784.226 294.872 784.226 270.704C784.226 246.535 792.347 223.068 807.285 204.069V204.069Z" fill="#4285F4"/>
<path opacity="0.1" d="M999.775 270.709C999.811 294.883 991.682 318.362 976.705 337.339C989.207 353.235 996.984 372.329 999.147 392.438C1001.31 412.546 997.77 432.857 988.934 451.049C980.097 469.24 966.32 484.579 949.178 495.31C932.035 506.041 912.219 511.731 891.995 511.731C871.771 511.731 851.954 506.041 834.812 495.31C817.669 484.579 803.892 469.24 795.056 451.049C786.219 432.857 782.68 412.546 784.843 392.438C787.005 372.329 794.782 353.235 807.285 337.339C792.845 318.999 999.775 258.609 999.775 270.709Z" fill="black"/>
<path d="M760.735 374.039C762.785 371.433 764.65 368.686 766.315 365.819L726.905 359.339L769.535 359.659C773.622 350.761 775.852 341.123 776.087 331.335C776.323 321.546 774.559 311.812 770.905 302.729L713.715 332.429L766.455 293.629C761.51 285.099 754.862 277.678 746.925 271.829C738.988 265.979 729.932 261.825 720.321 259.626C710.71 257.427 700.749 257.23 691.058 259.046C681.368 260.863 672.154 264.655 663.992 270.185C655.83 275.716 648.893 282.867 643.614 291.194C638.335 299.521 634.826 308.846 633.305 318.588C631.785 328.329 632.286 338.28 634.777 347.819C637.268 357.359 641.696 366.284 647.785 374.039C644.59 378.097 641.844 382.489 639.595 387.139L690.755 413.719L636.205 395.429C632.368 406.752 631.418 418.853 633.44 430.637C635.462 442.42 640.393 453.512 647.785 462.909C639.457 473.509 634.28 486.238 632.844 499.641C631.408 513.045 633.771 526.582 639.664 538.706C645.557 550.829 654.742 561.051 666.169 568.202C677.596 575.353 690.805 579.145 704.285 579.145C717.765 579.145 730.973 575.353 742.4 568.202C753.827 561.051 763.012 550.829 768.905 538.706C774.798 526.582 777.162 513.045 775.726 499.641C774.29 486.238 769.112 473.509 760.785 462.909C770.741 450.241 776.154 434.596 776.154 418.484C776.154 402.371 770.741 386.726 760.785 374.059L760.735 374.039Z" fill="#4285F4"/>
<path opacity="0.1" d="M632.405 418.428C632.382 434.548 637.801 450.203 647.785 462.858C639.457 473.459 634.279 486.188 632.844 499.591C631.408 512.995 633.771 526.532 639.664 538.656C645.557 550.779 654.742 561.001 666.169 568.152C677.596 575.303 690.805 579.095 704.285 579.095C717.765 579.095 730.973 575.303 742.4 568.152C753.827 561.001 763.012 550.779 768.905 538.656C774.798 526.532 777.162 512.995 775.726 499.591C774.29 486.188 769.112 473.459 760.785 462.858C770.365 450.658 632.405 410.428 632.405 418.428Z" fill="black"/>
<path d="M1162.01 716.869C1162.01 716.869 1041.49 599.869 999.775 639.229C958.055 678.589 781.905 689.059 765.675 686.739C749.445 684.419 654.425 679.789 601.115 685.579C547.805 691.369 58.7648 669.359 39.0648 716.869H1162.01Z" fill="#5D5B6A"/>
<path opacity="0.1" d="M380.935 144.428H435.135C433.826 142.779 433.121 140.733 433.135 138.628C433.138 137.439 433.369 136.261 433.815 135.158H408.815C406.356 135.158 403.998 134.182 402.26 132.443C400.521 130.705 399.545 128.347 399.545 125.888C399.545 123.43 400.521 121.072 402.26 119.333C403.998 117.595 406.356 116.618 408.815 116.618H558.245C560.701 116.626 563.054 117.605 564.791 119.342C566.528 121.079 567.507 123.432 567.515 125.888C567.514 127.079 567.28 128.258 566.825 129.358H591.825C594.232 129.437 596.514 130.449 598.189 132.18C599.864 133.911 600.8 136.225 600.8 138.633C600.8 141.042 599.864 143.356 598.189 145.087C596.514 146.817 594.232 147.829 591.825 147.908H537.625C538.933 149.553 539.639 151.596 539.625 153.698C539.617 156.154 538.638 158.508 536.901 160.244C535.164 161.981 532.811 162.96 530.355 162.968H380.935C378.476 162.968 376.118 161.991 374.38 160.253C372.641 158.515 371.665 156.157 371.665 153.698C371.665 151.24 372.641 148.882 374.38 147.143C376.118 145.405 378.476 144.428 380.935 144.428Z" fill="#4285F4"/>
<path opacity="0.1" d="M625.095 221.269H656.845C656.069 220.309 655.645 219.113 655.645 217.879C655.653 217.193 655.789 216.515 656.045 215.879H641.385C639.945 215.879 638.564 215.306 637.545 214.288C636.527 213.27 635.955 211.889 635.955 210.449C635.955 209.008 636.527 207.627 637.545 206.609C638.564 205.591 639.945 205.019 641.385 205.019H729.015C730.453 205.024 731.831 205.598 732.849 206.615C733.866 207.632 734.44 209.01 734.445 210.449C734.438 211.135 734.299 211.814 734.035 212.449H748.655C750.095 212.449 751.476 213.021 752.494 214.039C753.513 215.057 754.085 216.438 754.085 217.879C754.085 219.319 753.513 220.7 752.494 221.718C751.476 222.736 750.095 223.309 748.655 223.309H716.905C717.681 224.268 718.105 225.464 718.105 226.699C718.102 228.139 717.53 229.519 716.512 230.539C715.495 231.558 714.115 232.133 712.675 232.139H625.095C623.694 232.078 622.37 231.48 621.4 230.467C620.43 229.454 619.888 228.106 619.888 226.704C619.888 225.301 620.43 223.953 621.4 222.94C622.37 221.928 623.694 221.329 625.095 221.269V221.269Z" fill="#4285F4"/>
<path d="M344.627 251.135C346.398 259.376 341.857 268.539 334.248 272.129C331.064 273.631 327.488 274.222 324.375 275.878C317.617 279.48 314.397 287.241 311.68 294.399C308.561 302.633 305.386 311.345 306.824 320.028C307.765 325.562 310.488 330.626 311.825 336.081C312.943 340.648 313.053 345.403 312.152 350.019C311.673 352.469 310.828 354.986 308.981 356.659C306.306 359.079 302.356 359.135 298.769 359.461C291.166 360.226 283.85 362.784 277.423 366.923C270.999 371.062 265.648 376.668 261.807 383.275" stroke="url(#paint1_linear)" stroke-width="2" stroke-miterlimit="10"/>
<path d="M343.871 251.069C345.642 259.311 341.101 268.473 333.492 272.064C330.308 273.565 326.733 274.156 323.619 275.812C316.861 279.414 313.641 287.175 310.924 294.333C307.805 302.567 304.63 311.279 306.068 319.962C307.009 325.496 309.732 330.56 311.072 336.016C312.187 340.582 312.297 345.337 311.396 349.953C310.917 352.403 310.072 354.92 308.225 356.593C305.55 359.013 301.6 359.069 298.013 359.395C290.41 360.16 283.095 362.718 276.668 366.857C270.243 370.997 264.892 376.602 261.051 383.209" stroke="#535461" stroke-width="2" stroke-miterlimit="10"/>
<path d="M255.541 182.924C260.893 191.934 266.42 201.671 266.03 212.15C265.424 228.276 251.467 240.287 244.383 254.801C241.322 261.197 239.584 268.146 239.269 275.23C238.955 282.315 240.071 289.39 242.555 296.032C244.873 302.065 248.335 308.154 247.287 314.52C246.648 318.406 244.381 321.787 242.49 325.247C237.836 333.917 235.291 343.565 235.064 353.405C234.837 363.244 236.932 372.999 241.179 381.877" stroke="url(#paint2_linear)" stroke-width="2" stroke-miterlimit="10"/>
<path d="M254.785 182.858C260.138 191.868 265.665 201.605 265.274 212.084C264.669 228.21 250.711 240.222 243.627 254.735C240.564 261.131 238.825 268.079 238.511 275.163C238.193 282.248 239.31 289.323 241.793 295.966C244.112 301.999 247.571 308.087 246.523 314.453C245.886 318.34 243.619 321.721 241.729 325.181C237.074 333.851 234.529 343.499 234.302 353.338C234.075 363.178 236.17 372.932 240.417 381.811" stroke="#535461" stroke-width="2" stroke-miterlimit="10"/>
<path d="M163.261 251.91L158.214 275.67C157.548 278.829 156.926 282.284 158.382 285.152C159.781 287.872 162.717 289.368 164.945 291.485C172.169 298.417 170.414 310.365 166.914 319.758C163.414 329.154 158.612 339.154 161.532 348.742C162.735 352.7 165.153 356.177 166.898 359.888C169.807 366.324 170.552 373.524 169.024 380.418" stroke="url(#paint3_linear)" stroke-width="2" stroke-miterlimit="10"/>
<path d="M162.554 251.848L157.51 275.608C156.841 278.767 156.219 282.222 157.675 285.089C159.074 287.81 162.013 289.306 164.238 291.422C171.464 298.355 169.707 310.302 166.207 319.695C162.71 329.091 157.904 339.091 160.825 348.68C162.031 352.638 164.446 356.114 166.191 359.826C169.1 366.261 169.845 373.461 168.317 380.355" stroke="#535461" stroke-width="2" stroke-miterlimit="10"/>
<path d="M332.828 255.563L349.436 257.016L347.405 246.794L337.436 245.922L332.828 255.563Z" fill="#F55F44"/>
<path d="M281.807 145.239C278.477 183.306 304.459 241.784 342.525 245.114C380.595 248.445 416.339 195.339 419.667 157.3C421.267 139.018 415.538 120.85 403.743 106.793C391.947 92.7346 375.048 83.9383 356.766 82.3389C338.487 80.7397 320.318 86.4678 306.26 98.264C292.203 110.06 283.406 126.957 281.807 145.239Z" fill="#F55F44"/>
<path d="M337.4 246.339L347.369 247.211L353.473 244.399L331.879 242.51L337.4 246.339Z" fill="#535461"/>
<path d="M247.987 187.081L264.596 188.534L262.562 178.313L252.596 177.441L247.987 187.081Z" fill="#4D8AF0"/>
<path d="M196.967 76.7508C193.636 114.819 219.618 173.296 257.685 176.626C295.752 179.957 331.508 126.888 334.839 88.813C336.438 70.5316 330.712 52.3637 318.914 38.3057C307.119 24.2478 290.222 15.4518 271.941 13.8523C253.659 12.2529 235.492 17.9813 221.432 29.7771C207.374 41.573 198.578 58.4703 196.978 76.7518L196.967 76.7508Z" fill="#4D8AF0"/>
<path d="M252.56 177.859L262.526 178.731L268.631 175.912L247.037 174.023L252.56 177.859Z" fill="#535461"/>
<path opacity="0.1" d="M295.497 31.3953C295.497 31.3953 323.184 49.7192 324.556 81.6286L295.497 31.3953Z" fill="white"/>
<path d="M151.839 256.52L168.456 257.973L166.416 247.758L156.455 246.887L151.839 256.52Z" fill="#3AD29F"/>
<path d="M100.818 146.196C97.4875 184.264 123.47 242.741 161.539 246.072C199.606 249.402 235.35 196.297 238.678 158.257C240.278 139.976 234.549 121.808 222.754 107.75C210.958 93.6921 194.059 84.8959 175.78 83.2967C157.499 81.6972 139.329 87.4254 125.271 99.2212C111.214 111.017 102.417 127.915 100.818 146.196Z" fill="#3AD29F"/>
<path d="M156.42 247.297L166.38 248.168L172.485 245.357L150.896 243.468L156.42 247.297Z" fill="#535461"/>
<path opacity="0.1" d="M199.357 100.842C199.357 100.842 227.044 119.165 228.416 151.075L199.357 100.842Z" fill="white"/>
<path d="M289.186 408.054C289.799 403.153 288.941 401.741 286.961 399.606L232.881 347.444C231.317 345.928 228.941 345.626 227.048 346.704L163.163 383.104C160.715 384.685 158.37 386.589 157.756 391.491L157.693 391.484L149.299 458.6L148.932 461.589C148.689 463.531 149.227 465.49 150.429 467.034C151.63 468.579 153.396 469.583 155.338 469.825L158.223 470.179L213.711 477.118L272.081 484.417C274.023 484.66 275.982 484.121 277.527 482.92C279.071 481.719 280.075 479.953 280.317 478.012L289.068 408.029L289.186 408.054Z" fill="url(#paint4_linear)"/>
<path d="M159.086 391.526L287.751 407.624L279.873 470.618C278.98 477.751 272.54 482.818 265.487 481.937L162.133 469.007C158.807 468.59 155.784 466.855 153.73 464.182C151.676 461.509 150.758 458.118 151.178 454.754L159.086 391.526Z" fill="#4285F4"/>
<path d="M226.7 348.737L164.189 383.716C161.793 385.236 159.5 387.07 158.908 391.796L287.702 408.021C288.293 403.295 287.45 401.931 285.503 399.868L232.415 349.455C230.874 347.993 228.555 347.702 226.7 348.737Z" fill="#4285F4"/>
<g opacity="0.3">
<path opacity="0.3" d="M226.699 348.455L164.129 383.659C161.731 385.188 159.435 387.034 158.84 391.785L287.702 408.021C288.297 403.269 287.454 401.899 285.507 399.826L232.417 349.173C230.876 347.705 228.556 347.413 226.699 348.455Z" fill="black"/>
</g>
<path d="M251.127 420.629C249.108 437.074 234.139 448.768 217.694 446.749C201.249 444.73 189.555 429.761 191.574 413.316C193.593 396.871 208.561 385.177 225.006 387.196C241.451 389.215 253.146 404.184 251.127 420.629ZM234.647 414.299C235.724 410.408 232.965 407.908 229.019 405.982L231.011 400.774L227.827 399.561L225.882 404.627C225.05 404.307 224.191 404.009 223.338 403.69L225.296 398.589L222.129 397.378L220.131 402.577C219.438 402.328 218.761 402.08 218.106 401.831L213.739 400.153L212.44 403.535C212.44 403.535 214.801 404.388 214.739 404.418C216.023 404.912 216.153 405.824 216.029 406.503L213.752 412.432C213.864 412.475 213.973 412.525 214.078 412.583L213.745 412.456L210.556 420.759C210.423 421.049 210.181 421.275 209.882 421.387C209.584 421.498 209.252 421.485 208.962 421.352C208.989 421.404 206.659 420.469 206.659 420.469L204.58 424.011L208.7 425.593C209.485 425.891 210.218 426.19 210.955 426.478L208.936 431.74L212.099 432.951L214.099 427.743C214.936 428.084 215.776 428.416 216.618 428.739L214.626 433.923L217.793 435.133L219.811 429.879C225.252 431.615 229.497 431.705 231.877 426.885C233.795 423.012 232.593 420.482 229.846 418.595C232.04 418.363 233.823 417.161 234.608 414.311L234.647 414.299ZM225.897 423.851C224.392 427.775 217.827 424.75 215.68 423.931L218.357 416.959C220.494 417.784 227.464 419.749 225.889 423.85L225.897 423.851ZM228.201 413.45C226.825 417.029 221.372 414.453 219.582 413.768L222.002 407.446C223.788 408.13 229.625 409.717 228.177 413.447L228.201 413.45Z" fill="#F7931A"/>
<path d="M158.967 391.953L150.806 457.218C150.115 462.752 154.038 467.8 159.572 468.495L268.596 482.121" fill="#629DFD"/>
<path d="M287.702 408.021L279.52 473.48C278.823 479.03 273.83 482.973 268.364 482.29L160.701 468.823" fill="#94BAF7"/>
<defs>
<linearGradient id="paint0_linear" x1="-34264.6" y1="208358" x2="-74264.2" y2="208358" gradientUnits="userSpaceOnUse">
<stop stop-color="#808080" stop-opacity="0.25"/>
<stop offset="0.54" stop-color="#808080" stop-opacity="0.12"/>
<stop offset="1" stop-color="#808080" stop-opacity="0.1"/>
</linearGradient>
<linearGradient id="paint1_linear" x1="-37845.2" y1="75987.7" x2="-45220.8" y2="75342.4" gradientUnits="userSpaceOnUse">
<stop stop-color="#808080" stop-opacity="0.25"/>
<stop offset="0.54" stop-color="#808080" stop-opacity="0.12"/>
<stop offset="1" stop-color="#808080" stop-opacity="0.1"/>
</linearGradient>
<linearGradient id="paint2_linear" x1="-20595.3" y1="103493" x2="-21272" y2="103434" gradientUnits="userSpaceOnUse">
<stop stop-color="#808080" stop-opacity="0.25"/>
<stop offset="0.54" stop-color="#808080" stop-opacity="0.12"/>
<stop offset="1" stop-color="#808080" stop-opacity="0.1"/>
</linearGradient>
<linearGradient id="paint3_linear" x1="-19962.9" y1="73080.2" x2="-20593.5" y2="73025" gradientUnits="userSpaceOnUse">
<stop stop-color="#808080" stop-opacity="0.25"/>
<stop offset="0.54" stop-color="#808080" stop-opacity="0.12"/>
<stop offset="1" stop-color="#808080" stop-opacity="0.1"/>
</linearGradient>
<linearGradient id="paint4_linear" x1="213.844" y1="477.275" x2="229.951" y2="346.089" gradientUnits="userSpaceOnUse">
<stop stop-color="#808080" stop-opacity="0.25"/>
<stop offset="0.54" stop-color="#808080" stop-opacity="0.12"/>
<stop offset="1" stop-color="#808080" stop-opacity="0.1"/>
</linearGradient>
</defs>
</svg>
