<svg width="249" height="283" viewBox="0 0 249 283" fill="none" xmlns="http://www.w3.org/2000/svg">
<g filter="url(#filter0_d)">
<path d="M4 275H245V0H4V275Z" fill="white"/>
<path d="M75.502 86.235C74.1225 86.235 73 88.2125 73 90.643C73 93.073 74.1225 95.0505 75.502 95.0505H169.811C171.191 95.0505 172.314 93.073 172.314 90.643C172.314 88.2125 171.191 86.235 169.811 86.235H75.502Z" fill="#E6E6E6"/>
<path d="M75.502 113.047C74.1225 113.047 73 115.025 73 117.455C73 119.885 74.1225 121.863 75.502 121.863H169.811C171.191 121.863 172.314 119.885 172.314 117.455C172.314 115.025 171.191 113.047 169.811 113.047H75.502Z" fill="#E6E6E6"/>
<path d="M75.502 140.171C74.1225 140.171 73 142.148 73 144.579C73 147.009 74.1225 148.986 75.502 148.986H169.811C171.191 148.986 172.314 147.009 172.314 144.579C172.314 142.148 171.191 140.171 169.811 140.171H75.502Z" fill="#E6E6E6"/>
<path d="M197.591 86C196.422 86 195.301 86.4645 194.475 87.291C193.648 88.1175 193.184 89.2385 193.184 90.4075C193.184 91.5765 193.648 92.6975 194.475 93.5245C195.301 94.351 196.422 94.8155 197.591 94.8155H215.222C216.391 94.8155 217.512 94.351 218.339 93.5245C219.165 92.6975 219.63 91.5765 219.63 90.4075C219.63 89.2385 219.165 88.1175 218.339 87.291C217.512 86.4645 216.391 86 215.222 86H197.591Z" fill="#E6E6E6"/>
<path d="M197.591 112.598C196.422 112.598 195.301 113.063 194.475 113.889C193.648 114.716 193.184 115.837 193.184 117.006C193.184 118.175 193.648 119.296 194.475 120.123C195.301 120.949 196.422 121.414 197.591 121.414H215.222C216.391 121.414 217.512 120.949 218.339 120.123C219.165 119.296 219.63 118.175 219.63 117.006C219.63 115.837 219.165 114.716 218.339 113.889C217.512 113.063 216.391 112.598 215.222 112.598H197.591Z" fill="#E6E6E6"/>
<path d="M197.591 139.197C196.422 139.197 195.301 139.661 194.475 140.488C193.648 141.314 193.184 142.435 193.184 143.604C193.184 144.773 193.648 145.894 194.475 146.721C195.301 147.547 196.422 148.012 197.591 148.012H215.222C216.391 148.012 217.512 147.547 218.339 146.721C219.165 145.894 219.63 144.773 219.63 143.604C219.63 142.435 219.165 141.314 218.339 140.488C217.512 139.661 216.391 139.197 215.222 139.197H197.591Z" fill="#E6E6E6"/>
<path d="M75.502 167C74.1225 167 73 168.978 73 171.408C73 173.838 74.1225 175.816 75.502 175.816H169.811C171.191 175.816 172.314 173.838 172.314 171.408C172.314 168.978 171.191 167 169.811 167H75.502Z" fill="#E6E6E6"/>
<path d="M75.502 194C74.1225 194 73 195.978 73 198.408C73 200.838 74.1225 202.816 75.502 202.816H169.811C171.191 202.816 172.314 200.838 172.314 198.408C172.314 195.978 171.191 194 169.811 194H75.502Z" fill="#E6E6E6"/>
<path d="M197.408 167C196.239 167 195.118 167.465 194.291 168.291C193.465 169.118 193 170.239 193 171.408C193 172.577 193.465 173.698 194.291 174.525C195.118 175.351 196.239 175.816 197.408 175.816H215.038C216.207 175.816 217.328 175.351 218.155 174.525C218.981 173.698 219.446 172.577 219.446 171.408C219.446 170.239 218.981 169.118 218.155 168.291C217.328 167.465 216.207 167 215.038 167H197.408Z" fill="#E6E6E6"/>
<path d="M197.408 194C196.239 194 195.118 194.465 194.291 195.291C193.465 196.118 193 197.239 193 198.408C193 199.577 193.465 200.698 194.291 201.525C195.118 202.351 196.239 202.816 197.408 202.816H215.038C216.207 202.816 217.328 202.351 218.155 201.525C218.981 200.698 219.446 199.577 219.446 198.408C219.446 197.239 218.981 196.118 218.155 195.291C217.328 194.465 216.207 194 215.038 194H197.408Z" fill="#E6E6E6"/>
<path d="M191.617 238C190.127 238 188.698 238.592 187.645 239.645C186.592 240.698 186 242.127 186 243.617C186 245.106 186.592 246.534 187.645 247.587C188.698 248.641 190.127 249.232 191.617 249.232H214.081C215.571 249.232 216.999 248.641 218.053 247.587C219.106 246.534 219.697 245.106 219.697 243.617C219.697 242.127 219.106 240.698 218.053 239.645C216.999 238.592 215.571 238 214.081 238H191.617Z" fill="#393386"/>
<path d="M220 221H28.5V222H220V221Z" fill="#E6E6E6"/>
<path d="M57.4685 90.504C57.4755 93.013 56.8505 95.483 55.651 97.687C55.5175 97.9295 55.378 98.1745 55.2205 98.417C55.204 98.453 55.183 98.487 55.157 98.517C54.9935 98.7875 54.8165 99.049 54.627 99.3015C53.4758 100.898 52.0186 102.249 50.34 103.277L50.2521 103.337C49.7005 103.668 49.1289 103.965 48.5404 104.225C48.3768 104.298 48.2072 104.367 48.0375 104.437C47.8679 104.507 47.7103 104.57 47.5407 104.625C47.4558 104.661 47.3649 104.692 47.2771 104.722C47.267 104.72 47.2569 104.72 47.2468 104.722C47.062 104.788 46.8711 104.846 46.6833 104.904L46.5409 104.937C46.3712 104.988 46.2016 105.031 46.0319 105.067C45.4465 105.217 44.8512 105.325 44.2505 105.391C43.6685 105.462 43.0827 105.497 42.4964 105.497C42.4358 105.497 42.3752 105.497 42.3146 105.497C41.5017 105.495 40.6906 105.42 39.891 105.273L39.7456 105.249C39.5971 105.225 39.4426 105.194 39.3002 105.158L39.0185 105.094C38.7196 105.029 38.4243 104.948 38.1338 104.852C37.5419 104.675 36.962 104.459 36.3979 104.207L36.3343 104.18C35.5082 103.805 34.7182 103.356 33.9742 102.837C33.9109 102.8 33.8501 102.759 33.7925 102.713C31.698 101.22 30.0228 99.213 28.9276 96.886C27.8324 94.5585 27.3541 91.9885 27.5387 89.423C27.7233 86.8575 28.5645 84.3825 29.9815 82.236C31.3986 80.0895 33.3438 78.343 35.6304 77.1655C37.917 75.9875 40.4681 75.417 43.0386 75.5095C45.6091 75.602 48.1127 76.354 50.3087 77.6935C52.5048 79.0325 54.3195 80.914 55.5785 83.1565C56.838 85.3995 57.499 87.9285 57.499 90.501L57.4685 90.504Z" fill="#3F3D56"/>
<path d="M46.0987 86.8895C46.0629 87.7095 45.7121 88.4835 45.1195 89.051C44.5268 89.618 43.7381 89.935 42.9176 89.935C42.0972 89.935 41.3085 89.618 40.7158 89.051C40.1232 88.4835 39.7724 87.7095 39.7366 86.8895C39.7366 86.838 39.7366 86.7865 39.7366 86.738C39.7366 85.8945 40.0717 85.0855 40.6683 84.489C41.2649 83.8925 42.074 83.557 42.9176 83.557C43.7613 83.557 44.5704 83.8925 45.167 84.489C45.7636 85.0855 46.0987 85.8945 46.0987 86.738C46.0957 86.7865 46.0987 86.838 46.0987 86.8895Z" fill="#192534"/>
<path opacity="0.1" d="M46.0987 86.8895C46.0629 87.709 45.7121 88.4835 45.1195 89.0505C44.5268 89.618 43.7381 89.9345 42.9176 89.9345C42.0972 89.9345 41.3085 89.618 40.7158 89.0505C40.1232 88.4835 39.7724 87.709 39.7366 86.8895C39.7366 86.838 39.7366 86.7865 39.7366 86.738C40.6341 86.0035 41.758 85.6025 42.9176 85.6025C44.0773 85.6025 45.2012 86.0035 46.0987 86.738C46.0957 86.7865 46.0987 86.838 46.0987 86.8895Z" fill="black"/>
<path d="M42.9142 95.936C45.69 95.936 47.9403 93.6855 47.9403 90.91C47.9403 88.134 45.69 85.884 42.9142 85.884C40.1384 85.884 37.8882 88.134 37.8882 90.91C37.8882 93.6855 40.1384 95.936 42.9142 95.936Z" fill="#192534"/>
<path d="M39.87 86.1865C39.8705 85.4155 40.1509 84.6705 40.6591 84.0905C41.1672 83.5105 41.8686 83.1345 42.6329 83.0325C42.1828 82.972 41.7249 83.008 41.2899 83.1385C40.8548 83.269 40.4528 83.4915 40.1108 83.79C39.7687 84.089 39.4946 84.4575 39.3067 84.871C39.1189 85.285 39.0217 85.734 39.0217 86.188C39.0217 86.642 39.1189 87.091 39.3067 87.5045C39.4946 87.9185 39.7687 88.287 40.1108 88.5855C40.4528 88.8845 40.8548 89.107 41.2899 89.2375C41.7249 89.368 42.1828 89.404 42.6329 89.3435C41.8681 89.241 41.1663 88.865 40.6581 88.284C40.1499 87.7035 39.8698 86.958 39.87 86.1865Z" fill="#192534"/>
<path d="M37.243 92.9515C36.6649 92.441 36.2919 91.7375 36.1932 90.9725C36.0946 90.2075 36.2771 89.4325 36.7067 88.792C36.5996 88.8865 36.4985 88.988 36.4038 89.095C36.1154 89.4065 35.8923 89.7725 35.7475 90.172C35.6027 90.571 35.5392 90.995 35.5607 91.419C35.5822 91.843 35.6883 92.2585 35.8727 92.6405C36.0571 93.023 36.3161 93.365 36.6345 93.6455C36.9529 93.9265 37.3243 94.141 37.7267 94.276C38.1292 94.411 38.5546 94.4645 38.978 94.433C39.4013 94.401 39.8141 94.285 40.192 94.0915C40.5699 93.898 40.9052 93.631 41.1784 93.306C41.2711 93.2005 41.3571 93.089 41.4359 92.973C40.8529 93.4775 40.1066 93.7535 39.3354 93.75C38.5643 93.746 37.8208 93.4625 37.243 92.9515Z" fill="#192534"/>
<path d="M40.2852 97.284C40.0235 97.3355 39.7704 97.4245 39.5339 97.5475C39.1158 97.8505 39.1309 98.4565 39.2552 98.9505C39.5399 100.077 40.2367 101.159 41.3032 101.619C41.9633 101.863 42.667 101.966 43.3693 101.922C44.1297 101.922 44.9901 101.819 45.4628 101.219C45.6756 100.903 45.821 100.546 45.8899 100.171C46.1232 99.2625 46.3595 98.3235 46.2747 97.384C45.8142 97.4235 45.2992 97.4505 44.9356 97.16C44.5721 96.869 44.4903 96.3145 44.3297 95.854C44.3123 95.78 44.2707 95.714 44.2115 95.6665C44.1451 95.6365 44.0716 95.626 43.9995 95.636C43.5159 95.657 43.0315 95.6365 42.5513 95.5755C42.2484 95.536 41.5152 95.224 41.291 95.4875C41.1274 95.6785 41.2304 96.26 41.1032 96.53C41.0236 96.7035 40.9103 96.8595 40.7699 96.989C40.6295 97.1185 40.4647 97.219 40.2852 97.284Z" fill="#FFC1C7"/>
<path opacity="0.05" d="M40.2852 97.284C40.0235 97.3355 39.7704 97.4245 39.5339 97.5475C39.1158 97.8505 39.1309 98.4565 39.2552 98.9505C39.5399 100.077 40.2367 101.159 41.3032 101.619C41.9633 101.863 42.667 101.966 43.3693 101.922C44.1297 101.922 44.9901 101.819 45.4628 101.219C45.6756 100.903 45.821 100.546 45.8899 100.171C46.1232 99.2625 46.3595 98.3235 46.2747 97.384C45.8142 97.4235 45.2992 97.4505 44.9356 97.16C44.5721 96.869 44.4903 96.3145 44.3297 95.854C44.3123 95.78 44.2707 95.714 44.2115 95.6665C44.1451 95.6365 44.0716 95.626 43.9995 95.636C43.5159 95.657 43.0315 95.6365 42.5513 95.5755C42.2484 95.536 41.5152 95.224 41.291 95.4875C41.1274 95.6785 41.2304 96.26 41.1032 96.53C41.0236 96.7035 40.9103 96.8595 40.7699 96.989C40.6295 97.1185 40.4647 97.219 40.2852 97.284Z" fill="black"/>
<path d="M42.8451 96.851C44.786 96.851 46.3595 95.2775 46.3595 93.3365C46.3595 91.3955 44.786 89.8225 42.8451 89.8225C40.9042 89.8225 39.3308 91.3955 39.3308 93.3365C39.3308 95.2775 40.9042 96.851 42.8451 96.851Z" fill="#FFC1C7"/>
<path d="M50.5493 100.949C50.525 100.98 50.5008 101.016 50.4735 101.046L50.3251 101.24C49.5769 102.137 48.971 103.143 48.5285 104.224C48.3649 104.297 48.1953 104.367 48.0256 104.436C47.856 104.506 47.6984 104.57 47.5288 104.624C47.444 104.66 47.3531 104.691 47.2652 104.721C47.2552 104.72 47.245 104.72 47.2349 104.721C47.0501 104.788 46.8592 104.845 46.6714 104.903L46.529 104.936C46.3594 104.988 46.1897 105.03 46.02 105.066C45.4346 105.216 44.8394 105.325 44.2387 105.391C43.6566 105.461 43.0708 105.496 42.4845 105.497C42.424 105.497 42.3634 105.497 42.3028 105.497C41.4898 105.494 40.6787 105.419 39.8791 105.272L39.7337 105.248C39.5852 105.224 39.4307 105.194 39.2883 105.157L39.0066 105.094C38.7077 105.028 38.4125 104.947 38.122 104.851C38.2031 104.344 38.4293 103.87 38.7733 103.488C38.0917 102.673 36.9707 102.352 36.2467 101.582C36.1836 101.509 36.1249 101.432 36.0709 101.352C36.0331 101.294 36.0016 101.232 35.977 101.167C35.9554 101.116 35.9421 101.062 35.9376 101.007C35.9148 100.895 35.9056 100.781 35.9104 100.667C35.8922 99.8075 35.9316 98.8255 36.5981 98.2865C36.9254 98.0575 37.2936 97.8925 37.6827 97.802C38.3592 97.59 39.0177 97.3245 39.6519 97.008C39.7099 97.1435 39.7487 97.286 39.767 97.432C39.8276 97.7835 39.8215 98.153 39.9033 98.5015C40.0622 99.123 40.4467 99.663 40.9819 100.016C41.5157 100.366 42.1234 100.587 42.7572 100.661C43.3813 100.752 43.8782 100.428 44.4659 100.207C44.7263 100.124 44.9666 99.988 45.1718 99.8075C45.4372 99.501 45.5787 99.1065 45.5686 98.7015C45.5686 98.3015 45.5232 97.9015 45.5474 97.4895C45.548 97.448 45.5531 97.406 45.5626 97.3655C45.5635 97.26 45.5972 97.1575 45.6591 97.0725C45.721 96.987 45.808 96.9235 45.908 96.89C46.0214 96.8805 46.1354 96.9015 46.2382 96.9505L47.3712 97.3835C47.8622 97.5535 48.3351 97.7715 48.783 98.035C49.2779 98.3565 49.6939 98.7855 49.9997 99.29C50.3055 99.795 50.4934 100.362 50.5493 100.949Z" fill="#6C63FF"/>
<path opacity="0.1" d="M39.8635 105.276L39.7182 105.251C39.5697 105.227 39.4152 105.197 39.2728 105.161L38.9911 105.097C38.6922 105.031 38.3969 104.951 38.1064 104.855C37.5145 104.677 36.9346 104.461 36.3705 104.209C36.0868 103.286 35.9839 102.317 36.0675 101.355C36.1043 100.943 36.1898 100.536 36.322 100.144C36.9582 100.749 38.0428 100.407 38.7638 100.892C38.9593 101.03 39.1192 101.213 39.2304 101.425C39.4321 101.813 39.5692 102.232 39.6363 102.664C39.6818 102.9 39.7242 103.14 39.7606 103.379C39.7606 103.422 39.7606 103.455 39.7606 103.491C39.7606 103.528 39.7606 103.567 39.7606 103.606C39.7848 103.776 39.806 103.952 39.8151 104.124C39.8636 104.515 39.8635 104.891 39.8635 105.276Z" fill="black"/>
<path d="M39.7185 105.252C39.57 105.228 39.4155 105.197 39.2731 105.16L38.9914 105.097C38.6925 105.032 38.3972 104.95 38.1067 104.854C37.5148 104.677 36.9349 104.462 36.3708 104.21L36.3072 104.182C35.9593 103.163 35.8282 102.083 35.9224 101.01C35.9658 100.623 36.0491 100.241 36.1708 99.871C36.8071 100.477 37.8916 100.141 38.6127 100.626C38.8904 100.825 39.1016 101.104 39.2186 101.425C39.3364 101.736 39.4246 102.058 39.4822 102.385C39.5488 102.74 39.6124 103.095 39.6549 103.455C39.6644 103.505 39.6695 103.555 39.67 103.606C39.67 103.64 39.67 103.682 39.67 103.715C39.67 103.749 39.67 103.801 39.67 103.846C39.7276 104.31 39.7245 104.782 39.7185 105.252Z" fill="#6C63FF"/>
<path opacity="0.1" d="M50.2401 103.337C49.6885 103.668 49.1168 103.964 48.5283 104.225C48.3647 104.297 48.1951 104.367 48.0254 104.437C47.8558 104.506 47.6982 104.57 47.5286 104.624C47.4438 104.661 47.3529 104.691 47.265 104.721C47.255 104.72 47.2448 104.72 47.2347 104.721C47.0499 104.788 46.859 104.846 46.6712 104.904L46.5288 104.937C46.5288 104.667 46.5288 104.389 46.5591 104.116C46.5803 103.901 46.6046 103.685 46.6349 103.47C46.6349 103.431 46.6349 103.391 46.65 103.352C46.653 103.327 46.653 103.301 46.65 103.276C46.6864 103.07 46.7257 102.862 46.7651 102.656C46.828 102.222 46.9653 101.803 47.1711 101.416C47.2847 101.208 47.4455 101.03 47.6407 100.896C48.3617 100.411 49.4584 100.741 50.0643 100.147C50.1836 100.499 50.2658 100.862 50.3097 101.231C50.3918 101.933 50.3683 102.642 50.2401 103.337Z" fill="black"/>
<path d="M50.3278 103.276L50.24 103.337C49.6884 103.668 49.1167 103.965 48.5282 104.225C48.3647 104.297 48.195 104.367 48.0253 104.437C47.8557 104.506 47.6981 104.57 47.5285 104.624C47.4437 104.66 47.3528 104.691 47.2649 104.721C47.2549 104.72 47.2447 104.72 47.2346 104.721C47.0498 104.788 46.859 104.845 46.6711 104.903C46.6711 104.545 46.6711 104.191 46.7014 103.837C46.7014 103.746 46.7014 103.652 46.7256 103.561C46.7256 103.521 46.7256 103.476 46.7256 103.437C46.7256 103.398 46.7256 103.37 46.7256 103.343C46.7711 103.016 46.8256 102.698 46.8923 102.377C46.9498 102.049 47.0381 101.727 47.1558 101.416C47.2729 101.095 47.484 100.816 47.7618 100.616C48.4828 100.131 49.5795 100.461 50.1854 99.862C50.3156 100.242 50.401 100.637 50.4399 101.037C50.5214 101.785 50.4836 102.541 50.3278 103.276Z" fill="#6C63FF"/>
<path d="M42.7757 92.8425C45.1048 92.8425 46.9929 91.5835 46.9929 90.031C46.9929 88.478 45.1048 87.2195 42.7757 87.2195C40.4467 87.2195 38.5586 88.478 38.5586 90.031C38.5586 91.5835 40.4467 92.8425 42.7757 92.8425Z" fill="#192534"/>
<path opacity="0.05" d="M39.2701 104.737C39.2701 104.801 39.2701 104.867 39.2701 104.937C39.2701 105.007 39.2701 105.07 39.2701 105.137C39.2689 105.145 39.2689 105.153 39.2701 105.161L38.9883 105.098C38.9837 105.044 38.9837 104.991 38.9883 104.937C38.988 104.656 39.0482 104.378 39.1648 104.123C39.2813 103.867 39.4516 103.64 39.6639 103.456C39.6917 103.426 39.7233 103.401 39.7579 103.38C39.9205 103.248 40.1051 103.145 40.3032 103.077C40.485 103.007 40.6779 102.97 40.8727 102.968C40.8989 102.965 40.9253 102.965 40.9515 102.968C40.9999 102.965 41.0485 102.965 41.0969 102.968H40.997C40.5331 103.017 40.1026 103.232 39.7851 103.574C39.7498 103.607 39.7183 103.643 39.6912 103.683C39.4488 103.984 39.3021 104.352 39.2701 104.737Z" fill="black"/>
<path d="M42.3545 104.937C42.3541 105.126 42.3318 105.316 42.2878 105.5C41.4749 105.498 40.6638 105.423 39.8642 105.276L39.7188 105.252C39.5703 105.228 39.4158 105.197 39.2734 105.161V105.137C39.2734 105.07 39.2734 105.006 39.2734 104.937C39.2734 104.867 39.2734 104.8 39.2734 104.737C39.299 104.33 39.4375 103.939 39.6733 103.607C39.7003 103.565 39.7318 103.526 39.7672 103.492C39.9084 103.315 40.0904 103.176 40.2974 103.086C40.4564 103.01 40.6303 102.97 40.8064 102.971C40.8265 102.968 40.8469 102.968 40.867 102.971C40.9083 102.968 40.9498 102.968 40.9912 102.971C41.7577 103.101 42.3545 103.931 42.3545 104.937Z" fill="#6C63FF"/>
<path opacity="0.05" d="M47.5289 104.624C47.4441 104.661 47.3532 104.691 47.2654 104.721C47.222 104.287 47.0317 103.882 46.7261 103.571L46.6352 103.479C46.3326 103.208 45.9541 103.035 45.5506 102.985H45.4507C45.4971 102.982 45.5436 102.982 45.59 102.985C45.6172 102.982 45.6446 102.982 45.6718 102.985C45.8674 102.99 46.0608 103.027 46.2444 103.094C46.3902 103.144 46.5295 103.212 46.6595 103.295C46.6931 103.312 46.7238 103.335 46.7503 103.362C46.9571 103.51 47.1323 103.699 47.2659 103.915C47.3996 104.132 47.4889 104.373 47.5289 104.624Z" fill="black"/>
<path d="M47.2648 104.721C47.2548 104.72 47.2446 104.72 47.2345 104.721C47.0497 104.788 46.8589 104.845 46.671 104.903L46.5287 104.936C46.359 104.988 46.1893 105.03 46.0197 105.067C45.4343 105.217 44.839 105.325 44.2383 105.391C44.2076 105.238 44.1924 105.083 44.1929 104.927C44.1929 103.921 44.7988 103.091 45.5592 102.976C45.5995 102.973 45.64 102.973 45.6804 102.976C45.6994 102.973 45.7189 102.973 45.7379 102.976C45.9161 102.975 46.0921 103.015 46.253 103.091C46.4037 103.158 46.5412 103.252 46.6589 103.367C46.6922 103.392 46.7226 103.42 46.7498 103.452C47.0537 103.808 47.2344 104.254 47.2648 104.721Z" fill="#6C63FF"/>
<path opacity="0.1" d="M42.7752 92.564C40.5151 92.564 38.6701 91.3825 38.561 89.895C38.561 89.9405 38.561 89.986 38.561 90.0345C38.561 91.5885 40.4515 92.846 42.7812 92.846C45.1109 92.846 46.9984 91.5885 46.9984 90.0345C46.9984 89.986 46.9984 89.9405 46.9984 89.895C46.8772 91.3825 45.0322 92.564 42.7752 92.564Z" fill="black"/>
<path d="M28 144.506C27.9948 147.013 28.6196 149.481 29.817 151.683C29.9533 151.929 30.0926 152.174 30.247 152.413C30.2646 152.449 30.287 152.483 30.3137 152.513C30.4805 152.781 30.6614 153.04 30.8557 153.288C31.4847 154.163 32.21 154.965 33.018 155.678C33.168 155.822 33.3257 155.957 33.4904 156.084C34.0092 156.517 34.5599 156.911 35.1378 157.262L35.2287 157.322C35.78 157.652 36.3503 157.95 36.9367 158.212L37.4424 158.421C37.609 158.491 37.7665 158.558 37.9391 158.612C38.0239 158.646 38.1117 158.676 38.2025 158.706H38.2449C38.4287 158.773 38.6164 158.833 38.8082 158.888L38.9475 158.921C39.1171 158.973 39.2897 159.018 39.4593 159.051C39.6895 159.112 39.9166 159.163 40.1528 159.206C40.5071 159.275 40.8736 159.336 41.237 159.378C41.8188 159.448 42.4044 159.483 42.9904 159.482H43.1691C43.9817 159.477 44.7923 159.4 45.5917 159.254C45.6407 159.249 45.6892 159.241 45.7371 159.23C45.8855 159.206 46.0399 159.176 46.1823 159.139C46.2792 159.121 46.367 159.1 46.4639 159.076C46.7667 159.009 47.0696 158.93 47.3482 158.836C47.5269 158.779 47.7025 158.724 47.8781 158.664C48.2325 158.54 48.5868 158.406 48.926 158.255C48.9789 158.237 49.0305 158.216 49.0804 158.191L49.147 158.161C49.5952 157.959 50.0313 157.734 50.4553 157.486C50.8157 157.28 51.1669 157.056 51.5061 156.819H51.5273C51.5826 156.787 51.6352 156.751 51.6848 156.71C53.7808 155.219 55.458 153.214 56.555 150.887C57.652 148.561 58.132 145.991 57.949 143.425C57.7655 140.86 56.9255 138.384 55.509 136.237C54.0925 134.09 52.1476 132.343 49.8611 131.165C47.5745 129.987 45.0233 129.417 42.4527 129.51C39.8821 129.602 37.3787 130.355 35.183 131.695C32.9873 133.035 31.1733 134.917 29.9153 137.161C28.6574 139.404 27.9978 141.934 28 144.506Z" fill="#3F3D56"/>
<path d="M46.3247 150.448C46.5459 150.643 46.6996 150.903 46.7638 151.19C46.3278 151.305 45.8826 151.09 45.4768 150.887C44.2168 150.296 42.8868 149.868 41.5187 149.612C41.4092 149.602 41.3045 149.562 41.2159 149.497C41.1472 149.405 41.1117 149.291 41.115 149.176C41.1183 149.061 41.1602 148.95 41.2341 148.861C41.3855 148.704 41.6701 148.725 41.8761 148.716C42.6968 148.674 43.5172 148.805 44.2837 149.102C45.0503 149.398 45.7457 149.853 46.3247 150.436V150.448Z" fill="#6C63FF"/>
<path d="M41.8942 149.242C41.8035 149.469 41.668 149.676 41.4957 149.849C41.3235 150.022 41.1181 150.159 40.8918 150.251C40.6465 150.339 40.383 150.354 40.1347 150.424C40.0076 150.45 39.8884 150.506 39.7864 150.586C39.6845 150.666 39.6026 150.769 39.5472 150.887C39.5139 150.993 39.4986 151.103 39.5018 151.214C39.4624 152.259 39.4321 153.334 39.85 154.303C40.2104 155.133 40.8706 155.787 41.5247 156.408C42.2879 157.137 43.0965 157.876 44.1019 158.203C44.6894 158.394 45.3829 158.415 45.8704 158.037C46.0617 157.871 46.228 157.678 46.364 157.464C46.7041 157.019 46.9888 156.534 47.212 156.02C47.6269 154.954 47.4876 153.761 47.3422 152.625C47.3413 152.558 47.3154 152.493 47.2695 152.443C47.2063 152.404 47.1302 152.391 47.0575 152.407C46.7974 152.434 46.5356 152.378 46.309 152.247C46.0824 152.117 45.9025 151.918 45.7947 151.68C45.7321 151.464 45.7085 151.238 45.7251 151.014L45.7463 149.718C45.7564 149.579 45.7399 149.439 45.6978 149.306C45.5788 149.09 45.3865 148.924 45.1557 148.837C44.448 148.482 43.7102 148.192 42.9511 147.967C42.618 147.871 42.3636 147.707 42.2152 148.064C42.0668 148.422 42.0668 148.867 41.8942 149.242Z" fill="#FBBEBE"/>
<path opacity="0.1" d="M41.8942 149.242C41.8035 149.469 41.668 149.676 41.4957 149.849C41.3235 150.022 41.1181 150.159 40.8918 150.251C40.6465 150.339 40.383 150.354 40.1347 150.424C40.0076 150.45 39.8884 150.506 39.7864 150.586C39.6845 150.666 39.6026 150.769 39.5472 150.887C39.5139 150.993 39.4986 151.103 39.5018 151.214C39.4624 152.259 39.4321 153.334 39.85 154.303C40.2104 155.133 40.8706 155.787 41.5247 156.408C42.2879 157.137 43.0965 157.876 44.1019 158.203C44.6894 158.394 45.3829 158.415 45.8704 158.037C46.0617 157.871 46.228 157.678 46.364 157.464C46.7041 157.019 46.9888 156.534 47.212 156.02C47.6269 154.954 47.4876 153.761 47.3422 152.625C47.3413 152.558 47.3154 152.493 47.2695 152.443C47.2063 152.404 47.1302 152.391 47.0575 152.407C46.7974 152.434 46.5356 152.378 46.309 152.247C46.0824 152.117 45.9025 151.918 45.7947 151.68C45.7321 151.464 45.7085 151.238 45.7251 151.014L45.7463 149.718C45.7564 149.579 45.7399 149.439 45.6978 149.306C45.5788 149.09 45.3865 148.924 45.1557 148.837C44.448 148.482 43.7102 148.192 42.9511 147.967C42.618 147.871 42.3636 147.707 42.2152 148.064C42.0668 148.422 42.0668 148.867 41.8942 149.242Z" fill="black"/>
<path d="M45.4008 150.294C47.5851 150.294 49.3559 148.523 49.3559 146.339C49.3559 144.154 47.5851 142.384 45.4008 142.384C43.2165 142.384 41.4458 144.154 41.4458 146.339C41.4458 148.523 43.2165 150.294 45.4008 150.294Z" fill="#FBBEBE"/>
<path d="M40.1469 159.224C40.5012 159.294 40.8676 159.354 41.2311 159.397C41.8129 159.466 42.3985 159.5 42.9845 159.499H43.1631C43.9758 159.494 44.7864 159.418 45.5858 159.272C45.6348 159.267 45.6833 159.259 45.7312 159.248C45.8796 159.224 46.034 159.194 46.1764 159.157C46.2733 159.139 46.3611 159.118 46.458 159.094C46.7608 159.027 47.0637 158.948 47.3423 158.854C47.5209 158.797 47.6966 158.742 47.8722 158.682C48.2266 158.558 48.5809 158.424 48.9201 158.273C48.8328 158.004 48.761 157.73 48.705 157.452C48.6074 156.86 48.5688 156.259 48.59 155.66C48.59 155.178 48.6112 154.7 48.59 154.221C48.5976 153.833 48.5413 153.446 48.4234 153.076C48.3633 152.892 48.267 152.721 48.1402 152.573C48.0133 152.426 47.8584 152.306 47.6845 152.219C47.2333 152.019 46.5549 151.916 46.1097 152.141C46.0588 152.168 46.0102 152.199 45.9644 152.234C45.8675 152.316 45.7925 152.42 45.7463 152.537C45.601 152.901 45.4435 153.267 45.3042 153.631C45.2144 153.884 45.0955 154.126 44.9499 154.351C44.73 154.648 44.4236 154.87 44.0727 154.985C43.7218 155.101 43.3437 155.105 42.9905 154.996C42.9461 154.982 42.9026 154.965 42.8603 154.945C42.2546 154.7 41.7005 154.17 41.0675 154.312C40.8925 154.359 40.7303 154.444 40.5934 154.563C40.4564 154.682 40.3483 154.83 40.2771 154.996C40.2683 155.014 40.2612 155.032 40.2559 155.051C40.1286 155.368 40.0549 155.703 40.0379 156.044C39.9463 157.105 39.9829 158.172 40.1469 159.224Z" fill="#F2F2F2"/>
<path d="M33.0181 155.687C33.1681 155.83 33.3258 155.966 33.4905 156.093C34.0093 156.526 34.56 156.92 35.1379 157.271L35.2288 157.331C35.7801 157.661 36.3504 157.959 36.9368 158.221L37.4425 158.43C37.6091 158.5 37.7666 158.567 37.9392 158.621C38.024 158.655 38.1118 158.685 38.2026 158.715H38.245C38.4288 158.782 38.6165 158.842 38.8083 158.897L38.9476 158.93C39.1172 158.982 39.2898 159.027 39.4594 159.06C39.6896 159.121 39.9167 159.172 40.1529 159.215C40.5072 159.284 40.8737 159.345 41.2371 159.387C41.8189 159.457 42.4045 159.491 42.9905 159.49H43.1692C43.9818 159.485 44.7924 159.409 45.5918 159.263C45.6408 159.258 45.6893 159.25 45.7372 159.239C45.8856 159.215 46.04 159.184 46.1824 159.148C46.2793 159.13 46.3671 159.109 46.464 159.085C46.7668 159.018 47.0697 158.939 47.3483 158.845C47.527 158.788 47.7026 158.733 47.8782 158.673C48.2326 158.549 48.5869 158.415 48.9261 158.264C48.979 158.246 49.0306 158.225 49.0805 158.2L49.1471 158.17C49.5953 157.968 50.0314 157.743 50.4554 157.495C50.7528 156.702 51.0056 155.893 51.2125 155.072C51.2112 155.056 51.2112 155.04 51.2125 155.024C50.74 154.185 50.3221 153.312 49.8527 152.474C49.7192 152.158 49.5047 151.883 49.2309 151.677C48.957 151.47 48.6335 151.34 48.2931 151.299C47.965 151.19 47.6237 151.127 47.2786 151.111C47.0825 151.093 46.8881 151.059 46.6972 151.011C46.3035 150.923 45.8674 150.838 45.7221 151.011C45.7158 151.015 45.7106 151.021 45.707 151.028C45.7033 151.035 45.7012 151.043 45.7009 151.05C45.6464 151.254 45.6713 151.47 45.7705 151.656C45.8371 151.847 45.925 152.047 45.9704 152.21C45.9975 152.288 46.0128 152.37 46.0158 152.452C46.0265 152.807 46.0144 153.162 45.9795 153.515C45.8947 154.03 45.61 154.484 45.4768 154.984C45.4162 155.22 45.3859 155.466 45.3465 155.705C45.2623 156.245 45.1212 156.775 44.9256 157.286C44.8904 157.394 44.8383 157.496 44.7711 157.589C44.5228 157.891 44.111 157.776 43.7203 157.719C43.4357 157.476 43.4508 157.046 43.4175 156.683C43.334 156.073 43.1476 155.481 42.8663 154.933L42.7633 154.715C42.4605 154.088 42.1577 153.464 41.873 152.834C41.5066 152.053 41.128 151.159 41.4309 150.351C41.5187 150.108 41.661 149.893 41.7579 149.66C41.7737 149.626 41.7869 149.591 41.7973 149.554C41.8251 149.465 41.8404 149.372 41.8427 149.279C41.8535 149.195 41.8466 149.11 41.8226 149.029C41.7986 148.948 41.758 148.874 41.7034 148.809C41.6873 148.785 41.6667 148.763 41.6428 148.746C41.6327 148.735 41.6203 148.727 41.6065 148.722C41.5069 148.664 41.395 148.632 41.2801 148.626C41.1653 148.621 41.0508 148.643 40.9463 148.691C40.8268 148.735 40.7105 148.786 40.5981 148.846C40.0035 149.181 39.43 149.552 38.881 149.957C38.7199 150.053 38.5944 150.198 38.5236 150.372C38.5109 150.487 38.4917 150.601 38.4661 150.714C38.3813 150.929 38.1239 150.993 37.9028 151.041C36.9886 151.252 36.1271 151.648 35.371 152.203C34.6149 152.759 33.9802 153.463 33.5057 154.272C33.3451 154.533 33.2189 154.813 33.1301 155.105C33.0762 155.296 33.0387 155.49 33.0181 155.687Z" fill="#6C63FF"/>
<path d="M47.1425 144.107C46.6064 144.655 45.7494 144.676 44.9832 144.663L45.0075 144.361L43.9324 144.745C44.2119 144.538 44.451 144.281 44.638 143.988C44.5633 143.932 44.474 143.9 44.381 143.894C44.288 143.888 44.1953 143.91 44.1141 143.955C43.9529 144.049 43.8184 144.182 43.7235 144.342C43.418 144.8 43.2237 145.322 43.1559 145.868C43.088 146.414 43.1486 146.968 43.3328 147.486C43.2233 147.54 43.1017 147.564 42.98 147.556C42.8583 147.548 42.7408 147.509 42.6393 147.441C42.4374 147.302 42.2822 147.106 42.1941 146.878C42.1305 146.732 42.0639 146.574 41.9125 146.517C41.8472 146.501 41.7784 146.507 41.717 146.535C41.6555 146.562 41.605 146.609 41.5733 146.669C41.5096 146.786 41.4842 146.92 41.5006 147.053C41.5218 147.356 41.749 147.659 41.8035 147.962C41.858 148.265 42.3062 148.507 42.07 148.71C41.7931 148.814 41.5041 148.882 41.2099 148.913C41.1516 148.895 41.0985 148.863 41.0552 148.82C41.0119 148.778 40.9798 148.725 40.9616 148.667C40.7223 148.14 40.8071 147.525 40.6587 146.965C40.5212 146.52 40.3103 146.102 40.0349 145.727C39.9686 145.612 39.8893 145.505 39.7987 145.408C39.7034 145.339 39.6248 145.249 39.5685 145.145C39.5292 145.036 39.6049 144.876 39.72 144.897C39.5321 144.715 39.3296 144.548 39.1143 144.4C39.3263 144.133 39.5322 143.861 39.72 143.589C39.7896 143.492 39.8623 143.374 39.8108 143.268C39.7816 143.218 39.7398 143.178 39.6897 143.15L39.1537 142.786C39.1537 142.531 39.6594 142.626 39.7381 142.387C39.7577 142.323 39.7577 142.256 39.7381 142.193L39.5504 141.508L40.2651 141.832C40.3477 141.88 40.4425 141.902 40.5376 141.895C40.7254 141.868 40.8162 141.647 40.8405 141.456C40.8211 141.266 40.8459 141.073 40.9131 140.893C41.2372 140.893 41.5612 140.893 41.8822 140.893C41.9033 140.731 41.861 140.568 41.7641 140.436L44.1504 140.303C44.556 140.256 44.9666 140.285 45.3618 140.387C45.4878 140.447 45.6253 140.478 45.7646 140.479C45.9008 140.479 46.0401 140.336 46.0008 140.203C46.3586 140.405 46.6859 140.657 46.9729 140.951C47.0493 141.044 47.1429 141.12 47.2484 141.178C47.302 141.205 47.3627 141.217 47.4225 141.21C47.4824 141.203 47.5389 141.178 47.5846 141.139C47.6512 141.069 47.6815 140.945 47.7784 140.939C47.8753 140.932 47.8874 140.987 47.9238 141.033C48.0603 141.208 48.1714 141.402 48.2539 141.608C48.4254 141.585 48.5932 141.54 48.7536 141.475C48.6787 141.555 48.63 141.656 48.6138 141.764C48.5975 141.872 48.6146 141.982 48.6627 142.081C48.7414 142.284 48.8868 142.456 48.9837 142.65C49.0791 142.859 49.1434 143.082 49.1745 143.31C49.223 143.594 49.2229 143.955 48.9716 144.094C48.8523 144.135 48.724 144.143 48.6009 144.115C48.4779 144.087 48.365 144.025 48.2751 143.937C47.6967 143.525 47.5907 143.646 47.1425 144.107Z" fill="#192534"/>
<path d="M33.4902 156.093C34.009 156.527 34.5597 156.92 35.1376 157.271L35.2285 157.331C35.7798 157.662 36.3501 157.959 36.9365 158.222L37.4422 158.431C37.6088 158.5 37.7663 158.567 37.9389 158.622C38.0237 158.655 38.1115 158.685 38.2023 158.715C38.0963 158.413 38.0267 158.11 37.9328 157.807C37.6828 156.998 37.2365 156.264 36.6336 155.669C36.1128 155.149 35.283 154.388 34.5138 154.848C34.2793 155.006 34.0744 155.204 33.9081 155.433C33.7605 155.601 33.6344 155.787 33.5326 155.987C33.5175 156.014 33.5054 156.051 33.4902 156.093Z" fill="#6C63FF"/>
<path d="M47.8904 158.679C48.2447 158.555 48.599 158.422 48.9382 158.27C48.9911 158.253 49.0427 158.232 49.0926 158.207L49.1592 158.176C49.6074 157.975 50.0435 157.749 50.4675 157.501C50.8279 157.295 51.1792 157.071 51.5183 156.835H51.5395C51.5123 156.497 51.5123 156.158 51.5395 155.82C51.557 155.707 51.5497 155.591 51.5183 155.481C51.4762 155.394 51.4188 155.315 51.3488 155.248C51.3042 155.203 51.2627 155.156 51.2246 155.106C50.8824 154.721 50.6038 154.306 50.0132 154.367C49.4227 154.427 48.9139 154.936 48.6656 155.502C48.6385 155.557 48.6162 155.614 48.599 155.672C48.4301 156.198 48.2986 156.735 48.2053 157.28C48.1266 157.616 48.0266 157.94 47.954 158.276C47.9358 158.401 47.9085 158.54 47.8904 158.679Z" fill="#6C63FF"/>
<path d="M125 31.3333C115.8 31.3333 108.333 38.8 108.333 48C108.333 57.2 115.8 64.6667 125 64.6667C134.2 64.6667 141.667 57.2 141.667 48C141.667 38.8 134.2 31.3333 125 31.3333ZM120.483 55.15L114.5 49.1667C114.346 49.0124 114.223 48.8292 114.14 48.6276C114.056 48.426 114.013 48.2099 114.013 47.9917C114.013 47.7735 114.056 47.5574 114.14 47.3558C114.223 47.1542 114.346 46.971 114.5 46.8167C114.654 46.6624 114.838 46.54 115.039 46.4565C115.241 46.373 115.457 46.33 115.675 46.33C115.893 46.33 116.109 46.373 116.311 46.4565C116.513 46.54 116.696 46.6624 116.85 46.8167L121.667 51.6167L133.133 40.15C133.445 39.8384 133.868 39.6633 134.308 39.6633C134.749 39.6633 135.172 39.8384 135.483 40.15C135.795 40.4616 135.97 40.8843 135.97 41.325C135.97 41.7657 135.795 42.1884 135.483 42.5L122.833 55.15C122.679 55.3045 122.496 55.4271 122.294 55.5107C122.093 55.5944 121.877 55.6374 121.658 55.6374C121.44 55.6374 121.224 55.5944 121.022 55.5107C120.821 55.4271 120.638 55.3045 120.483 55.15Z" fill="#43B384"/>
</g>
<defs>
<filter id="filter0_d" x="0" y="0" width="249" height="283" filterUnits="userSpaceOnUse" color-interpolation-filters="sRGB">
<feFlood flood-opacity="0" result="BackgroundImageFix"/>
<feColorMatrix in="SourceAlpha" type="matrix" values="0 0 0 0 0 0 0 0 0 0 0 0 0 0 0 0 0 0 127 0"/>
<feOffset dy="4"/>
<feGaussianBlur stdDeviation="2"/>
<feColorMatrix type="matrix" values="0 0 0 0 0 0 0 0 0 0 0 0 0 0 0 0 0 0 0.1 0"/>
<feBlend mode="normal" in2="BackgroundImageFix" result="effect1_dropShadow"/>
<feBlend mode="normal" in="SourceGraphic" in2="effect1_dropShadow" result="shape"/>
</filter>
</defs>
</svg>
