<svg width="1146" height="782" viewBox="0 0 1146 782" fill="none" xmlns="http://www.w3.org/2000/svg">
<path opacity="0.1" d="M1145.7 454.1C1145.68 492.877 1137.24 531.188 1120.97 566.389C1104.71 601.589 1081 632.842 1051.48 657.989C1021.96 683.136 987.339 701.58 950.001 712.048C912.663 722.516 873.499 724.758 835.21 718.62H410.5C394.096 720.871 377.558 722 361 722C199.65 722 63.0002 616.14 16.7802 470.09C5.62456 434.803 -0.0349879 398.009 0.000162732 361C0.000162732 161.62 161.63 0 361 0C521.57 0 657.63 104.81 704.52 249.81C752.887 208.657 814.345 186.102 877.85 186.2C1025.76 186.2 1145.7 306.14 1145.7 454.1Z" fill="#4285F4"/>
<path opacity="0.1" d="M1042.79 665.17C1013.72 687.867 980.285 704.328 944.569 713.525C908.854 722.721 871.626 724.456 835.21 718.62H410.5C394.096 720.871 377.557 722 361 722C199.65 722 62.9998 616.14 16.7798 470.09C51.3498 396.2 140.19 343.62 244.35 343.62C345.85 343.62 432.8 393.56 469.16 464.49C487.04 461.239 505.177 459.609 523.35 459.62C628.55 459.62 718.12 513.27 751.94 588.33C779.955 579.839 809.076 575.555 838.35 575.62C924.15 575.62 999.56 611.3 1042.79 665.17Z" fill="#4285F4"/>
<path opacity="0.1" d="M314.85 135.75C309.202 134.679 303.364 135.316 298.08 137.58C294.908 138.986 291.475 139.709 288.005 139.7C284.535 139.692 281.105 138.952 277.94 137.53C274.195 135.889 270.138 135.08 266.049 135.16C261.961 135.239 257.939 136.205 254.26 137.99C252.159 139.106 249.818 139.693 247.44 139.7C237.84 139.7 229.85 130.03 228.19 117.27C230.106 115.866 231.736 114.108 232.99 112.09C238.62 103.02 247.34 97.2002 257.13 97.2002C266.92 97.2002 275.53 102.95 281.13 111.93C282.811 114.639 285.161 116.868 287.956 118.403C290.75 119.938 293.892 120.725 297.08 120.69H297.33C304.96 120.69 311.58 126.81 314.85 135.75Z" fill="#4285F4"/>
<path opacity="0.1" d="M344.05 95.7001L328.53 105.55L337.95 88.4101C335.278 86.2831 331.975 85.1047 328.56 85.0601H328.31C327.232 85.0792 326.154 85.0022 325.09 84.8301L319.85 88.1601L322.11 84.0601C318.38 82.7582 315.159 80.3075 312.91 77.0601L303.49 83.0601L309.44 72.2501C303.93 65.6401 296.51 61.5801 288.35 61.5801C278.56 61.5801 269.84 67.4101 264.21 76.4801C262.545 79.2035 260.186 81.4352 257.374 82.9464C254.563 84.4576 251.4 85.194 248.21 85.0801H247.68C236.87 85.0801 228.11 97.3401 228.11 112.45C228.11 127.56 236.85 139.81 247.7 139.81C250.077 139.802 252.417 139.219 254.52 138.11C258.197 136.321 262.219 135.352 266.308 135.271C270.397 135.189 274.454 135.998 278.2 137.64C281.365 139.062 284.794 139.801 288.265 139.81C291.735 139.819 295.168 139.096 298.34 137.69C302.058 136.079 306.078 135.286 310.129 135.364C314.18 135.441 318.167 136.388 321.82 138.14C323.9 139.229 326.212 139.802 328.56 139.81C339.37 139.81 348.13 127.56 348.13 112.44C348.196 106.606 346.793 100.849 344.05 95.7001V95.7001Z" fill="#4285F4"/>
<path opacity="0.1" d="M626.85 225.23C622.896 224.485 618.81 224.931 615.11 226.51C612.892 227.502 610.49 228.015 608.06 228.015C605.63 228.015 603.228 227.502 601.01 226.51C598.387 225.362 595.547 224.796 592.685 224.851C589.822 224.906 587.006 225.581 584.43 226.83C582.96 227.61 581.324 228.022 579.66 228.03C572.94 228.03 567.35 221.26 566.19 212.32C567.532 211.341 568.673 210.111 569.55 208.7C573.49 202.35 579.55 198.28 586.44 198.28C593.33 198.28 599.33 202.28 603.27 208.59C604.448 210.483 606.094 212.042 608.048 213.115C610.002 214.189 612.2 214.741 614.43 214.72H614.61C619.91 214.69 624.54 218.98 626.85 225.23Z" fill="#4285F4"/>
<path opacity="0.1" d="M647.27 197.2L636.41 204.09L643 192.09C641.134 190.594 638.821 189.766 636.43 189.74H636.26C635.507 189.757 634.753 189.704 634.01 189.58L630.32 191.91L631.9 189.04C629.292 188.128 627.039 186.417 625.46 184.15L618.85 188.34L623.01 180.77C619.16 176.15 614.01 173.31 608.25 173.31C601.4 173.31 595.25 177.38 591.35 183.73C590.181 185.625 588.532 187.177 586.571 188.231C584.61 189.284 582.405 189.801 580.18 189.73H579.85C572.29 189.73 566.15 198.31 566.15 208.89C566.15 219.47 572.29 228.05 579.85 228.05C581.514 228.046 583.152 227.634 584.62 226.85C587.196 225.601 590.012 224.926 592.875 224.871C595.737 224.815 598.577 225.382 601.2 226.53C603.431 227.526 605.846 228.044 608.29 228.05C610.702 228.047 613.086 227.539 615.29 226.56C617.892 225.433 620.705 224.879 623.54 224.934C626.374 224.989 629.164 225.653 631.72 226.88C633.176 227.643 634.795 228.045 636.44 228.05C644.01 228.05 650.14 219.47 650.14 208.89C650.177 204.815 649.19 200.795 647.27 197.2V197.2Z" fill="#4285F4"/>
<path opacity="0.1" d="M411.47 286.23C415.424 285.485 419.51 285.93 423.21 287.51C425.426 288.502 427.827 289.015 430.255 289.015C432.683 289.015 435.084 288.502 437.3 287.51C439.917 286.363 442.751 285.796 445.608 285.847C448.465 285.899 451.277 286.569 453.85 287.81C455.32 288.588 456.957 289 458.62 289.01C465.34 289.01 470.94 282.24 472.1 273.3C470.756 272.323 469.614 271.093 468.74 269.68C464.8 263.33 458.69 259.26 451.84 259.26C444.99 259.26 438.96 263.26 435.02 269.57C433.84 271.462 432.192 273.02 430.236 274.091C428.28 275.163 426.081 275.714 423.85 275.69H423.68C418.36 275.69 413.72 279.98 411.47 286.23Z" fill="#4285F4"/>
<path opacity="0.1" d="M390.99 258.2L401.85 265.09L395.25 253.09C397.116 251.595 399.429 250.768 401.82 250.74H402C402.753 250.758 403.507 250.704 404.25 250.58L407.93 252.91L406.35 250.04C408.961 249.129 411.218 247.418 412.8 245.15L419.39 249.33L415.23 241.81C419.09 237.19 424.28 234.35 430 234.35C436.85 234.35 443 238.42 446.9 244.77C448.068 246.665 449.717 248.218 451.678 249.272C453.64 250.326 455.845 250.842 458.07 250.77H458.43C466 250.77 472.13 259.35 472.13 269.93C472.13 280.51 466 289.09 458.43 289.09C456.766 289.084 455.129 288.672 453.66 287.89C451.084 286.641 448.267 285.966 445.405 285.911C442.543 285.855 439.702 286.422 437.08 287.57C434.852 288.566 432.44 289.084 430 289.09C427.588 289.089 425.203 288.582 423 287.6C420.397 286.473 417.581 285.919 414.745 285.974C411.909 286.029 409.118 286.693 406.56 287.92C405.104 288.685 403.485 289.086 401.84 289.09C394.28 289.09 388.14 280.51 388.14 269.93C388.09 265.843 389.071 261.809 390.99 258.2V258.2Z" fill="#4285F4"/>
<path d="M948.627 301.135C950.397 309.376 945.857 318.538 938.248 322.129C935.064 323.63 931.488 324.221 928.375 325.878C921.617 329.479 918.397 337.241 915.68 344.399C912.561 352.633 909.385 361.345 910.824 370.027C911.764 375.561 914.487 380.626 915.824 386.081C916.943 390.647 917.053 395.402 916.152 400.019C915.673 402.468 914.828 404.985 912.98 406.658C910.306 409.079 906.356 409.134 902.768 409.46C895.165 410.225 887.85 412.784 881.423 416.923C874.999 421.062 869.647 426.667 865.807 433.274" stroke="url(#paint0_linear)" stroke-width="2" stroke-miterlimit="10"/>
<path d="M947.871 301.068C949.642 309.31 945.101 318.472 937.492 322.063C934.308 323.564 930.732 324.155 927.619 325.811C920.861 329.413 917.641 337.174 914.924 344.332C911.805 352.566 908.63 361.278 910.068 369.961C911.009 375.495 913.732 380.559 915.072 386.015C916.187 390.581 916.297 395.336 915.396 399.952C914.917 402.402 914.072 404.919 912.225 406.592C909.55 409.012 905.6 409.068 902.013 409.394C894.41 410.159 887.095 412.717 880.667 416.856C874.243 420.996 868.892 426.601 865.051 433.208" stroke="#535461" stroke-width="2" stroke-miterlimit="10"/>
<path d="M859.541 232.923C864.893 241.933 870.42 251.67 870.03 262.149C869.424 278.276 855.467 290.287 848.383 304.8C845.322 311.197 843.584 318.145 843.269 325.23C842.955 332.314 844.071 339.389 846.555 346.031C848.873 352.065 852.335 358.153 851.287 364.519C850.648 368.406 848.38 371.786 846.49 375.247C841.836 383.917 839.291 393.565 839.064 403.404C838.837 413.243 840.932 422.998 845.179 431.877" stroke="url(#paint1_linear)" stroke-width="2" stroke-miterlimit="10"/>
<path d="M858.785 232.857C864.137 241.867 869.665 251.604 869.274 262.083C868.668 278.21 854.711 290.221 847.627 304.734C844.564 311.13 842.825 318.078 842.51 325.163C842.193 332.247 843.31 339.322 845.793 345.965C848.112 351.998 851.571 358.087 850.523 364.452C849.886 368.339 847.619 371.72 845.729 375.18C841.074 383.85 838.529 393.498 838.302 403.338C838.075 413.177 840.17 422.932 844.417 431.81" stroke="#535461" stroke-width="2" stroke-miterlimit="10"/>
<path d="M767.261 301.909L762.214 325.669C761.548 328.828 760.926 332.283 762.382 335.151C763.781 337.871 766.717 339.367 768.945 341.484C776.169 348.416 774.414 360.364 770.914 369.757C767.415 379.153 762.612 389.153 765.532 398.741C766.736 402.699 769.153 406.176 770.898 409.887C773.807 416.323 774.552 423.523 773.024 430.416" stroke="url(#paint2_linear)" stroke-width="2" stroke-miterlimit="10"/>
<path d="M766.554 301.848L761.51 325.608C760.841 328.767 760.219 332.222 761.675 335.089C763.074 337.81 766.013 339.306 768.238 341.422C775.465 348.355 773.707 360.302 770.207 369.695C766.71 379.091 761.905 389.091 764.825 398.68C766.031 402.638 768.446 406.114 770.191 409.825C773.1 416.261 773.845 423.461 772.317 430.355" stroke="#535461" stroke-width="2" stroke-miterlimit="10"/>
<path d="M936.827 305.562L953.436 307.015L951.405 296.793L941.436 295.921L936.827 305.562Z" fill="#F55F44"/>
<path d="M885.807 195.239C882.477 233.306 908.459 291.783 946.525 295.114C984.595 298.445 1020.34 245.339 1023.67 207.3C1025.27 189.018 1019.54 170.85 1007.74 156.793C995.947 142.735 979.048 133.938 960.766 132.339C942.488 130.74 924.318 136.468 910.26 148.264C896.203 160.06 887.407 176.957 885.807 195.239Z" fill="#F55F44"/>
<path d="M941.4 296.339L951.369 297.211L957.473 294.399L935.879 292.51L941.4 296.339Z" fill="#535461"/>
<path d="M851.987 237.081L868.596 238.534L866.562 228.313L856.596 227.441L851.987 237.081Z" fill="#4D8AF0"/>
<path d="M800.967 126.751C797.636 164.819 823.618 223.296 861.685 226.626C899.752 229.956 935.508 176.888 938.839 138.813C940.438 120.532 934.712 102.364 922.914 88.3057C911.119 74.2478 894.222 65.4518 875.941 63.8523C857.659 62.2529 839.492 67.9813 825.432 79.7771C811.374 91.573 802.578 108.47 800.978 126.752L800.967 126.751Z" fill="#4D8AF0"/>
<path d="M856.559 227.857L866.526 228.729L872.631 225.911L851.036 224.021L856.559 227.857Z" fill="#535461"/>
<path opacity="0.1" d="M899.497 81.3948C899.497 81.3948 927.184 99.7187 928.556 131.628L899.497 81.3948Z" fill="white"/>
<path d="M755.839 306.519L772.456 307.973L770.416 297.758L760.455 296.887L755.839 306.519Z" fill="#3AD29F"/>
<path d="M704.818 196.196C701.487 234.263 727.47 292.741 765.539 296.071C803.606 299.402 839.35 246.296 842.678 208.257C844.278 189.975 838.549 171.807 826.754 157.749C814.958 143.692 798.059 134.895 779.78 133.296C761.498 131.697 743.329 137.425 729.271 149.221C715.214 161.017 706.417 177.914 704.818 196.196Z" fill="#3AD29F"/>
<path d="M760.42 297.297L770.38 298.168L776.485 295.356L754.896 293.468L760.42 297.297Z" fill="#535461"/>
<path opacity="0.1" d="M803.357 150.841C803.357 150.841 831.044 169.165 832.416 201.074L803.357 150.841Z" fill="white"/>
<path d="M639.752 489.751V481.076C639.75 474.69 637.212 468.566 632.696 464.051C628.18 459.536 622.055 457 615.669 457H273.083C266.697 457 260.572 459.536 256.056 464.051C251.54 468.566 249.002 474.69 249 481.076V497.071L639.752 489.751Z" fill="#454545"/>
<path opacity="0.1" d="M649 498.265V739.233C649 741.97 648.461 744.68 647.413 747.208C646.366 749.736 644.831 752.033 642.895 753.968C640.96 755.903 638.662 757.437 636.133 758.484C633.605 759.531 630.895 760.069 628.158 760.068H269.849C264.325 760.066 259.027 757.87 255.121 753.963C251.215 750.056 249.021 744.758 249.021 739.233V473.973C259.289 477.786 259.289 477.786 269.849 477.465H628.158C633.678 477.465 638.973 479.655 642.881 483.555C646.788 487.454 648.989 492.745 649 498.265V498.265Z" fill="black"/>
<path d="M649 501.331V742.299C648.998 747.825 646.802 753.125 642.893 757.032C638.985 760.939 633.685 763.134 628.158 763.134H269.849C264.325 763.132 259.027 760.936 255.121 757.029C251.215 753.122 249.021 747.824 249.021 742.299V477.032C259.289 480.838 259.289 480.838 269.849 480.524H628.158C633.68 480.524 638.976 482.715 642.883 486.616C646.791 490.517 648.991 495.81 649 501.331V501.331Z" fill="#4285F4"/>
<path opacity="0.1" d="M647.98 590.419V667.48H573.245C563.116 667.344 553.448 663.224 546.333 656.013C539.219 648.802 535.23 639.08 535.23 628.95C535.23 618.82 539.219 609.097 546.333 601.886C553.448 594.675 563.116 590.556 573.245 590.419H647.98Z" fill="black"/>
<path d="M649 588.366V665.441H574.265C564.135 665.304 554.467 661.185 547.353 653.974C540.238 646.763 536.249 637.04 536.249 626.91C536.249 616.78 540.238 607.058 547.353 599.847C554.467 592.636 564.135 588.516 574.265 588.38L649 588.366Z" fill="#454545"/>
<path opacity="0.1" d="M577.848 643.977C586.145 643.977 592.872 637.251 592.872 628.954C592.872 620.656 586.145 613.93 577.848 613.93C569.551 613.93 562.824 620.656 562.824 628.954C562.824 637.251 569.551 643.977 577.848 643.977Z" fill="black"/>
<path d="M578.868 641.938C587.165 641.938 593.891 635.211 593.891 626.914C593.891 618.617 587.165 611.89 578.868 611.89C570.57 611.89 563.844 618.617 563.844 626.914C563.844 635.211 570.57 641.938 578.868 641.938Z" fill="#4285F4"/>
<path d="M506 615C506 656.421 472.421 690 431 690C389.579 690 356 656.421 356 615C356 573.579 389.579 540 431 540C472.421 540 506 573.579 506 615ZM463.178 604.315C464.667 594.333 457.06 588.97 446.68 585.391L450.036 571.862L441.767 569.822L438.484 582.985C436.322 582.446 434.1 581.966 431.886 581.436L435.19 568.18L426.963 566.142L423.588 579.652C421.794 579.243 420.039 578.836 418.337 578.417L406.989 575.583L404.796 584.372C404.796 584.372 410.915 585.769 410.771 585.861C414.106 586.696 414.707 588.92 414.605 590.642L410.762 606.048C411.053 606.121 411.338 606.213 411.617 606.324L410.752 606.11L405.368 627.684C405.128 628.445 404.596 629.08 403.888 629.447C403.181 629.813 402.355 629.884 401.595 629.641C401.678 629.763 395.611 628.153 395.611 628.153L391.532 637.573L402.238 640.245C404.276 640.745 406.184 641.264 408.1 641.753L404.695 655.426L412.912 657.466L416.288 643.936C418.469 644.527 420.654 645.094 422.843 645.638L419.479 659.108L427.706 661.146L431.112 647.494C445.142 650.145 455.705 649.074 460.14 636.39C463.719 626.195 459.967 620.282 452.574 616.437C457.947 615.194 462.005 611.667 463.086 604.356L463.178 604.315ZM444.377 630.682C441.838 640.877 424.627 635.372 419.051 633.995L423.568 615.877C429.123 617.274 447.017 620.026 444.357 630.682H444.377ZM446.926 604.173C444.601 613.471 430.286 608.74 425.637 607.588L429.715 591.163C434.354 592.315 449.322 594.475 446.864 604.173H446.926Z" fill="#F7931A"/>
<path d="M351.074 300.361C355.653 300.361 359.365 296.649 359.365 292.07C359.365 287.491 355.653 283.779 351.074 283.779C346.495 283.779 342.783 287.491 342.783 292.07C342.783 296.649 346.495 300.361 351.074 300.361Z" fill="white"/>
<path d="M375.193 300.361C379.772 300.361 383.484 296.649 383.484 292.07C383.484 287.491 379.772 283.779 375.193 283.779C370.614 283.779 366.902 287.491 366.902 292.07C366.902 296.649 370.614 300.361 375.193 300.361Z" fill="white"/>
<path d="M174.609 614.889C182.256 620.017 193.855 617.575 193.855 617.575C193.855 617.575 211.358 609.284 216.541 609.284C221.725 609.284 234.3 604.156 234.3 604.156L233.878 600.704L232.624 590.293C240.604 596.509 249.461 594.367 253.823 593.912C258.507 593.423 283.547 578.539 285.944 577.563C286.86 577.022 287.624 576.258 288.164 575.343C289.776 572.868 291.19 570.27 292.393 567.573V567.573C293.969 566.197 295.112 565.087 295.023 564.843C295.37 563.42 295.888 562.045 296.566 560.747C299.255 560.36 301.838 559.431 304.158 558.017C304.955 557.372 305.591 556.551 306.019 555.619C306.446 554.688 306.653 553.67 306.622 552.645C306.622 552.645 331.04 528.005 327.833 517.76C324.625 507.516 335.724 507.272 335.724 507.272C335.724 507.272 352.75 499.957 355.114 495.562C356.579 492.865 369.343 486.938 378.944 482.765L380.132 482.254C383.861 490.434 402.796 484.141 406.526 480.678C410.466 477.026 422.064 475.317 422.064 475.317C422.064 475.317 422.553 427.502 426.26 421.397C428.014 418.512 428.48 409.066 428.391 399.954C428.391 399.621 428.391 399.299 428.391 398.977C433.574 397.967 445.905 395.647 451.633 395.059C455.262 394.693 459.036 392.429 461.944 390.231L462.277 390.664C463.278 391.075 464.36 391.253 465.44 391.186C466.392 391.283 467.352 391.102 468.204 390.664C470.423 389.443 478.559 387.001 481.523 385.78C484.486 384.559 481.023 375.791 478.803 374.071C476.583 372.35 475.107 370.175 476.339 369.198C477.571 368.221 473.376 365.78 470.912 365.291C468.448 364.803 461.045 361.384 461.045 361.384C461.045 361.384 458.336 355.779 453.897 355.779C449.457 355.779 443.53 351.34 443.53 351.34C443.286 349.386 438.602 349.12 438.602 349.12C438.602 349.12 420.843 335.468 417.88 337.166C414.917 338.864 406.781 334.491 406.781 334.491C406.781 334.491 396.792 335.601 394.45 333.77C394.432 333.168 394.222 332.589 393.85 332.116C393.318 330.462 390.743 328.198 388.301 326.311C388.484 325.147 388.576 323.971 388.578 322.793C388.578 322.282 388.578 321.76 388.523 321.261C388.528 321.176 388.528 321.091 388.523 321.006C388.645 319.896 388.756 318.719 388.878 317.576C388.899 316.446 389.192 315.339 389.732 314.346C390.154 313.702 390.765 313.236 391.231 312.581C391.341 312.437 391.441 312.285 391.531 312.126L391.608 311.993C391.675 311.871 391.73 311.749 391.786 311.627C391.809 311.588 391.827 311.547 391.841 311.505C391.985 311.169 392.093 310.82 392.163 310.461C392.163 310.461 392.163 310.461 392.163 310.373C392.163 310.284 392.219 310.051 392.23 309.884V309.818C392.332 308.4 392.144 306.976 391.675 305.633C390.931 303.325 389.777 301.105 389.655 298.696C389.709 297.504 389.668 296.309 389.533 295.122C388.933 292.459 386.203 290.76 383.55 289.651C379.91 288.119 378.067 286.454 375.137 284.179C372.651 282.247 368.544 283.224 365.403 283.424C358.255 283.879 351.185 286.032 344.459 288.263C341.801 288.976 339.311 290.21 337.134 291.893C335.763 293.062 334.821 294.656 334.459 296.421V296.421C334.385 296.827 334.355 297.24 334.37 297.653C334.37 297.653 334.37 297.731 334.37 297.764C334.37 297.797 334.37 298.075 334.425 298.23C334.419 298.282 334.419 298.334 334.425 298.386C334.459 298.577 334.504 298.766 334.559 298.952V298.952C334.836 299.851 335.369 300.661 335.669 301.56C335.734 301.757 335.79 301.957 335.835 302.159V302.226L335.935 302.814C336.201 305.034 335.38 307.343 335.025 309.607C334.971 309.93 334.934 310.256 334.914 310.584V310.584C334.807 311.892 334.92 313.208 335.247 314.479V314.479C335.247 314.635 335.347 314.779 335.391 314.934L335.458 315.134C335.458 315.267 335.558 315.389 335.602 315.523C335.644 315.606 335.681 315.691 335.713 315.778C335.713 315.889 335.813 316 335.868 316.111C335.924 316.222 335.968 316.3 336.013 316.388C336.057 316.477 336.124 316.588 336.19 316.688L336.368 316.977L336.545 317.243L336.767 317.52C336.834 317.598 336.889 317.687 336.967 317.765L337.222 318.031L337.422 318.242L337.733 318.497L337.944 318.675L338.321 318.93L338.51 319.052C338.709 319.175 338.917 319.282 339.131 319.374C340.552 320.029 342.328 320.251 343.194 321.494C343.387 321.793 343.526 322.123 343.604 322.471V322.937C343.606 323.653 343.647 324.368 343.727 325.079C343.725 325.45 343.743 325.82 343.782 326.189C343.829 326.475 343.911 326.755 344.026 327.021C345.029 331.934 347.666 336.363 351.507 339.586C351.585 339.963 351.662 340.407 351.762 340.906C349.593 342.546 347.166 343.813 344.581 344.658C338.643 346.6 330.297 354.558 330.297 354.558C330.297 354.558 326.134 384.526 325.135 388.222C324.137 391.918 323.393 406.036 323.393 406.036C323.393 406.036 322.405 411.886 320.929 414.816C319.886 416.88 320.074 425.748 322.993 431.131C322.516 432.19 321.904 433.182 321.173 434.084C315.257 440.921 297.499 440.677 291.572 440.677C286.122 440.677 284.435 444.006 284.213 444.506C273.369 447.58 238.262 457.603 234.1 459.423C229.172 461.576 226.453 482.876 226.453 482.876C226.453 482.876 216.097 518.249 216.586 522.91C217.074 527.572 213.134 540.447 213.134 540.447C213.134 540.447 213.134 555.042 211.458 556.041H211.402C209.682 556.774 209.926 563.811 209.926 563.811C209.926 563.811 211.191 564.188 213.178 564.688C212.657 568.262 210.714 573.267 209.183 576.819C208.417 575.842 207.662 575.432 207.218 576.575C205.986 579.671 187.484 601.626 182.8 601.626C180.58 601.626 176.884 603.457 174.453 605.932C171.734 608.729 170.613 612.214 174.609 614.889ZM259.462 487.748C280.428 489.702 302.882 486.261 302.882 486.261C302.882 486.261 301.15 492.377 299.674 494.818C298.198 497.26 293.991 511.167 293.991 514.098C293.991 517.028 287.332 542.145 285.367 543.366C284.389 544.195 283.647 545.267 283.214 546.474C282.698 547.686 282.264 548.932 281.915 550.203C281.935 550.805 281.99 551.406 282.082 552.001C280.606 553.355 279.052 554.776 277.642 556.03C277.642 556.03 268.841 561.003 265.921 563.666C263.002 566.33 249.151 569.638 249.151 569.638C245.714 571.104 242.377 572.795 239.161 574.699C234.888 577.285 230.604 580.559 229.483 583.789C229.971 578.34 230.759 571.78 231.281 567.596C231.558 567.596 231.814 567.596 232.069 567.596C238.984 567.174 237.952 560.57 237.619 558.938C237.596 558.814 237.567 558.692 237.53 558.572C242.469 553.2 253.568 513.199 252.081 508.803C250.593 504.408 253.324 500.512 253.901 500.512C254.478 500.512 255.288 495.629 254.056 492.943C252.824 490.257 259.462 487.748 259.462 487.748ZM429.012 380.086L427.703 380.408C427.703 380.231 427.703 380.131 427.703 380.131C427.703 380.131 428.18 380.209 429.012 380.164V380.086ZM357.345 343.282C357.145 343.526 356.946 343.759 356.735 343.992L356.479 344.258V342.904L357.345 343.282ZM332.638 390.608L332.727 391.985C332.727 391.985 332.594 392.817 332.339 394.205L332.638 390.608ZM445.994 376.979L441.688 377.711C442.298 377.489 442.897 377.234 443.486 376.956C443.916 376.756 444.378 376.632 444.851 376.59C445.399 376.644 445.938 376.76 446.46 376.934C446.301 376.958 446.145 376.999 445.994 377.056V376.979Z" fill="url(#paint3_linear)"/>
<path d="M300.418 553.233C300.418 553.233 295.467 563.489 295.712 564.21C295.956 564.932 285.056 573.656 285.056 573.656L273.191 565.176L274.401 559.371C274.401 559.371 287.72 547.373 288.686 545.985C289.651 544.598 300.418 553.233 300.418 553.233Z" fill="#BE6F72"/>
<path d="M232.757 587.896C240.992 595.887 250.682 593.445 255.277 592.979C259.872 592.513 284.446 577.729 286.81 576.752C287.701 576.203 288.441 575.44 288.963 574.532V574.532C290.55 572.086 291.942 569.518 293.125 566.852C292.959 566.852 284.912 569.194 282.881 566.852C282.881 566.852 279.484 562.69 278.763 562.69C278.041 562.69 278.707 555.397 278.707 555.397C278.707 555.397 270.05 560.27 267.142 562.934C264.234 565.598 250.682 568.861 250.682 568.861C247.327 570.32 244.071 572 240.937 573.889C234.511 577.829 228.084 583.356 232.757 587.896Z" fill="#3F3D56"/>
<path opacity="0.1" d="M232.757 587.896C240.992 595.887 250.682 593.445 255.277 592.979C259.872 592.513 284.446 577.729 286.81 576.752C287.701 576.203 288.441 575.44 288.963 574.532C286.099 572.823 267.386 584.721 262.147 586.897C256.909 589.072 243.656 587.874 236.153 584.677C232.402 583.112 236.153 578.284 240.937 573.844C234.511 577.829 228.084 583.356 232.757 587.896Z" fill="black"/>
<path d="M233.734 562.712C233.734 562.712 230.282 588.617 231.159 592.013C232.036 595.41 209.515 580.393 209.515 580.393C209.515 580.393 217.396 564.155 215.065 560.414C212.734 556.674 233.734 562.712 233.734 562.712Z" fill="#BE6F72"/>
<path d="M212.18 563.222C212.18 563.222 226.22 567.34 233.967 566.852C240.76 566.43 239.739 559.882 239.384 558.261C239.361 558.137 239.332 558.015 239.295 557.895C244.145 552.567 255.033 512.865 253.579 508.504C252.126 504.142 254.789 500.279 255.366 500.279C255.944 500.279 256.732 495.429 255.522 492.765C254.312 490.101 260.849 487.682 260.849 487.682C281.427 489.624 303.459 486.205 303.459 486.205C303.459 486.205 301.761 492.288 300.307 494.707C298.853 497.127 294.757 510.923 294.757 513.831C294.757 516.739 288.22 541.679 286.289 542.889C285.329 543.712 284.602 544.772 284.18 545.963C283.672 547.165 283.245 548.4 282.903 549.659C283.625 565.886 302.027 559.593 304.691 557.429C305.071 557.114 305.417 556.761 305.723 556.374C306.661 555.15 307.151 553.642 307.111 552.101C307.111 552.101 331.074 527.683 327.933 517.483C324.792 507.283 335.702 507.072 335.702 507.072C335.702 507.072 352.406 499.813 354.726 495.451C356.158 492.776 368.689 486.893 378.123 482.753C384.028 480.167 388.723 478.314 388.723 478.314L384.794 464.229L381.697 453.13L375.87 450.91L357.246 443.895L323.804 439.3L320.741 439.7L288.242 443.895C288.242 443.895 240.749 457.403 235.954 459.545C231.159 461.687 228.451 482.853 228.451 482.853C228.451 482.853 218.284 517.96 218.761 522.577C219.239 527.194 215.332 539.914 215.332 539.914C215.332 539.914 215.332 554.343 213.689 555.375H213.634C211.947 556.174 212.18 563.222 212.18 563.222Z" fill="#3F3D56"/>
<path opacity="0.1" d="M260.849 487.659C281.427 489.602 303.459 486.183 303.459 486.183C304.913 481.61 325.257 469.024 325.257 469.024C308.564 464.906 260.849 487.659 260.849 487.659Z" fill="black"/>
<path d="M282.881 549.637C283.602 565.864 302.005 559.571 304.669 557.407C305.048 557.092 305.394 556.739 305.701 556.352C299.263 558.727 287.864 560.548 284.157 545.963C283.65 547.158 283.224 548.385 282.881 549.637V549.637Z" fill="#444053"/>
<path d="M212.18 563.222C212.18 563.222 226.22 567.34 233.967 566.852C240.76 566.43 239.739 559.882 239.384 558.261C232.28 558.039 220.038 557.362 213.689 555.442H213.634C211.947 556.174 212.18 563.222 212.18 563.222Z" fill="#444053"/>
<path opacity="0.1" d="M282.881 549.637C283.602 565.864 302.005 559.571 304.669 557.407C305.048 557.092 305.394 556.739 305.701 556.352C299.263 558.727 287.864 560.548 284.157 545.963C283.65 547.158 283.224 548.385 282.881 549.637V549.637Z" fill="black"/>
<path opacity="0.1" d="M212.18 563.222C212.18 563.222 226.22 567.34 233.967 566.852C240.76 566.43 239.739 559.882 239.384 558.261C232.28 558.039 220.038 557.362 213.689 555.442H213.634C211.947 556.174 212.18 563.222 212.18 563.222Z" fill="black"/>
<path d="M177.561 613.801C185.064 618.884 196.429 616.465 196.429 616.465C196.429 616.465 213.611 608.229 218.694 608.229C223.777 608.229 236.153 603.179 236.153 603.179L235.731 599.75L233.733 583.323C233.733 583.323 214.865 582.845 214.121 581.103C214.121 581.103 210.725 572.767 209.515 575.842C208.305 578.916 190.147 600.715 185.552 600.715C183.332 600.715 179.736 602.524 177.35 604.977C174.741 607.685 173.632 611.137 177.561 613.801Z" fill="#3F3D56"/>
<path opacity="0.1" d="M242.691 470.711C242.691 470.711 258.429 480.7 254.067 482.82C249.705 484.94 242.691 470.711 242.691 470.711Z" fill="black"/>
<path opacity="0.1" d="M236.153 489.846C236.153 489.846 249.705 502.71 244.622 503.054C239.539 503.398 236.153 489.846 236.153 489.846Z" fill="black"/>
<path opacity="0.1" d="M221.625 530.757C221.625 530.757 228.506 543.699 225.909 545.941C223.312 548.183 221.625 530.757 221.625 530.757Z" fill="black"/>
<path opacity="0.1" d="M297.399 543.832C294.979 546.252 320.407 535.841 314.591 535.352C308.775 534.864 297.399 543.832 297.399 543.832Z" fill="black"/>
<path d="M348.244 362.25L349.054 362.128C352.062 361.673 362.983 359.964 372.773 357.833C375.159 357.311 377.468 356.778 379.588 356.212C387.091 354.248 392.118 352.128 388.922 350.396C384.671 348.088 382.429 343.903 381.252 340.296C381.141 339.941 381.03 339.597 380.942 339.264C380.416 337.454 380.085 335.594 379.954 333.714C379.954 333.714 352.605 324.025 357.933 333.714C360.541 338.454 358.788 342.338 356.313 345.058C354.623 346.871 352.628 348.374 350.419 349.497L348.244 362.25Z" fill="#BE6F72"/>
<path opacity="0.1" d="M377.535 354.747C377.535 354.747 367.756 361.773 357.756 355.957C347.755 350.141 334.736 407.29 334.736 407.29L321.173 440.699C321.173 440.699 312.394 447.958 323.315 451.11C334.237 454.262 358.499 447.958 364.648 457.159C370.797 466.36 382.463 467.77 383.572 467.77C384.682 467.77 389.377 433.14 389.377 433.14L390.576 383.028L377.535 354.747Z" fill="black"/>
<path d="M323.759 449.168C334.692 452.32 358.932 446.027 365.092 455.217C367.684 458.956 371.298 461.87 375.503 463.608C378.226 464.812 381.128 465.562 384.094 465.828C384.249 465.828 384.482 465.195 384.749 464.096C386.447 457.093 389.899 431.209 389.899 431.209L391.098 381.196L379.588 356.268L378.023 352.816C376.476 353.84 374.8 354.653 373.039 355.236C370.633 356.128 368.06 356.483 365.502 356.274C362.944 356.065 360.463 355.297 358.233 354.026C355.303 352.316 352.106 356.035 349.054 362.128C341.695 376.823 335.169 405.348 335.169 405.348L321.617 438.757C321.294 439.036 320.986 439.332 320.696 439.645C318.764 441.665 315.157 446.681 323.759 449.168Z" fill="#F3F5F9"/>
<path opacity="0.1" d="M375.803 450.855C375.265 455.084 375.157 459.357 375.481 463.608C375.856 469.648 376.598 475.66 377.701 481.61C377.769 481.988 377.869 482.36 378.001 482.72C383.906 480.134 388.6 478.281 388.6 478.281L384.671 464.196C386.37 457.192 389.821 431.309 389.821 431.309L391.098 381.196L379.588 356.268C387.091 354.303 392.119 352.183 388.922 350.452C384.261 347.921 382.019 343.126 380.942 339.353C378.961 342.094 376.65 344.58 374.061 346.756L373.905 346.878L373.039 355.324L372.773 357.921L372.207 363.316C372.207 363.316 374.871 426.98 376.813 430.621C378.756 434.261 377.779 441.265 376.081 449.489C375.992 449.878 375.903 450.355 375.803 450.855Z" fill="black"/>
<path d="M377.058 448.446C375.359 456.67 376.813 470.234 378.745 480.634C380.676 491.033 401.265 484.263 405.138 480.634C409.012 477.004 420.389 475.306 420.389 475.306C420.389 475.306 420.877 427.857 424.506 421.797C426.227 418.933 426.649 409.588 426.604 400.509C426.604 392.384 426.171 384.515 426.016 381.84C426.016 381.218 426.016 380.885 426.016 380.885C426.016 380.885 441.755 354.247 441.555 352.316C441.355 350.385 436.716 350.096 436.716 350.096C436.716 350.096 419.279 336.533 416.371 338.231C413.463 339.93 405.482 335.568 405.482 335.568C405.482 335.568 395.36 336.678 393.273 334.768C393.148 334.656 393.05 334.517 392.987 334.361C392.923 334.205 392.896 334.037 392.907 333.869C393.14 330.773 382.585 324.158 382.263 323.947C391.142 331.96 376.713 344.292 375.137 345.635L374.982 345.768L373.295 362.194C373.295 362.194 375.959 425.87 377.89 429.5C379.821 433.129 378.745 440.21 377.058 448.446Z" fill="#67647E"/>
<path d="M377.99 380.486C378.658 380.486 379.2 379.944 379.2 379.276C379.2 378.608 378.658 378.066 377.99 378.066C377.322 378.066 376.78 378.608 376.78 379.276C376.78 379.944 377.322 380.486 377.99 380.486Z" fill="#444053"/>
<path opacity="0.1" d="M375.514 346.667L382.862 353.781L393.65 335.79C393.525 335.68 393.425 335.543 393.36 335.389C393.295 335.235 393.265 335.068 393.273 334.902C393.517 331.794 382.962 325.179 382.629 324.979C391.53 332.981 377.146 345.313 375.514 346.667Z" fill="black"/>
<path opacity="0.1" d="M380.409 419.222C381.077 419.222 381.619 418.68 381.619 418.012C381.619 417.344 381.077 416.802 380.409 416.802C379.741 416.802 379.199 417.344 379.199 418.012C379.199 418.68 379.741 419.222 380.409 419.222Z" fill="black"/>
<path d="M380.409 418.734C381.077 418.734 381.619 418.192 381.619 417.524C381.619 416.856 381.077 416.314 380.409 416.314C379.741 416.314 379.199 416.856 379.199 417.524C379.199 418.192 379.741 418.734 380.409 418.734Z" fill="#444053"/>
<path d="M375.026 345.679L382.385 352.805L393.162 334.813C393.037 334.701 392.939 334.561 392.875 334.406C392.812 334.25 392.785 334.082 392.796 333.914C393.029 330.817 382.474 324.202 382.152 323.991C391.042 332.016 376.658 344.347 375.026 345.679Z" fill="#67647E"/>
<path d="M369.292 413.494L382.363 413.793C383.405 413.817 384.269 412.991 384.293 411.95L385.02 380.126C385.044 379.084 384.219 378.22 383.177 378.196L370.106 377.897C369.064 377.873 368.2 378.699 368.176 379.74L367.448 411.564C367.425 412.606 368.25 413.47 369.292 413.494Z" fill="#3F3D56"/>
<path opacity="0.1" d="M369.292 413.494L382.363 413.793C383.405 413.817 384.269 412.991 384.293 411.95L385.02 380.126C385.044 379.084 384.219 378.22 383.177 378.196L370.106 377.897C369.064 377.873 368.2 378.699 368.176 379.74L367.448 411.564C367.425 412.606 368.25 413.47 369.292 413.494Z" fill="black"/>
<path d="M369.387 414.281L382.459 414.579C383.501 414.603 384.364 413.778 384.388 412.736L385.116 380.912C385.14 379.87 384.315 379.006 383.273 378.983L370.201 378.684C369.16 378.66 368.296 379.485 368.272 380.527L367.544 412.351C367.52 413.393 368.346 414.257 369.387 414.281Z" fill="#3F3D56"/>
<path d="M376.758 391.929C378.223 391.929 379.41 390.741 379.41 389.276C379.41 387.811 378.223 386.624 376.758 386.624C375.292 386.624 374.105 387.811 374.105 389.276C374.105 390.741 375.292 391.929 376.758 391.929Z" fill="#67647E"/>
<path opacity="0.1" d="M285.545 446.26C291.594 448.923 331.296 441.909 337.112 440.21C342.928 438.512 351.396 425.437 347.278 416.003C343.161 406.569 348.732 397.357 348.732 397.357C348.732 397.357 357.445 378.721 359.377 375.081C361.824 369.871 364.006 364.54 365.914 359.109C365.938 358.91 365.92 358.708 365.861 358.517C365.801 358.326 365.702 358.149 365.57 357.999C364.005 355.602 357.934 351.34 357.934 351.34C356.224 351.961 356.002 347.066 356.069 343.459C356.069 341.45 356.235 339.841 356.235 339.841C356.235 339.841 355.425 340.662 354.115 341.772C353.638 342.172 353.094 342.627 352.484 343.082C350.205 344.907 347.624 346.319 344.859 347.255C339.043 348.964 330.818 356.911 330.818 356.911L333.238 394.082C333.238 394.082 327.688 429.056 321.85 435.826C316.012 442.597 298.609 442.364 292.804 442.364C286.999 442.364 285.545 446.26 285.545 446.26Z" fill="black"/>
<path d="M285.057 444.805C291.106 447.469 330.818 440.455 336.623 438.756C342.428 437.058 350.908 423.994 346.79 414.549C342.672 405.104 348.244 395.903 348.244 395.903C348.244 395.903 356.957 377.267 358.899 373.638C360.842 370.008 364.871 359.431 365.437 357.655C365.458 357.456 365.439 357.255 365.379 357.064C365.32 356.873 365.223 356.697 365.093 356.545C363.517 354.148 357.445 349.885 357.445 349.885C355.736 350.507 355.525 345.612 355.592 342.016C355.592 339.996 355.747 338.387 355.747 338.387C355.747 338.387 354.948 339.208 353.638 340.318C353.15 340.729 352.606 341.173 352.007 341.628C349.724 343.453 347.139 344.865 344.371 345.801C338.566 347.521 330.33 355.457 330.33 355.457L332.75 392.639C332.75 392.639 327.2 427.602 321.373 434.383C315.546 441.165 298.131 440.91 292.315 440.91C286.5 440.91 285.057 444.805 285.057 444.805Z" fill="#67647E"/>
<path opacity="0.1" d="M350.908 339.386C350.908 339.386 351.13 340.662 351.518 342.616C352.817 349.275 355.958 363.782 358.178 363.227C359.787 362.816 362.506 359.975 364.615 357.511C363.039 355.113 356.968 350.851 356.968 350.851C355.258 351.473 355.048 346.578 355.114 342.982L353.161 341.295L350.908 339.386Z" fill="black"/>
<path d="M351.385 338.409C351.385 338.409 351.607 339.686 351.995 341.65C353.294 348.31 356.435 362.816 358.655 362.25C360.264 361.851 362.983 359.009 365.092 356.545C363.516 354.148 357.445 349.886 357.445 349.886C355.736 350.507 355.525 345.613 355.591 342.016L353.605 340.34L351.385 338.409Z" fill="#67647E"/>
<path d="M335.902 409.71C335.902 409.71 348 407.29 351.441 401.94C354.882 396.591 377.879 392.007 375.071 397.578C372.263 403.15 351.385 421.386 351.385 421.386L342.362 434.305L330.297 431.253L325.225 421.386L335.902 409.71Z" fill="#BE6F72"/>
<path opacity="0.1" d="M364.537 423.517C364.537 423.517 352.816 427.879 351.052 433.684C349.287 439.489 364.537 423.517 364.537 423.517Z" fill="black"/>
<path opacity="0.1" d="M371.73 430.288C371.73 430.288 372.84 436.337 358.1 435.837L371.73 430.288Z" fill="black"/>
<path opacity="0.1" d="M435.161 352.815L440.489 352.327C440.489 352.327 446.294 356.689 450.656 356.689C455.018 356.689 457.67 362.239 457.67 362.239C457.67 362.239 464.94 365.635 467.36 366.112C469.78 366.59 473.897 369.02 472.688 369.986C471.478 370.952 472.921 373.138 475.107 374.836C477.294 376.534 480.657 385.247 477.771 386.457C474.885 387.667 466.872 390.086 464.696 391.296C463.934 391.632 463.11 391.805 462.277 391.805C461.443 391.805 460.619 391.632 459.857 391.296C459.857 391.296 447.026 374.592 440.489 377.733C433.952 380.874 424.95 380.885 424.95 380.885L417.98 366.123L435.161 352.815Z" fill="black"/>
<path d="M323.759 432.474C324.235 433.295 324.885 434.002 325.664 434.545C326.442 435.088 327.33 435.453 328.265 435.615C333.008 436.168 337.813 435.722 342.372 434.306C342.372 434.306 317.954 426.536 341.462 407.668H335.169L333.071 406.869L334.037 401.852L335.413 356.634L330.297 355.479C330.297 355.479 326.201 385.259 325.224 388.888C324.248 392.517 323.515 406.558 323.515 406.558C323.515 406.558 322.549 412.374 321.095 415.271C320.03 417.457 320.307 427.302 323.759 432.474Z" fill="#67647E"/>
<path opacity="0.1" d="M324.747 432.474C325.225 433.296 325.877 434.003 326.658 434.545C327.438 435.088 328.328 435.453 329.264 435.615C334.003 436.168 338.804 435.721 343.36 434.306C343.36 434.306 318.942 426.536 342.461 407.668H336.157L334.059 406.869C330.596 413.029 325.168 423.895 324.747 432.474Z" fill="black"/>
<path d="M323.759 432.474C324.235 433.295 324.885 434.002 325.664 434.545C326.442 435.088 327.33 435.453 328.265 435.615C333.008 436.168 337.813 435.722 342.372 434.306C342.372 434.306 317.954 426.536 341.462 407.668H335.169L333.071 406.869C329.631 413.029 324.203 423.895 323.759 432.474Z" fill="#67647E"/>
<path opacity="0.1" d="M356.313 345.035C360.452 346.909 365.069 347.46 369.533 346.611C373.997 345.763 378.09 343.558 381.253 340.296C381.142 339.941 381.031 339.597 380.942 339.264C380.417 337.454 380.086 335.594 379.954 333.714C379.954 333.714 352.606 324.025 357.934 333.714C360.542 338.431 358.788 342.349 356.313 345.035Z" fill="black"/>
<path d="M343.405 324.002V324.213C343.405 324.935 343.405 325.634 343.527 326.333C343.594 327 343.694 327.663 343.827 328.32C344.775 333.068 347.26 337.372 350.9 340.566C354.539 343.76 359.129 345.666 363.96 345.989C368.792 346.313 373.595 345.035 377.628 342.355C381.66 339.675 384.697 335.741 386.27 331.161C386.414 330.74 386.558 330.307 386.669 329.874C387.201 327.962 387.47 325.987 387.469 324.002C387.469 323.492 387.469 322.981 387.413 322.482C387.009 316.792 384.413 311.481 380.172 307.665C375.932 303.85 370.377 301.828 364.676 302.025C358.975 302.222 353.573 304.623 349.606 308.722C345.638 312.82 343.416 318.298 343.405 324.002V324.002Z" fill="#BE6F72"/>
<path opacity="0.1" d="M343.405 324.213C343.525 324.913 343.565 325.624 343.527 326.333C343.525 326.704 343.543 327.074 343.582 327.443C343.626 327.73 343.708 328.01 343.827 328.275C344.715 330.362 347.623 331.716 349.532 330.373C350.27 329.777 350.859 329.017 351.252 328.153C353.294 324.368 356.125 320.018 360.575 319.94C362.473 319.94 364.26 320.706 366.125 321.183C367.99 321.66 370.143 321.705 371.519 320.45C372.562 319.496 373.062 317.853 374.483 317.509C375.903 317.165 377.191 318.475 377.812 319.729C378.434 320.983 378.978 322.493 380.287 323.148C380.876 323.436 381.553 323.514 382.13 323.825C384.76 325.267 383.551 330.318 386.281 331.139C386.368 331.166 386.457 331.189 386.547 331.206L386.681 329.851C386.925 327.387 387.18 324.934 387.424 322.459C387.02 316.769 384.424 311.458 380.184 307.643C375.943 303.828 370.388 301.806 364.687 302.003C358.986 302.2 353.584 304.6 349.617 308.699C345.65 312.798 343.427 318.276 343.416 323.98L343.405 324.213Z" fill="black"/>
<path d="M382.541 291.116C385.127 292.226 387.824 293.902 388.401 296.543C388.542 297.722 388.583 298.91 388.523 300.095C388.645 302.482 389.789 304.69 390.51 306.977C391.232 309.263 391.498 311.927 390.044 313.869C389.589 314.48 388.99 314.979 388.579 315.623C388.048 316.61 387.759 317.71 387.735 318.831L386.537 330.74C383.462 330.174 384.827 324.846 382.097 323.359C381.531 323.048 380.854 322.971 380.266 322.682C378.956 322.027 378.445 320.529 377.791 319.263C377.136 317.998 375.87 316.7 374.461 317.044C373.051 317.388 372.552 319.019 371.508 319.985C370.132 321.228 367.946 321.173 366.114 320.706C364.283 320.24 362.496 319.441 360.565 319.463C356.125 319.541 353.272 323.903 351.241 327.677C350.851 328.542 350.261 329.302 349.521 329.896C347.368 331.417 343.971 329.508 343.572 326.966C343.372 325.546 343.805 323.958 342.995 322.76C342.184 321.561 340.397 321.295 339.01 320.651C335.469 319.019 334.371 314.602 334.959 310.895C335.381 308.231 336.446 305.478 335.58 302.914C335.281 302.026 334.759 301.216 334.471 300.328C333.694 297.831 334.959 295.078 336.957 293.314C339.09 291.644 341.535 290.417 344.149 289.706C350.753 287.487 357.679 285.356 364.705 284.9C367.779 284.701 371.819 283.735 374.261 285.655C377.158 287.964 378.956 289.595 382.541 291.116Z" fill="#3F3D56"/>
<path opacity="0.1" d="M376.78 361.351C377.448 361.351 377.989 360.809 377.989 360.141C377.989 359.473 377.448 358.931 376.78 358.931C376.111 358.931 375.57 359.473 375.57 360.141C375.57 360.809 376.111 361.351 376.78 361.351Z" fill="black"/>
<path d="M376.78 360.874C377.448 360.874 377.989 360.332 377.989 359.664C377.989 358.996 377.448 358.454 376.78 358.454C376.111 358.454 375.57 358.996 375.57 359.664C375.57 360.332 376.111 360.874 376.78 360.874Z" fill="#444053"/>
<path opacity="0.1" d="M384.528 437.369C385.196 437.369 385.737 436.828 385.737 436.16C385.737 435.491 385.196 434.95 384.528 434.95C383.859 434.95 383.318 435.491 383.318 436.16C383.318 436.828 383.859 437.369 384.528 437.369Z" fill="black"/>
<path d="M384.528 436.892C385.196 436.892 385.737 436.35 385.737 435.682C385.737 435.014 385.196 434.472 384.528 434.472C383.859 434.472 383.318 435.014 383.318 435.682C383.318 436.35 383.859 436.892 384.528 436.892Z" fill="#444053"/>
<path opacity="0.1" d="M380.409 457.47C381.077 457.47 381.619 456.928 381.619 456.26C381.619 455.592 381.077 455.05 380.409 455.05C379.741 455.05 379.199 455.592 379.199 456.26C379.199 456.928 379.741 457.47 380.409 457.47Z" fill="black"/>
<path d="M380.409 456.981C381.077 456.981 381.619 456.439 381.619 455.771C381.619 455.103 381.077 454.562 380.409 454.562C379.741 454.562 379.199 455.103 379.199 455.771C379.199 456.439 379.741 456.981 380.409 456.981Z" fill="#444053"/>
<path opacity="0.1" d="M338.799 379.276C338.799 379.276 336.135 397.356 338.799 400.509C341.462 403.661 338.799 379.276 338.799 379.276Z" fill="black"/>
<path opacity="0.1" d="M417.98 412.851C417.98 412.851 423.064 423.806 417.98 434.306C412.897 444.806 409.745 449.079 411.443 455.783C413.141 462.487 417.98 412.851 417.98 412.851Z" fill="black"/>
<path opacity="0.1" d="M177.561 613.801C185.064 618.884 196.43 616.465 196.43 616.465C196.43 616.465 213.611 608.229 218.695 608.229C223.778 608.229 236.154 603.179 236.154 603.179L235.732 599.75C230.715 600.715 219.316 603.024 217.973 604.189C216.275 605.643 195.453 612.669 195.453 612.669C195.453 612.669 181.279 610.893 177.328 605.066C174.742 607.685 173.632 611.137 177.561 613.801Z" fill="black"/>
<g opacity="0.1">
<path opacity="0.1" d="M388.522 298.152C388.522 297.897 388.522 297.631 388.522 297.364C388.522 297.664 388.522 297.975 388.522 298.274C388.527 298.234 388.527 298.193 388.522 298.152Z" fill="black"/>
<path opacity="0.1" d="M339.02 318.752C340.407 319.385 342.161 319.618 343.004 320.85C343.848 322.082 343.382 323.636 343.581 325.057C343.959 327.598 347.377 329.496 349.531 327.998C350.27 327.403 350.859 326.642 351.251 325.778C353.282 322.004 356.124 317.653 360.574 317.576C362.472 317.576 364.259 318.342 366.124 318.808C367.989 319.274 370.142 319.34 371.518 318.086C372.561 317.132 373.061 315.489 374.47 315.145C375.88 314.801 377.19 316.1 377.8 317.365C378.411 318.63 378.966 320.117 380.275 320.772C380.864 321.061 381.541 321.15 382.107 321.46C384.826 322.948 383.461 328.264 386.546 328.841L387.745 316.921C387.77 315.8 388.059 314.701 388.589 313.713C388.999 313.081 389.599 312.603 390.054 311.971C390.601 311.217 390.942 310.333 391.041 309.407C391.308 310.977 390.953 312.588 390.054 313.902C389.599 314.512 388.999 315.012 388.589 315.656C388.057 316.643 387.768 317.742 387.745 318.863L386.546 330.773C383.472 330.207 384.837 324.879 382.107 323.392C381.541 323.081 380.864 323.003 380.275 322.715C378.966 322.06 378.455 320.561 377.8 319.296C377.145 318.031 375.88 316.732 374.47 317.076C373.061 317.42 372.561 319.052 371.518 320.018C370.142 321.261 367.955 321.205 366.124 320.739C364.292 320.273 362.506 319.474 360.574 319.496C356.135 319.574 353.282 323.936 351.251 327.709C350.86 328.574 350.271 329.335 349.531 329.929C347.377 331.45 343.981 329.541 343.581 326.999C343.382 325.578 343.815 323.991 343.004 322.792C342.194 321.594 340.407 321.327 339.02 320.683C335.779 319.196 334.58 315.367 334.858 311.893C335.102 314.768 336.378 317.531 339.02 318.752Z" fill="black"/>
<path opacity="0.1" d="M334.491 298.419C334.769 299.307 335.29 300.117 335.601 301.005C335.914 302.036 336.008 303.121 335.879 304.19C335.825 303.768 335.732 303.352 335.601 302.947C335.302 302.059 334.78 301.249 334.491 300.361C334.245 299.541 334.195 298.674 334.347 297.831C334.391 298.03 334.436 298.219 334.491 298.419Z" fill="black"/>
</g>
<path opacity="0.1" d="M405.627 406.069C411.176 404.849 424.262 400.986 424.262 400.986L426.604 400.52C426.604 392.395 426.171 384.526 426.016 381.851C426.016 381.851 414.917 385.48 412.22 387.401C409.523 389.321 401.32 388.855 401.32 388.855C401.32 388.855 388.49 389.576 377.834 401.441C367.179 413.306 400.055 407.29 405.627 406.069Z" fill="black"/>
<path d="M460.035 384.459C460.534 384.685 460.967 385.034 461.294 385.473C461.621 385.912 461.831 386.427 461.905 386.97C461.978 387.513 461.912 388.065 461.713 388.575C461.514 389.086 461.189 389.537 460.767 389.887C457.815 392.329 453.508 395.248 449.402 395.669C442.542 396.358 426.094 399.665 424.395 399.998C424.308 400.01 424.222 400.032 424.14 400.065C422.775 400.464 410.821 403.949 405.627 405.093C400.077 406.314 367.124 412.374 377.779 400.509C383.768 393.631 392.051 389.163 401.087 387.933H401.509C402.752 388 409.789 388.233 412.22 386.479C413.482 385.683 414.821 385.014 416.215 384.481C421.482 382.31 426.972 380.728 432.587 379.764L443.974 377.778C444.624 377.662 445.294 377.747 445.894 378.022L460.035 384.459Z" fill="#BE6F72"/>
<path d="M436.127 352.815L441.455 352.327C441.455 352.327 447.259 356.689 451.621 356.689C455.983 356.689 458.647 362.239 458.647 362.239C458.647 362.239 465.906 365.635 468.326 366.112C470.745 366.59 474.863 369.02 473.653 369.986C472.443 370.952 473.897 373.138 476.073 374.836C478.248 376.534 481.622 385.247 478.737 386.457C475.851 387.667 467.837 390.075 465.706 391.307C464.944 391.643 464.12 391.816 463.287 391.816C462.454 391.816 461.63 391.643 460.867 391.307C460.867 391.307 447.948 374.603 441.455 377.744C434.962 380.885 425.916 380.896 425.916 380.896L418.89 366.123L436.127 352.815Z" fill="#67647E"/>
<path opacity="0.1" d="M555 782C836.665 782 1065 770.583 1065 756.5C1065 742.417 836.665 731 555 731C273.335 731 45 742.417 45 756.5C45 770.583 273.335 782 555 782Z" fill="#4285F4"/>
<path d="M885.186 444.177C885.799 439.275 880.14 433.234 878.16 431.099L820.663 424.039C822.556 422.962 819.1 422.524 820.663 424.039L762.275 416.87C759.827 418.451 754.37 422.711 753.756 427.614L753.693 427.606L745.299 494.723L744.932 497.712C744.689 499.654 745.227 501.612 746.429 503.156C747.63 504.701 749.396 505.705 751.338 505.947L754.223 506.302L809.711 513.24L868.081 520.539C870.023 520.782 871.982 520.244 873.527 519.043C875.071 517.841 876.075 516.075 876.317 514.134L885.068 444.152L885.186 444.177Z" fill="url(#paint4_linear)"/>
<path d="M755.086 427.649L883.751 443.747L875.873 506.741C874.98 513.873 868.54 518.941 861.487 518.06L758.133 505.129C754.807 504.713 751.784 502.978 749.73 500.304C747.676 497.632 746.758 494.241 747.178 490.876L755.086 427.649Z" fill="#4285F4"/>
<path d="M822.914 425.642L763.857 418.389C761.462 419.909 755.4 424.004 754.808 428.73L883.602 444.955C884.194 440.229 879.451 434.407 877.504 432.344L822.914 425.642C824.769 424.607 821.373 424.18 822.914 425.642Z" fill="#4285F4"/>
<path d="M754.967 428.076L746.806 493.341C746.115 498.875 750.038 503.922 755.572 504.618L864.596 518.243" fill="#629DFD"/>
<path d="M883.702 444.144L875.52 509.602C874.823 515.152 869.83 519.096 864.364 518.413L756.701 504.946" fill="#94BAF7"/>
<path opacity="0.5" d="M845.053 473.64C843.034 490.085 828.066 501.779 811.621 499.76C795.176 497.741 783.481 482.773 785.5 466.328C787.519 449.883 802.488 438.188 818.933 440.207C835.378 442.227 847.072 457.195 845.053 473.64ZM828.573 467.31C829.651 463.42 826.892 460.92 822.945 458.993L824.937 453.785L821.754 452.572L819.809 457.638C818.977 457.318 818.118 457.02 817.265 456.701L819.223 451.6L816.056 450.389L814.057 455.588C813.365 455.339 812.688 455.092 812.033 454.842L807.665 453.164L806.366 456.547C806.366 456.547 808.727 457.399 808.666 457.429C809.949 457.923 810.079 458.835 809.955 459.514L807.678 465.443C807.79 465.486 807.899 465.536 808.004 465.594L807.671 465.467L804.482 473.77C804.35 474.06 804.108 474.287 803.808 474.398C803.51 474.509 803.179 474.497 802.889 474.363C802.915 474.416 800.585 473.48 800.585 473.48L798.507 477.022L802.627 478.605C803.412 478.902 804.144 479.201 804.881 479.489L802.862 484.751L806.025 485.962L808.025 480.755C808.862 481.096 809.702 481.427 810.545 481.75L808.552 486.934L811.72 488.144L813.737 482.89C819.178 484.627 823.424 484.716 825.803 479.897C827.721 476.023 826.52 473.493 823.772 471.606C825.966 471.374 827.749 470.172 828.534 467.322L828.573 467.31ZM819.823 476.862C818.318 480.786 811.754 477.761 809.607 476.943L812.283 469.97C814.421 470.795 821.391 472.76 819.815 476.861L819.823 476.862ZM822.127 466.461C820.751 470.04 815.298 467.464 813.509 466.78L815.929 460.457C817.714 461.141 823.551 462.728 822.103 466.458L822.127 466.461Z" fill="#F7931A"/>
<g opacity="0.5">
<path opacity="0.5" d="M62 294V371.146H183.546C183.546 371.146 192.519 388.805 207.946 393.941C207.946 393.941 203.022 381.432 208.162 371.146H242V294H62Z" fill="url(#paint5_linear)"/>
</g>
<path d="M66.8647 296.643V369.616H188.486C188.486 369.616 188.486 384.211 203.081 389.075C203.081 389.075 198.216 379.346 203.081 369.616H237.135V296.643H66.8647Z" fill="white"/>
<path d="M103.04 321.76C100.271 321.76 97.5644 322.581 95.2621 324.12C92.9598 325.658 91.1654 327.845 90.1057 330.403C89.0461 332.961 88.7689 335.776 89.3091 338.492C89.8492 341.207 91.1826 343.702 93.1405 345.66C95.0985 347.618 97.593 348.951 100.309 349.491C103.025 350.031 105.839 349.754 108.398 348.695C110.956 347.635 113.142 345.841 114.681 343.538C116.219 341.236 117.04 338.529 117.04 335.76C117.04 333.922 116.678 332.101 115.974 330.403C115.271 328.704 114.24 327.161 112.94 325.861C111.64 324.561 110.096 323.53 108.398 322.826C106.699 322.122 104.879 321.76 103.04 321.76V321.76ZM105.551 336.097V342.726H100.602V336.097C99.917 335.578 99.4122 334.858 99.1589 334.037C98.9055 333.216 98.9163 332.337 99.1897 331.522C99.4631 330.708 99.9854 330 100.683 329.499C101.38 328.997 102.217 328.728 103.076 328.728C103.935 328.728 104.773 328.997 105.47 329.499C106.167 330 106.69 330.708 106.963 331.522C107.237 332.337 107.247 333.216 106.994 334.037C106.741 334.858 106.236 335.578 105.551 336.097V336.097Z" fill="#4285F4"/>
<path opacity="0.2" d="M103.04 321.76C100.271 321.76 97.5644 322.581 95.2621 324.12C92.9598 325.658 91.1654 327.845 90.1057 330.403C89.0461 332.961 88.7689 335.776 89.3091 338.492C89.8492 341.207 91.1826 343.702 93.1405 345.66C95.0985 347.618 97.593 348.951 100.309 349.491C103.025 350.031 105.839 349.754 108.398 348.695C110.956 347.635 113.142 345.841 114.681 343.538C116.219 341.236 117.04 338.529 117.04 335.76C117.04 333.922 116.678 332.101 115.974 330.403C115.271 328.704 114.24 327.161 112.94 325.861C111.64 324.561 110.096 323.53 108.398 322.826C106.699 322.122 104.879 321.76 103.04 321.76V321.76ZM105.551 336.097V342.726H100.602V336.097C99.917 335.578 99.4122 334.858 99.1589 334.037C98.9055 333.216 98.9163 332.337 99.1897 331.522C99.4631 330.708 99.9854 330 100.683 329.499C101.38 328.997 102.217 328.728 103.076 328.728C103.935 328.728 104.773 328.997 105.47 329.499C106.167 330 106.69 330.708 106.963 331.522C107.237 332.337 107.247 333.216 106.994 334.037C106.741 334.858 106.236 335.578 105.551 336.097V336.097Z" fill="black"/>
<path d="M103.04 317.76C99.48 317.76 95.9999 318.815 93.0398 320.793C90.0797 322.771 87.7726 325.582 86.4102 328.871C85.0478 332.161 84.6914 335.78 85.3859 339.271C86.0804 342.763 87.7948 345.97 90.3121 348.488C92.8295 351.005 96.0368 352.719 99.5284 353.414C103.02 354.108 106.639 353.752 109.928 352.39C113.217 351.027 116.029 348.72 118.006 345.76C119.984 342.8 121.04 339.32 121.04 335.76C121.04 330.986 119.144 326.407 115.768 323.032C112.392 319.656 107.814 317.76 103.04 317.76V317.76ZM106.267 336.192V344.714H99.9037V336.192C99.0228 335.526 98.3735 334.599 98.0475 333.544C97.7216 332.488 97.7354 331.357 98.087 330.31C98.4386 329.263 99.1102 328.352 100.007 327.707C100.904 327.062 101.981 326.715 103.085 326.715C104.19 326.715 105.267 327.062 106.164 327.707C107.061 328.352 107.732 329.263 108.084 330.31C108.436 331.357 108.449 332.488 108.123 333.544C107.797 334.599 107.148 335.526 106.267 336.192V336.192Z" fill="#4285F4"/>
<path d="M220.432 321H130V349.8H220.432V321Z" fill="#CADEFF"/>
<path d="M154.24 335.351H149.335L153.698 330.997C153.776 330.917 153.82 330.809 153.82 330.697C153.82 330.584 153.776 330.477 153.698 330.396C153.658 330.356 153.612 330.325 153.56 330.303C153.508 330.282 153.453 330.271 153.397 330.271C153.341 330.271 153.286 330.282 153.234 330.303C153.183 330.325 153.136 330.356 153.096 330.396L148.734 334.758V329.845C148.734 329.733 148.689 329.625 148.61 329.546C148.53 329.467 148.423 329.422 148.31 329.422C148.199 329.424 148.092 329.469 148.013 329.548C147.934 329.627 147.889 329.734 147.887 329.845V334.758L143.533 330.371C143.494 330.331 143.447 330.299 143.395 330.278C143.344 330.256 143.288 330.245 143.232 330.245C143.176 330.245 143.121 330.256 143.069 330.278C143.018 330.299 142.971 330.331 142.932 330.371C142.853 330.451 142.81 330.559 142.81 330.671C142.81 330.784 142.853 330.891 142.932 330.972L147.294 335.326H142.381C142.269 335.328 142.163 335.373 142.084 335.452C142.005 335.531 141.96 335.638 141.958 335.749C141.958 335.862 142.002 335.969 142.082 336.049C142.161 336.128 142.269 336.173 142.381 336.173H147.294L142.932 340.535C142.853 340.616 142.81 340.724 142.81 340.836C142.81 340.948 142.853 341.056 142.932 341.137C143.013 341.213 143.121 341.255 143.232 341.255C143.344 341.255 143.451 341.213 143.533 341.137L147.887 336.774V341.679C147.887 341.791 147.932 341.899 148.011 341.978C148.09 342.058 148.198 342.102 148.31 342.102C148.423 342.102 148.53 342.058 148.61 341.978C148.689 341.899 148.734 341.791 148.734 341.679V336.774L153.096 341.137C153.178 341.213 153.285 341.255 153.397 341.255C153.509 341.255 153.616 341.213 153.698 341.137C153.776 341.056 153.82 340.948 153.82 340.836C153.82 340.724 153.776 340.616 153.698 340.535L149.335 336.173H154.24C154.352 336.173 154.46 336.128 154.539 336.049C154.619 335.969 154.663 335.862 154.663 335.749C154.657 335.642 154.609 335.54 154.531 335.466C154.452 335.392 154.348 335.351 154.24 335.351Z" fill="#4285F4"/>
<path d="M172.028 335.351H167.123L171.486 330.997C171.564 330.917 171.608 330.809 171.608 330.697C171.608 330.584 171.564 330.477 171.486 330.396C171.446 330.356 171.4 330.325 171.348 330.303C171.296 330.282 171.241 330.271 171.185 330.271C171.129 330.271 171.074 330.282 171.022 330.303C170.971 330.325 170.924 330.356 170.884 330.396L166.522 334.758V329.845C166.522 329.733 166.477 329.625 166.398 329.546C166.319 329.467 166.211 329.422 166.099 329.422C165.987 329.424 165.88 329.469 165.801 329.548C165.722 329.627 165.677 329.734 165.675 329.845V334.758L161.321 330.371C161.282 330.331 161.235 330.299 161.183 330.278C161.132 330.256 161.076 330.245 161.02 330.245C160.964 330.245 160.909 330.256 160.858 330.278C160.806 330.299 160.759 330.331 160.72 330.371C160.642 330.451 160.598 330.559 160.598 330.671C160.598 330.784 160.642 330.891 160.72 330.972L165.082 335.326H160.169C160.057 335.328 159.951 335.373 159.872 335.452C159.793 335.531 159.748 335.638 159.746 335.749C159.746 335.862 159.79 335.969 159.87 336.049C159.949 336.128 160.057 336.173 160.169 336.173H165.082L160.72 340.535C160.642 340.616 160.598 340.724 160.598 340.836C160.598 340.948 160.642 341.056 160.72 341.137C160.801 341.213 160.909 341.255 161.02 341.255C161.132 341.255 161.24 341.213 161.321 341.137L165.675 336.774V341.679C165.675 341.791 165.72 341.899 165.799 341.978C165.878 342.058 165.986 342.102 166.099 342.102C166.211 342.102 166.319 342.058 166.398 341.978C166.477 341.899 166.522 341.791 166.522 341.679V336.774L170.884 341.137C170.966 341.213 171.073 341.255 171.185 341.255C171.297 341.255 171.404 341.213 171.486 341.137C171.564 341.056 171.608 340.948 171.608 340.836C171.608 340.724 171.564 340.616 171.486 340.535L167.123 336.173H172.028C172.14 336.173 172.248 336.128 172.327 336.049C172.407 335.969 172.451 335.862 172.451 335.749C172.445 335.642 172.398 335.54 172.319 335.466C172.24 335.392 172.136 335.351 172.028 335.351Z" fill="#4285F4"/>
<path d="M189.816 335.351H184.912L189.274 330.997C189.352 330.917 189.396 330.809 189.396 330.697C189.396 330.584 189.352 330.477 189.274 330.396C189.235 330.356 189.188 330.325 189.136 330.303C189.085 330.282 189.029 330.271 188.973 330.271C188.918 330.271 188.862 330.282 188.811 330.303C188.759 330.325 188.712 330.356 188.673 330.396L184.31 334.758V329.845C184.31 329.733 184.266 329.625 184.186 329.546C184.107 329.467 183.999 329.422 183.887 329.422C183.775 329.424 183.669 329.469 183.59 329.548C183.511 329.627 183.466 329.734 183.463 329.845V334.758L179.109 330.371C179.07 330.331 179.023 330.299 178.972 330.278C178.92 330.256 178.865 330.245 178.809 330.245C178.753 330.245 178.697 330.256 178.646 330.278C178.594 330.299 178.547 330.331 178.508 330.371C178.43 330.451 178.386 330.559 178.386 330.671C178.386 330.784 178.43 330.891 178.508 330.972L182.87 335.326H177.957C177.846 335.328 177.739 335.373 177.66 335.452C177.581 335.531 177.536 335.638 177.534 335.749C177.534 335.862 177.579 335.969 177.658 336.049C177.737 336.128 177.845 336.173 177.957 336.173H182.87L178.508 340.535C178.43 340.616 178.386 340.724 178.386 340.836C178.386 340.948 178.43 341.056 178.508 341.137C178.59 341.213 178.697 341.255 178.809 341.255C178.92 341.255 179.028 341.213 179.109 341.137L183.463 336.774V341.679C183.463 341.791 183.508 341.899 183.587 341.978C183.667 342.058 183.775 342.102 183.887 342.102C183.999 342.102 184.107 342.058 184.186 341.978C184.266 341.899 184.31 341.791 184.31 341.679V336.774L188.673 341.137C188.754 341.213 188.862 341.255 188.973 341.255C189.085 341.255 189.193 341.213 189.274 341.137C189.352 341.056 189.396 340.948 189.396 340.836C189.396 340.724 189.352 340.616 189.274 340.535L184.912 336.173H189.816C189.929 336.173 190.036 336.128 190.116 336.049C190.195 335.969 190.24 335.862 190.24 335.749C190.233 335.642 190.186 335.54 190.107 335.466C190.028 335.392 189.924 335.351 189.816 335.351Z" fill="#4285F4"/>
<path d="M207.604 335.351H202.7L207.062 330.997C207.14 330.917 207.184 330.809 207.184 330.697C207.184 330.584 207.14 330.477 207.062 330.396C207.023 330.356 206.976 330.325 206.924 330.303C206.873 330.282 206.817 330.271 206.762 330.271C206.706 330.271 206.65 330.282 206.599 330.303C206.547 330.325 206.5 330.356 206.461 330.396L202.098 334.758V329.845C202.098 329.733 202.054 329.625 201.974 329.546C201.895 329.467 201.787 329.422 201.675 329.422C201.563 329.424 201.457 329.469 201.378 329.548C201.299 329.627 201.254 329.734 201.251 329.845V334.758L196.898 330.371C196.858 330.331 196.811 330.299 196.76 330.278C196.708 330.256 196.653 330.245 196.597 330.245C196.541 330.245 196.486 330.256 196.434 330.278C196.382 330.299 196.335 330.331 196.296 330.371C196.218 330.451 196.174 330.559 196.174 330.671C196.174 330.784 196.218 330.891 196.296 330.972L200.658 335.326H195.746C195.634 335.328 195.527 335.373 195.448 335.452C195.369 335.531 195.324 335.638 195.322 335.749C195.322 335.862 195.367 335.969 195.446 336.049C195.525 336.128 195.633 336.173 195.746 336.173H200.658L196.296 340.535C196.218 340.616 196.174 340.724 196.174 340.836C196.174 340.948 196.218 341.056 196.296 341.137C196.378 341.213 196.485 341.255 196.597 341.255C196.708 341.255 196.816 341.213 196.898 341.137L201.251 336.774V341.679C201.251 341.791 201.296 341.899 201.375 341.978C201.455 342.058 201.563 342.102 201.675 342.102C201.787 342.102 201.895 342.058 201.974 341.978C202.054 341.899 202.098 341.791 202.098 341.679V336.774L206.461 341.137C206.542 341.213 206.65 341.255 206.762 341.255C206.873 341.255 206.981 341.213 207.062 341.137C207.14 341.056 207.184 340.948 207.184 340.836C207.184 340.724 207.14 340.616 207.062 340.535L202.7 336.173H207.604C207.717 336.173 207.824 336.128 207.904 336.049C207.983 335.969 208.028 335.862 208.028 335.749C208.021 335.642 207.974 335.54 207.895 335.466C207.816 335.392 207.712 335.351 207.604 335.351Z" fill="#4285F4"/>
<defs>
<linearGradient id="paint0_linear" x1="-37241.2" y1="76037.6" x2="-44616.7" y2="75392.3" gradientUnits="userSpaceOnUse">
<stop stop-color="#808080" stop-opacity="0.25"/>
<stop offset="0.54" stop-color="#808080" stop-opacity="0.12"/>
<stop offset="1" stop-color="#808080" stop-opacity="0.1"/>
</linearGradient>
<linearGradient id="paint1_linear" x1="-19991.3" y1="103543" x2="-20668" y2="103483" gradientUnits="userSpaceOnUse">
<stop stop-color="#808080" stop-opacity="0.25"/>
<stop offset="0.54" stop-color="#808080" stop-opacity="0.12"/>
<stop offset="1" stop-color="#808080" stop-opacity="0.1"/>
</linearGradient>
<linearGradient id="paint2_linear" x1="-19358.9" y1="73130.1" x2="-19989.5" y2="73074.9" gradientUnits="userSpaceOnUse">
<stop stop-color="#808080" stop-opacity="0.25"/>
<stop offset="0.54" stop-color="#808080" stop-opacity="0.12"/>
<stop offset="1" stop-color="#808080" stop-opacity="0.1"/>
</linearGradient>
<linearGradient id="paint3_linear" x1="310534" y1="157635" x2="310534" y2="56458.5" gradientUnits="userSpaceOnUse">
<stop stop-color="#808080" stop-opacity="0.25"/>
<stop offset="0.54" stop-color="#808080" stop-opacity="0.12"/>
<stop offset="1" stop-color="#808080" stop-opacity="0.1"/>
</linearGradient>
<linearGradient id="paint4_linear" x1="809.843" y1="513.398" x2="825.951" y2="382.212" gradientUnits="userSpaceOnUse">
<stop stop-color="#808080" stop-opacity="0.25"/>
<stop offset="0.54" stop-color="#808080" stop-opacity="0.12"/>
<stop offset="1" stop-color="#808080" stop-opacity="0.1"/>
</linearGradient>
<linearGradient id="paint5_linear" x1="67832" y1="43018.6" x2="67832" y2="24540.6" gradientUnits="userSpaceOnUse">
<stop stop-color="#808080" stop-opacity="0.25"/>
<stop offset="0.54" stop-color="#808080" stop-opacity="0.12"/>
<stop offset="1" stop-color="#808080" stop-opacity="0.1"/>
</linearGradient>
</defs>
</svg>
