<svg width="20" height="20" viewBox="0 0 20 20" fill="none" xmlns="http://www.w3.org/2000/svg">
<path d="M18.4633 8.75167C18.1681 9.04224 17.7906 9.40635 17.6246 9.56079L17.3226 9.8416L16.5054 9.02463C16.0559 8.57529 15.6803 8.21546 15.6707 8.22501C15.6612 8.23456 15.6534 10.0621 15.6534 12.2862V16.33H14.4968H13.3403V12.2862C13.3403 10.0621 13.3325 8.23456 13.3229 8.22501C13.3134 8.21546 12.9376 8.57549 12.4879 9.02506L11.6702 9.84248L11.2318 9.42142C10.9907 9.18984 10.6163 8.82238 10.3999 8.60485L10.0063 8.20933L12.2331 5.98247C13.7043 4.5112 14.4766 3.75562 14.5091 3.75562C14.5417 3.75562 15.312 4.50922 16.7792 5.97649C18.0007 7.19797 19 8.20321 19 8.21035C19 8.2175 18.7585 8.46109 18.4633 8.75167V8.75167ZM7.7728 14.0846C6.30866 15.5487 5.53517 16.3054 5.50272 16.3054C5.47027 16.3054 4.69489 15.5468 3.22675 14.0786L1 11.8517L1.39355 11.4562C1.61 11.2386 1.98437 10.8712 2.22548 10.6396L2.66387 10.2186L3.48156 11.036C3.93128 11.4855 4.30706 11.8456 4.31661 11.836C4.32615 11.8265 4.33397 9.99893 4.33397 7.77483L4.33397 3.73101H5.49052H6.64707V7.77483C6.64707 9.99893 6.65488 11.8265 6.66443 11.836C6.67398 11.8456 7.04955 11.4857 7.49904 11.0364L8.31629 10.2194L8.61824 10.5002C8.97775 10.8346 9.99368 11.8321 9.99368 11.8508C9.99368 11.858 8.99428 12.8632 7.7728 14.0846Z" fill="#A8A8A8"/>
</svg>
